<?xml version="1.0" encoding="utf-8" standalone="no"?>
<!DOCTYPE svg PUBLIC "-//W3C//DTD SVG 1.1//EN"
  "http://www.w3.org/Graphics/SVG/1.1/DTD/svg11.dtd">
<!-- Created with matplotlib (https://matplotlib.org/) -->
<svg height="388.8pt" version="1.1" viewBox="0 0 691.2 388.8" width="691.2pt" xmlns="http://www.w3.org/2000/svg" xmlns:xlink="http://www.w3.org/1999/xlink">
 <defs>
  <style type="text/css">
*{stroke-linecap:butt;stroke-linejoin:round;}
  </style>
 </defs>
 <g id="figure_1">
  <g id="patch_1">
   <path d="M 0 388.8 
L 691.2 388.8 
L 691.2 0 
L 0 0 
z
" style="fill:#ffffff;"/>
  </g>
  <g id="axes_1">
   <g id="patch_2">
    <path d="M 86.4 340.2 
L 622.08 340.2 
L 622.08 46.656 
L 86.4 46.656 
z
" style="fill:#ffffff;"/>
   </g>
   <g id="matplotlib.axis_1">
    <g id="xtick_1">
     <g id="line2d_1">
      <path clip-path="url(#p50a8c38b70)" d="M 117.07353 340.2 
L 117.07353 46.656 
" style="fill:none;stroke:#cccccc;stroke-linecap:round;"/>
     </g>
     <g id="text_1">
      <!-- 0 -->
      <defs>
       <path d="M 31.78125 66.40625 
Q 24.171875 66.40625 20.328125 58.90625 
Q 16.5 51.421875 16.5 36.375 
Q 16.5 21.390625 20.328125 13.890625 
Q 24.171875 6.390625 31.78125 6.390625 
Q 39.453125 6.390625 43.28125 13.890625 
Q 47.125 21.390625 47.125 36.375 
Q 47.125 51.421875 43.28125 58.90625 
Q 39.453125 66.40625 31.78125 66.40625 
z
M 31.78125 74.21875 
Q 44.046875 74.21875 50.515625 64.515625 
Q 56.984375 54.828125 56.984375 36.375 
Q 56.984375 17.96875 50.515625 8.265625 
Q 44.046875 -1.421875 31.78125 -1.421875 
Q 19.53125 -1.421875 13.0625 8.265625 
Q 6.59375 17.96875 6.59375 36.375 
Q 6.59375 54.828125 13.0625 64.515625 
Q 19.53125 74.21875 31.78125 74.21875 
z
" id="DejaVuSans-48"/>
      </defs>
      <g style="fill:#262626;" transform="translate(113.574155 358.058281)scale(0.11 -0.11)">
       <use xlink:href="#DejaVuSans-48"/>
      </g>
     </g>
    </g>
    <g id="xtick_2">
     <g id="line2d_2">
      <path clip-path="url(#p50a8c38b70)" d="M 180.317922 340.2 
L 180.317922 46.656 
" style="fill:none;stroke:#cccccc;stroke-linecap:round;"/>
     </g>
     <g id="text_2">
      <!-- 2 -->
      <defs>
       <path d="M 19.1875 8.296875 
L 53.609375 8.296875 
L 53.609375 0 
L 7.328125 0 
L 7.328125 8.296875 
Q 12.9375 14.109375 22.625 23.890625 
Q 32.328125 33.6875 34.8125 36.53125 
Q 39.546875 41.84375 41.421875 45.53125 
Q 43.3125 49.21875 43.3125 52.78125 
Q 43.3125 58.59375 39.234375 62.25 
Q 35.15625 65.921875 28.609375 65.921875 
Q 23.96875 65.921875 18.8125 64.3125 
Q 13.671875 62.703125 7.8125 59.421875 
L 7.8125 69.390625 
Q 13.765625 71.78125 18.9375 73 
Q 24.125 74.21875 28.421875 74.21875 
Q 39.75 74.21875 46.484375 68.546875 
Q 53.21875 62.890625 53.21875 53.421875 
Q 53.21875 48.921875 51.53125 44.890625 
Q 49.859375 40.875 45.40625 35.40625 
Q 44.1875 33.984375 37.640625 27.21875 
Q 31.109375 20.453125 19.1875 8.296875 
z
" id="DejaVuSans-50"/>
      </defs>
      <g style="fill:#262626;" transform="translate(176.818547 358.058281)scale(0.11 -0.11)">
       <use xlink:href="#DejaVuSans-50"/>
      </g>
     </g>
    </g>
    <g id="xtick_3">
     <g id="line2d_3">
      <path clip-path="url(#p50a8c38b70)" d="M 243.562314 340.2 
L 243.562314 46.656 
" style="fill:none;stroke:#cccccc;stroke-linecap:round;"/>
     </g>
     <g id="text_3">
      <!-- 4 -->
      <defs>
       <path d="M 37.796875 64.3125 
L 12.890625 25.390625 
L 37.796875 25.390625 
z
M 35.203125 72.90625 
L 47.609375 72.90625 
L 47.609375 25.390625 
L 58.015625 25.390625 
L 58.015625 17.1875 
L 47.609375 17.1875 
L 47.609375 0 
L 37.796875 0 
L 37.796875 17.1875 
L 4.890625 17.1875 
L 4.890625 26.703125 
z
" id="DejaVuSans-52"/>
      </defs>
      <g style="fill:#262626;" transform="translate(240.062939 358.058281)scale(0.11 -0.11)">
       <use xlink:href="#DejaVuSans-52"/>
      </g>
     </g>
    </g>
    <g id="xtick_4">
     <g id="line2d_4">
      <path clip-path="url(#p50a8c38b70)" d="M 306.806706 340.2 
L 306.806706 46.656 
" style="fill:none;stroke:#cccccc;stroke-linecap:round;"/>
     </g>
     <g id="text_4">
      <!-- 6 -->
      <defs>
       <path d="M 33.015625 40.375 
Q 26.375 40.375 22.484375 35.828125 
Q 18.609375 31.296875 18.609375 23.390625 
Q 18.609375 15.53125 22.484375 10.953125 
Q 26.375 6.390625 33.015625 6.390625 
Q 39.65625 6.390625 43.53125 10.953125 
Q 47.40625 15.53125 47.40625 23.390625 
Q 47.40625 31.296875 43.53125 35.828125 
Q 39.65625 40.375 33.015625 40.375 
z
M 52.59375 71.296875 
L 52.59375 62.3125 
Q 48.875 64.0625 45.09375 64.984375 
Q 41.3125 65.921875 37.59375 65.921875 
Q 27.828125 65.921875 22.671875 59.328125 
Q 17.53125 52.734375 16.796875 39.40625 
Q 19.671875 43.65625 24.015625 45.921875 
Q 28.375 48.1875 33.59375 48.1875 
Q 44.578125 48.1875 50.953125 41.515625 
Q 57.328125 34.859375 57.328125 23.390625 
Q 57.328125 12.15625 50.6875 5.359375 
Q 44.046875 -1.421875 33.015625 -1.421875 
Q 20.359375 -1.421875 13.671875 8.265625 
Q 6.984375 17.96875 6.984375 36.375 
Q 6.984375 53.65625 15.1875 63.9375 
Q 23.390625 74.21875 37.203125 74.21875 
Q 40.921875 74.21875 44.703125 73.484375 
Q 48.484375 72.75 52.59375 71.296875 
z
" id="DejaVuSans-54"/>
      </defs>
      <g style="fill:#262626;" transform="translate(303.307331 358.058281)scale(0.11 -0.11)">
       <use xlink:href="#DejaVuSans-54"/>
      </g>
     </g>
    </g>
    <g id="xtick_5">
     <g id="line2d_5">
      <path clip-path="url(#p50a8c38b70)" d="M 370.051098 340.2 
L 370.051098 46.656 
" style="fill:none;stroke:#cccccc;stroke-linecap:round;"/>
     </g>
     <g id="text_5">
      <!-- 8 -->
      <defs>
       <path d="M 31.78125 34.625 
Q 24.75 34.625 20.71875 30.859375 
Q 16.703125 27.09375 16.703125 20.515625 
Q 16.703125 13.921875 20.71875 10.15625 
Q 24.75 6.390625 31.78125 6.390625 
Q 38.8125 6.390625 42.859375 10.171875 
Q 46.921875 13.96875 46.921875 20.515625 
Q 46.921875 27.09375 42.890625 30.859375 
Q 38.875 34.625 31.78125 34.625 
z
M 21.921875 38.8125 
Q 15.578125 40.375 12.03125 44.71875 
Q 8.5 49.078125 8.5 55.328125 
Q 8.5 64.0625 14.71875 69.140625 
Q 20.953125 74.21875 31.78125 74.21875 
Q 42.671875 74.21875 48.875 69.140625 
Q 55.078125 64.0625 55.078125 55.328125 
Q 55.078125 49.078125 51.53125 44.71875 
Q 48 40.375 41.703125 38.8125 
Q 48.828125 37.15625 52.796875 32.3125 
Q 56.78125 27.484375 56.78125 20.515625 
Q 56.78125 9.90625 50.3125 4.234375 
Q 43.84375 -1.421875 31.78125 -1.421875 
Q 19.734375 -1.421875 13.25 4.234375 
Q 6.78125 9.90625 6.78125 20.515625 
Q 6.78125 27.484375 10.78125 32.3125 
Q 14.796875 37.15625 21.921875 38.8125 
z
M 18.3125 54.390625 
Q 18.3125 48.734375 21.84375 45.5625 
Q 25.390625 42.390625 31.78125 42.390625 
Q 38.140625 42.390625 41.71875 45.5625 
Q 45.3125 48.734375 45.3125 54.390625 
Q 45.3125 60.0625 41.71875 63.234375 
Q 38.140625 66.40625 31.78125 66.40625 
Q 25.390625 66.40625 21.84375 63.234375 
Q 18.3125 60.0625 18.3125 54.390625 
z
" id="DejaVuSans-56"/>
      </defs>
      <g style="fill:#262626;" transform="translate(366.551723 358.058281)scale(0.11 -0.11)">
       <use xlink:href="#DejaVuSans-56"/>
      </g>
     </g>
    </g>
    <g id="xtick_6">
     <g id="line2d_6">
      <path clip-path="url(#p50a8c38b70)" d="M 433.29549 340.2 
L 433.29549 46.656 
" style="fill:none;stroke:#cccccc;stroke-linecap:round;"/>
     </g>
     <g id="text_6">
      <!-- 10 -->
      <defs>
       <path d="M 12.40625 8.296875 
L 28.515625 8.296875 
L 28.515625 63.921875 
L 10.984375 60.40625 
L 10.984375 69.390625 
L 28.421875 72.90625 
L 38.28125 72.90625 
L 38.28125 8.296875 
L 54.390625 8.296875 
L 54.390625 0 
L 12.40625 0 
z
" id="DejaVuSans-49"/>
      </defs>
      <g style="fill:#262626;" transform="translate(426.29674 358.058281)scale(0.11 -0.11)">
       <use xlink:href="#DejaVuSans-49"/>
       <use x="63.623047" xlink:href="#DejaVuSans-48"/>
      </g>
     </g>
    </g>
    <g id="xtick_7">
     <g id="line2d_7">
      <path clip-path="url(#p50a8c38b70)" d="M 496.539882 340.2 
L 496.539882 46.656 
" style="fill:none;stroke:#cccccc;stroke-linecap:round;"/>
     </g>
     <g id="text_7">
      <!-- 12 -->
      <g style="fill:#262626;" transform="translate(489.541132 358.058281)scale(0.11 -0.11)">
       <use xlink:href="#DejaVuSans-49"/>
       <use x="63.623047" xlink:href="#DejaVuSans-50"/>
      </g>
     </g>
    </g>
    <g id="xtick_8">
     <g id="line2d_8">
      <path clip-path="url(#p50a8c38b70)" d="M 559.784274 340.2 
L 559.784274 46.656 
" style="fill:none;stroke:#cccccc;stroke-linecap:round;"/>
     </g>
     <g id="text_8">
      <!-- 14 -->
      <g style="fill:#262626;" transform="translate(552.785524 358.058281)scale(0.11 -0.11)">
       <use xlink:href="#DejaVuSans-49"/>
       <use x="63.623047" xlink:href="#DejaVuSans-52"/>
      </g>
     </g>
    </g>
    <g id="text_9">
     <!-- syllables -->
     <defs>
      <path d="M 44.28125 53.078125 
L 44.28125 44.578125 
Q 40.484375 46.53125 36.375 47.5 
Q 32.28125 48.484375 27.875 48.484375 
Q 21.1875 48.484375 17.84375 46.4375 
Q 14.5 44.390625 14.5 40.28125 
Q 14.5 37.15625 16.890625 35.375 
Q 19.28125 33.59375 26.515625 31.984375 
L 29.59375 31.296875 
Q 39.15625 29.25 43.1875 25.515625 
Q 47.21875 21.78125 47.21875 15.09375 
Q 47.21875 7.46875 41.1875 3.015625 
Q 35.15625 -1.421875 24.609375 -1.421875 
Q 20.21875 -1.421875 15.453125 -0.5625 
Q 10.6875 0.296875 5.421875 2 
L 5.421875 11.28125 
Q 10.40625 8.6875 15.234375 7.390625 
Q 20.0625 6.109375 24.8125 6.109375 
Q 31.15625 6.109375 34.5625 8.28125 
Q 37.984375 10.453125 37.984375 14.40625 
Q 37.984375 18.0625 35.515625 20.015625 
Q 33.0625 21.96875 24.703125 23.78125 
L 21.578125 24.515625 
Q 13.234375 26.265625 9.515625 29.90625 
Q 5.8125 33.546875 5.8125 39.890625 
Q 5.8125 47.609375 11.28125 51.796875 
Q 16.75 56 26.8125 56 
Q 31.78125 56 36.171875 55.265625 
Q 40.578125 54.546875 44.28125 53.078125 
z
" id="DejaVuSans-115"/>
      <path d="M 32.171875 -5.078125 
Q 28.375 -14.84375 24.75 -17.8125 
Q 21.140625 -20.796875 15.09375 -20.796875 
L 7.90625 -20.796875 
L 7.90625 -13.28125 
L 13.1875 -13.28125 
Q 16.890625 -13.28125 18.9375 -11.515625 
Q 21 -9.765625 23.484375 -3.21875 
L 25.09375 0.875 
L 2.984375 54.6875 
L 12.5 54.6875 
L 29.59375 11.921875 
L 46.6875 54.6875 
L 56.203125 54.6875 
z
" id="DejaVuSans-121"/>
      <path d="M 9.421875 75.984375 
L 18.40625 75.984375 
L 18.40625 0 
L 9.421875 0 
z
" id="DejaVuSans-108"/>
      <path d="M 34.28125 27.484375 
Q 23.390625 27.484375 19.1875 25 
Q 14.984375 22.515625 14.984375 16.5 
Q 14.984375 11.71875 18.140625 8.90625 
Q 21.296875 6.109375 26.703125 6.109375 
Q 34.1875 6.109375 38.703125 11.40625 
Q 43.21875 16.703125 43.21875 25.484375 
L 43.21875 27.484375 
z
M 52.203125 31.203125 
L 52.203125 0 
L 43.21875 0 
L 43.21875 8.296875 
Q 40.140625 3.328125 35.546875 0.953125 
Q 30.953125 -1.421875 24.3125 -1.421875 
Q 15.921875 -1.421875 10.953125 3.296875 
Q 6 8.015625 6 15.921875 
Q 6 25.140625 12.171875 29.828125 
Q 18.359375 34.515625 30.609375 34.515625 
L 43.21875 34.515625 
L 43.21875 35.40625 
Q 43.21875 41.609375 39.140625 45 
Q 35.0625 48.390625 27.6875 48.390625 
Q 23 48.390625 18.546875 47.265625 
Q 14.109375 46.140625 10.015625 43.890625 
L 10.015625 52.203125 
Q 14.9375 54.109375 19.578125 55.046875 
Q 24.21875 56 28.609375 56 
Q 40.484375 56 46.34375 49.84375 
Q 52.203125 43.703125 52.203125 31.203125 
z
" id="DejaVuSans-97"/>
      <path d="M 48.6875 27.296875 
Q 48.6875 37.203125 44.609375 42.84375 
Q 40.53125 48.484375 33.40625 48.484375 
Q 26.265625 48.484375 22.1875 42.84375 
Q 18.109375 37.203125 18.109375 27.296875 
Q 18.109375 17.390625 22.1875 11.75 
Q 26.265625 6.109375 33.40625 6.109375 
Q 40.53125 6.109375 44.609375 11.75 
Q 48.6875 17.390625 48.6875 27.296875 
z
M 18.109375 46.390625 
Q 20.953125 51.265625 25.265625 53.625 
Q 29.59375 56 35.59375 56 
Q 45.5625 56 51.78125 48.09375 
Q 58.015625 40.1875 58.015625 27.296875 
Q 58.015625 14.40625 51.78125 6.484375 
Q 45.5625 -1.421875 35.59375 -1.421875 
Q 29.59375 -1.421875 25.265625 0.953125 
Q 20.953125 3.328125 18.109375 8.203125 
L 18.109375 0 
L 9.078125 0 
L 9.078125 75.984375 
L 18.109375 75.984375 
z
" id="DejaVuSans-98"/>
      <path d="M 56.203125 29.59375 
L 56.203125 25.203125 
L 14.890625 25.203125 
Q 15.484375 15.921875 20.484375 11.0625 
Q 25.484375 6.203125 34.421875 6.203125 
Q 39.59375 6.203125 44.453125 7.46875 
Q 49.3125 8.734375 54.109375 11.28125 
L 54.109375 2.78125 
Q 49.265625 0.734375 44.1875 -0.34375 
Q 39.109375 -1.421875 33.890625 -1.421875 
Q 20.796875 -1.421875 13.15625 6.1875 
Q 5.515625 13.8125 5.515625 26.8125 
Q 5.515625 40.234375 12.765625 48.109375 
Q 20.015625 56 32.328125 56 
Q 43.359375 56 49.78125 48.890625 
Q 56.203125 41.796875 56.203125 29.59375 
z
M 47.21875 32.234375 
Q 47.125 39.59375 43.09375 43.984375 
Q 39.0625 48.390625 32.421875 48.390625 
Q 24.90625 48.390625 20.390625 44.140625 
Q 15.875 39.890625 15.1875 32.171875 
z
" id="DejaVuSans-101"/>
     </defs>
     <g style="fill:#262626;" transform="translate(328.259062 373.464062)scale(0.12 -0.12)">
      <use xlink:href="#DejaVuSans-115"/>
      <use x="52.099609" xlink:href="#DejaVuSans-121"/>
      <use x="111.279297" xlink:href="#DejaVuSans-108"/>
      <use x="139.0625" xlink:href="#DejaVuSans-108"/>
      <use x="166.845703" xlink:href="#DejaVuSans-97"/>
      <use x="228.125" xlink:href="#DejaVuSans-98"/>
      <use x="291.601562" xlink:href="#DejaVuSans-108"/>
      <use x="319.384766" xlink:href="#DejaVuSans-101"/>
      <use x="380.908203" xlink:href="#DejaVuSans-115"/>
     </g>
    </g>
   </g>
   <g id="matplotlib.axis_2">
    <g id="ytick_1">
     <g id="line2d_9">
      <path clip-path="url(#p50a8c38b70)" d="M 86.4 340.2 
L 622.08 340.2 
" style="fill:none;stroke:#cccccc;stroke-linecap:round;"/>
     </g>
     <g id="text_10">
      <!-- 0.00 -->
      <defs>
       <path d="M 10.6875 12.40625 
L 21 12.40625 
L 21 0 
L 10.6875 0 
z
" id="DejaVuSans-46"/>
      </defs>
      <g style="fill:#262626;" transform="translate(52.407812 344.379141)scale(0.11 -0.11)">
       <use xlink:href="#DejaVuSans-48"/>
       <use x="63.623047" xlink:href="#DejaVuSans-46"/>
       <use x="95.410156" xlink:href="#DejaVuSans-48"/>
       <use x="159.033203" xlink:href="#DejaVuSans-48"/>
      </g>
     </g>
    </g>
    <g id="ytick_2">
     <g id="line2d_10">
      <path clip-path="url(#p50a8c38b70)" d="M 86.4 289.046919 
L 622.08 289.046919 
" style="fill:none;stroke:#cccccc;stroke-linecap:round;"/>
     </g>
     <g id="text_11">
      <!-- 0.05 -->
      <defs>
       <path d="M 10.796875 72.90625 
L 49.515625 72.90625 
L 49.515625 64.59375 
L 19.828125 64.59375 
L 19.828125 46.734375 
Q 21.96875 47.46875 24.109375 47.828125 
Q 26.265625 48.1875 28.421875 48.1875 
Q 40.625 48.1875 47.75 41.5 
Q 54.890625 34.8125 54.890625 23.390625 
Q 54.890625 11.625 47.5625 5.09375 
Q 40.234375 -1.421875 26.90625 -1.421875 
Q 22.3125 -1.421875 17.546875 -0.640625 
Q 12.796875 0.140625 7.71875 1.703125 
L 7.71875 11.625 
Q 12.109375 9.234375 16.796875 8.0625 
Q 21.484375 6.890625 26.703125 6.890625 
Q 35.15625 6.890625 40.078125 11.328125 
Q 45.015625 15.765625 45.015625 23.390625 
Q 45.015625 31 40.078125 35.4375 
Q 35.15625 39.890625 26.703125 39.890625 
Q 22.75 39.890625 18.8125 39.015625 
Q 14.890625 38.140625 10.796875 36.28125 
z
" id="DejaVuSans-53"/>
      </defs>
      <g style="fill:#262626;" transform="translate(52.407812 293.22606)scale(0.11 -0.11)">
       <use xlink:href="#DejaVuSans-48"/>
       <use x="63.623047" xlink:href="#DejaVuSans-46"/>
       <use x="95.410156" xlink:href="#DejaVuSans-48"/>
       <use x="159.033203" xlink:href="#DejaVuSans-53"/>
      </g>
     </g>
    </g>
    <g id="ytick_3">
     <g id="line2d_11">
      <path clip-path="url(#p50a8c38b70)" d="M 86.4 237.893838 
L 622.08 237.893838 
" style="fill:none;stroke:#cccccc;stroke-linecap:round;"/>
     </g>
     <g id="text_12">
      <!-- 0.10 -->
      <g style="fill:#262626;" transform="translate(52.407812 242.072979)scale(0.11 -0.11)">
       <use xlink:href="#DejaVuSans-48"/>
       <use x="63.623047" xlink:href="#DejaVuSans-46"/>
       <use x="95.410156" xlink:href="#DejaVuSans-49"/>
       <use x="159.033203" xlink:href="#DejaVuSans-48"/>
      </g>
     </g>
    </g>
    <g id="ytick_4">
     <g id="line2d_12">
      <path clip-path="url(#p50a8c38b70)" d="M 86.4 186.740758 
L 622.08 186.740758 
" style="fill:none;stroke:#cccccc;stroke-linecap:round;"/>
     </g>
     <g id="text_13">
      <!-- 0.15 -->
      <g style="fill:#262626;" transform="translate(52.407812 190.919898)scale(0.11 -0.11)">
       <use xlink:href="#DejaVuSans-48"/>
       <use x="63.623047" xlink:href="#DejaVuSans-46"/>
       <use x="95.410156" xlink:href="#DejaVuSans-49"/>
       <use x="159.033203" xlink:href="#DejaVuSans-53"/>
      </g>
     </g>
    </g>
    <g id="ytick_5">
     <g id="line2d_13">
      <path clip-path="url(#p50a8c38b70)" d="M 86.4 135.587677 
L 622.08 135.587677 
" style="fill:none;stroke:#cccccc;stroke-linecap:round;"/>
     </g>
     <g id="text_14">
      <!-- 0.20 -->
      <g style="fill:#262626;" transform="translate(52.407812 139.766817)scale(0.11 -0.11)">
       <use xlink:href="#DejaVuSans-48"/>
       <use x="63.623047" xlink:href="#DejaVuSans-46"/>
       <use x="95.410156" xlink:href="#DejaVuSans-50"/>
       <use x="159.033203" xlink:href="#DejaVuSans-48"/>
      </g>
     </g>
    </g>
    <g id="ytick_6">
     <g id="line2d_14">
      <path clip-path="url(#p50a8c38b70)" d="M 86.4 84.434596 
L 622.08 84.434596 
" style="fill:none;stroke:#cccccc;stroke-linecap:round;"/>
     </g>
     <g id="text_15">
      <!-- 0.25 -->
      <g style="fill:#262626;" transform="translate(52.407812 88.613737)scale(0.11 -0.11)">
       <use xlink:href="#DejaVuSans-48"/>
       <use x="63.623047" xlink:href="#DejaVuSans-46"/>
       <use x="95.410156" xlink:href="#DejaVuSans-50"/>
       <use x="159.033203" xlink:href="#DejaVuSans-53"/>
      </g>
     </g>
    </g>
    <g id="text_16">
     <!-- density -->
     <defs>
      <path d="M 45.40625 46.390625 
L 45.40625 75.984375 
L 54.390625 75.984375 
L 54.390625 0 
L 45.40625 0 
L 45.40625 8.203125 
Q 42.578125 3.328125 38.25 0.953125 
Q 33.9375 -1.421875 27.875 -1.421875 
Q 17.96875 -1.421875 11.734375 6.484375 
Q 5.515625 14.40625 5.515625 27.296875 
Q 5.515625 40.1875 11.734375 48.09375 
Q 17.96875 56 27.875 56 
Q 33.9375 56 38.25 53.625 
Q 42.578125 51.265625 45.40625 46.390625 
z
M 14.796875 27.296875 
Q 14.796875 17.390625 18.875 11.75 
Q 22.953125 6.109375 30.078125 6.109375 
Q 37.203125 6.109375 41.296875 11.75 
Q 45.40625 17.390625 45.40625 27.296875 
Q 45.40625 37.203125 41.296875 42.84375 
Q 37.203125 48.484375 30.078125 48.484375 
Q 22.953125 48.484375 18.875 42.84375 
Q 14.796875 37.203125 14.796875 27.296875 
z
" id="DejaVuSans-100"/>
      <path d="M 54.890625 33.015625 
L 54.890625 0 
L 45.90625 0 
L 45.90625 32.71875 
Q 45.90625 40.484375 42.875 44.328125 
Q 39.84375 48.1875 33.796875 48.1875 
Q 26.515625 48.1875 22.3125 43.546875 
Q 18.109375 38.921875 18.109375 30.90625 
L 18.109375 0 
L 9.078125 0 
L 9.078125 54.6875 
L 18.109375 54.6875 
L 18.109375 46.1875 
Q 21.34375 51.125 25.703125 53.5625 
Q 30.078125 56 35.796875 56 
Q 45.21875 56 50.046875 50.171875 
Q 54.890625 44.34375 54.890625 33.015625 
z
" id="DejaVuSans-110"/>
      <path d="M 9.421875 54.6875 
L 18.40625 54.6875 
L 18.40625 0 
L 9.421875 0 
z
M 9.421875 75.984375 
L 18.40625 75.984375 
L 18.40625 64.59375 
L 9.421875 64.59375 
z
" id="DejaVuSans-105"/>
      <path d="M 18.3125 70.21875 
L 18.3125 54.6875 
L 36.8125 54.6875 
L 36.8125 47.703125 
L 18.3125 47.703125 
L 18.3125 18.015625 
Q 18.3125 11.328125 20.140625 9.421875 
Q 21.96875 7.515625 27.59375 7.515625 
L 36.8125 7.515625 
L 36.8125 0 
L 27.59375 0 
Q 17.1875 0 13.234375 3.875 
Q 9.28125 7.765625 9.28125 18.015625 
L 9.28125 47.703125 
L 2.6875 47.703125 
L 2.6875 54.6875 
L 9.28125 54.6875 
L 9.28125 70.21875 
z
" id="DejaVuSans-116"/>
     </defs>
     <g style="fill:#262626;" transform="translate(45.912187 215.427375)rotate(-90)scale(0.12 -0.12)">
      <use xlink:href="#DejaVuSans-100"/>
      <use x="63.476562" xlink:href="#DejaVuSans-101"/>
      <use x="125" xlink:href="#DejaVuSans-110"/>
      <use x="188.378906" xlink:href="#DejaVuSans-115"/>
      <use x="240.478516" xlink:href="#DejaVuSans-105"/>
      <use x="268.261719" xlink:href="#DejaVuSans-116"/>
      <use x="307.470703" xlink:href="#DejaVuSans-121"/>
     </g>
    </g>
   </g>
   <g id="patch_3">
    <path clip-path="url(#p50a8c38b70)" d="M 132.884628 340.2 
L 164.506824 340.2 
L 164.506824 327.049254 
L 132.884628 327.049254 
z
" style="fill:#4c72b0;opacity:0.4;stroke:#ffffff;stroke-linejoin:miter;"/>
   </g>
   <g id="patch_4">
    <path clip-path="url(#p50a8c38b70)" d="M 164.506824 340.2 
L 196.12902 340.2 
L 196.12902 210.37302 
L 164.506824 210.37302 
z
" style="fill:#4c72b0;opacity:0.4;stroke:#ffffff;stroke-linejoin:miter;"/>
   </g>
   <g id="patch_5">
    <path clip-path="url(#p50a8c38b70)" d="M 196.12902 340.2 
L 227.751216 340.2 
L 227.751216 60.634286 
L 196.12902 60.634286 
z
" style="fill:#4c72b0;opacity:0.4;stroke:#ffffff;stroke-linejoin:miter;"/>
   </g>
   <g id="patch_6">
    <path clip-path="url(#p50a8c38b70)" d="M 227.751216 340.2 
L 259.373412 340.2 
L 259.373412 83.477112 
L 227.751216 83.477112 
z
" style="fill:#4c72b0;opacity:0.4;stroke:#ffffff;stroke-linejoin:miter;"/>
   </g>
   <g id="patch_7">
    <path clip-path="url(#p50a8c38b70)" d="M 259.373412 340.2 
L 290.995608 340.2 
L 290.995608 118.45458 
L 259.373412 118.45458 
z
" style="fill:#4c72b0;opacity:0.4;stroke:#ffffff;stroke-linejoin:miter;"/>
   </g>
   <g id="patch_8">
    <path clip-path="url(#p50a8c38b70)" d="M 290.995608 340.2 
L 322.617804 340.2 
L 322.617804 252.150576 
L 290.995608 252.150576 
z
" style="fill:#4c72b0;opacity:0.4;stroke:#ffffff;stroke-linejoin:miter;"/>
   </g>
   <g id="patch_9">
    <path clip-path="url(#p50a8c38b70)" d="M 322.617804 340.2 
L 354.24 340.2 
L 354.24 314.777829 
L 322.617804 314.777829 
z
" style="fill:#4c72b0;opacity:0.4;stroke:#ffffff;stroke-linejoin:miter;"/>
   </g>
   <g id="patch_10">
    <path clip-path="url(#p50a8c38b70)" d="M 354.24 340.2 
L 385.862196 340.2 
L 385.862196 331.621727 
L 354.24 331.621727 
z
" style="fill:#4c72b0;opacity:0.4;stroke:#ffffff;stroke-linejoin:miter;"/>
   </g>
   <g id="patch_11">
    <path clip-path="url(#p50a8c38b70)" d="M 132.884628 340.2 
L 164.506824 340.2 
L 164.506824 337.238413 
L 132.884628 337.238413 
z
" style="fill:#dd8452;opacity:0.4;stroke:#ffffff;stroke-linejoin:miter;"/>
   </g>
   <g id="patch_12">
    <path clip-path="url(#p50a8c38b70)" d="M 164.506824 340.2 
L 196.12902 340.2 
L 196.12902 287.499441 
L 164.506824 287.499441 
z
" style="fill:#dd8452;opacity:0.4;stroke:#ffffff;stroke-linejoin:miter;"/>
   </g>
   <g id="patch_13">
    <path clip-path="url(#p50a8c38b70)" d="M 196.12902 340.2 
L 227.751216 340.2 
L 227.751216 215.244562 
L 196.12902 215.244562 
z
" style="fill:#dd8452;opacity:0.4;stroke:#ffffff;stroke-linejoin:miter;"/>
   </g>
   <g id="patch_14">
    <path clip-path="url(#p50a8c38b70)" d="M 227.751216 340.2 
L 259.373412 340.2 
L 259.373412 138.262912 
L 227.751216 138.262912 
z
" style="fill:#dd8452;opacity:0.4;stroke:#ffffff;stroke-linejoin:miter;"/>
   </g>
   <g id="patch_15">
    <path clip-path="url(#p50a8c38b70)" d="M 259.373412 340.2 
L 290.995608 340.2 
L 290.995608 113.373813 
L 259.373412 113.373813 
z
" style="fill:#dd8452;opacity:0.4;stroke:#ffffff;stroke-linejoin:miter;"/>
   </g>
   <g id="patch_16">
    <path clip-path="url(#p50a8c38b70)" d="M 290.995608 340.2 
L 322.617804 340.2 
L 322.617804 160.798432 
L 290.995608 160.798432 
z
" style="fill:#dd8452;opacity:0.4;stroke:#ffffff;stroke-linejoin:miter;"/>
   </g>
   <g id="patch_17">
    <path clip-path="url(#p50a8c38b70)" d="M 322.617804 340.2 
L 354.24 340.2 
L 354.24 187.001613 
L 322.617804 187.001613 
z
" style="fill:#dd8452;opacity:0.4;stroke:#ffffff;stroke-linejoin:miter;"/>
   </g>
   <g id="patch_18">
    <path clip-path="url(#p50a8c38b70)" d="M 354.24 340.2 
L 385.862196 340.2 
L 385.862196 259.119199 
L 354.24 259.119199 
z
" style="fill:#dd8452;opacity:0.4;stroke:#ffffff;stroke-linejoin:miter;"/>
   </g>
   <g id="patch_19">
    <path clip-path="url(#p50a8c38b70)" d="M 132.884628 340.2 
L 164.506824 340.2 
L 164.506824 329.704555 
L 132.884628 329.704555 
z
" style="fill:#55a868;opacity:0.4;stroke:#ffffff;stroke-linejoin:miter;"/>
   </g>
   <g id="patch_20">
    <path clip-path="url(#p50a8c38b70)" d="M 164.506824 340.2 
L 196.12902 340.2 
L 196.12902 255.552376 
L 164.506824 255.552376 
z
" style="fill:#55a868;opacity:0.4;stroke:#ffffff;stroke-linejoin:miter;"/>
   </g>
   <g id="patch_21">
    <path clip-path="url(#p50a8c38b70)" d="M 196.12902 340.2 
L 227.751216 340.2 
L 227.751216 120.069272 
L 196.12902 120.069272 
z
" style="fill:#55a868;opacity:0.4;stroke:#ffffff;stroke-linejoin:miter;"/>
   </g>
   <g id="patch_22">
    <path clip-path="url(#p50a8c38b70)" d="M 227.751216 340.2 
L 259.373412 340.2 
L 259.373412 65.735309 
L 227.751216 65.735309 
z
" style="fill:#55a868;opacity:0.4;stroke:#ffffff;stroke-linejoin:miter;"/>
   </g>
   <g id="patch_23">
    <path clip-path="url(#p50a8c38b70)" d="M 259.373412 340.2 
L 290.995608 340.2 
L 290.995608 74.862633 
L 259.373412 74.862633 
z
" style="fill:#55a868;opacity:0.4;stroke:#ffffff;stroke-linejoin:miter;"/>
   </g>
   <g id="patch_24">
    <path clip-path="url(#p50a8c38b70)" d="M 290.995608 340.2 
L 322.617804 340.2 
L 322.617804 220.176667 
L 290.995608 220.176667 
z
" style="fill:#55a868;opacity:0.4;stroke:#ffffff;stroke-linejoin:miter;"/>
   </g>
   <g id="patch_25">
    <path clip-path="url(#p50a8c38b70)" d="M 322.617804 340.2 
L 354.24 340.2 
L 354.24 303.964328 
L 322.617804 303.964328 
z
" style="fill:#55a868;opacity:0.4;stroke:#ffffff;stroke-linejoin:miter;"/>
   </g>
   <g id="patch_26">
    <path clip-path="url(#p50a8c38b70)" d="M 354.24 340.2 
L 385.862196 340.2 
L 385.862196 328.473245 
L 354.24 328.473245 
z
" style="fill:#55a868;opacity:0.4;stroke:#ffffff;stroke-linejoin:miter;"/>
   </g>
   <g id="line2d_15">
    <path clip-path="url(#p50a8c38b70)" d="M 110.749091 339.335449 
L 115.029267 338.720036 
L 119.309443 337.796629 
L 123.589619 336.479909 
L 127.869795 334.675855 
L 132.149971 332.265403 
L 136.430147 329.073721 
L 140.710323 324.836396 
L 144.990499 319.188042 
L 149.270675 311.70414 
L 153.550851 302.011832 
L 157.831027 289.947502 
L 162.111203 275.693313 
L 166.391379 259.802136 
L 170.671555 243.050446 
L 174.951731 226.145306 
L 179.231907 209.416389 
L 183.512083 192.678556 
L 187.792259 175.397245 
L 192.072435 157.12993 
L 196.352611 138.03145 
L 200.632787 119.120115 
L 204.912963 102.088939 
L 209.193139 88.689978 
L 213.473315 79.985126 
L 217.753491 75.872477 
L 222.033667 75.169821 
L 226.313844 76.224724 
L 230.59402 77.710716 
L 234.874196 79.159596 
L 239.154372 80.947027 
L 243.434548 83.789956 
L 247.714724 88.112066 
L 251.9949 93.697231 
L 256.275076 99.844332 
L 260.555252 105.899943 
L 264.835428 111.799636 
L 269.115604 118.2493 
L 273.39578 126.415007 
L 277.675956 137.302007 
L 281.956132 151.189688 
L 286.236308 167.441483 
L 290.516484 184.773235 
L 294.79666 201.799635 
L 299.076836 217.546494 
L 303.357012 231.678569 
L 307.637188 244.385447 
L 311.917364 256.059872 
L 316.19754 266.984113 
L 320.477716 277.185399 
L 324.757892 286.490049 
L 329.038068 294.689293 
L 333.318244 301.690819 
L 337.59842 307.572045 
L 341.878596 312.529657 
L 346.158772 316.780434 
L 350.438948 320.480917 
L 354.719124 323.703864 
L 358.9993 326.466534 
L 363.279476 328.778198 
L 367.559652 330.673489 
L 371.839828 332.216866 
L 376.120004 333.484933 
L 380.40018 334.544265 
L 384.680356 335.439489 
L 388.960532 336.195656 
L 393.240708 336.829041 
L 397.520884 337.357198 
L 401.80106 337.802276 
L 406.081236 338.187535 
L 410.361412 338.531215 
L 414.641588 338.842507 
L 418.921765 339.121889 
L 423.201941 339.365047 
L 427.482117 339.56773 
L 431.762293 339.729099 
L 436.042469 339.852517 
L 440.322645 339.944281 
L 444.602821 340.011552 
L 448.882997 340.060667 
L 453.163173 340.096348 
L 457.443349 340.12174 
L 461.723525 340.138876 
L 466.003701 340.149196 
L 470.283877 340.153924 
L 474.564053 340.154284 
L 478.844229 340.15161 
L 483.124405 340.147362 
L 487.404581 340.143061 
L 491.684757 340.140119 
L 495.964933 340.139617 
L 500.245109 340.142089 
L 504.525285 340.147428 
L 508.805461 340.154953 
L 513.085637 340.163629 
L 517.365813 340.172357 
L 521.645989 340.180236 
L 525.926165 340.186713 
L 530.206341 340.191602 
L 534.486517 340.195011 
" style="fill:none;stroke:#4c72b0;stroke-linecap:round;stroke-width:1.5;"/>
   </g>
   <g id="line2d_16">
    <path clip-path="url(#p50a8c38b70)" d="M 110.749091 339.676122 
L 115.668099 339.338563 
L 120.587107 338.818083 
L 125.506116 338.033132 
L 130.425124 336.877201 
L 135.344132 335.220825 
L 140.26314 332.921241 
L 145.182149 329.840721 
L 150.101157 325.870702 
L 155.020165 320.95438 
L 159.939174 315.098122 
L 164.858182 308.364573 
L 169.77719 300.848151 
L 174.696198 292.643364 
L 179.615207 283.821968 
L 184.534215 274.431339 
L 189.453223 264.513894 
L 194.372231 254.133332 
L 199.29124 243.388097 
L 204.210248 232.401379 
L 209.129256 221.295425 
L 214.048264 210.1723 
L 218.967273 199.120968 
L 223.886281 188.250733 
L 228.805289 177.727507 
L 233.724298 167.781445 
L 238.643306 158.671426 
L 243.562314 150.623464 
L 248.481322 143.782414 
L 253.400331 138.210121 
L 258.319339 133.930171 
L 263.238347 130.983615 
L 268.157355 129.449441 
L 273.076364 129.408153 
L 277.995372 130.869309 
L 282.91438 133.712375 
L 287.833388 137.683319 
L 292.752397 142.452567 
L 297.671405 147.701365 
L 302.590413 153.191222 
L 307.509421 158.790792 
L 312.42843 164.46741 
L 317.347438 170.269196 
L 322.266446 176.315676 
L 327.185455 182.79117 
L 332.104463 189.919591 
L 337.023471 197.90721 
L 341.942479 206.86594 
L 346.861488 216.752003 
L 351.780496 227.354404 
L 356.699504 238.342707 
L 361.618512 249.351465 
L 366.537521 260.060966 
L 371.456529 270.241344 
L 376.375537 279.751927 
L 381.294545 288.512377 
L 386.213554 296.471619 
L 391.132562 303.592718 
L 396.05157 309.855682 
L 400.970579 315.267922 
L 405.889587 319.870161 
L 410.808595 323.732065 
L 415.727603 326.940078 
L 420.646612 329.584077 
L 425.56562 331.748251 
L 430.484628 333.507614 
L 435.403636 334.92821 
L 440.322645 336.068236 
L 445.241653 336.978501 
L 450.160661 337.702241 
L 455.079669 338.275078 
L 459.998678 338.725719 
L 464.917686 339.077291 
L 469.836694 339.348811 
L 474.755702 339.556284 
L 479.674711 339.713288 
L 484.593719 339.831186 
L 489.512727 339.919231 
L 494.431736 339.984737 
L 499.350744 340.033355 
L 504.269752 340.069393 
L 509.18876 340.096116 
L 514.107769 340.115996 
L 519.026777 340.130891 
L 523.945785 340.142189 
L 528.864793 340.150912 
L 533.783802 340.157808 
L 538.70281 340.163411 
L 543.621818 340.168106 
L 548.540826 340.172163 
L 553.459835 340.175779 
L 558.378843 340.179094 
L 563.297851 340.182196 
L 568.21686 340.185128 
L 573.135868 340.187885 
L 578.054876 340.190429 
L 582.973884 340.192702 
L 587.892893 340.19465 
L 592.811901 340.196243 
L 597.730909 340.197478 
" style="fill:none;stroke:#dd8452;stroke-linecap:round;stroke-width:1.5;"/>
   </g>
   <g id="line2d_17">
    <path clip-path="url(#p50a8c38b70)" d="M 110.749091 339.508099 
L 115.029267 339.021392 
L 119.309443 338.297779 
L 123.589619 337.279306 
L 127.869795 335.909359 
L 132.149971 334.12389 
L 136.430147 331.830968 
L 140.710323 328.885159 
L 144.990499 325.073358 
L 149.270675 320.133034 
L 153.550851 313.814568 
L 157.831027 305.974632 
L 162.111203 296.657688 
L 166.391379 286.108236 
L 170.671555 274.677117 
L 174.951731 262.642704 
L 179.231907 250.035573 
L 183.512083 236.586774 
L 187.792259 221.877586 
L 192.072435 205.656484 
L 196.352611 188.164977 
L 200.632787 170.262704 
L 204.912963 153.220171 
L 209.193139 138.232643 
L 213.473315 125.897091 
L 217.753491 115.957895 
L 222.033667 107.501234 
L 226.313844 99.518679 
L 230.59402 91.523435 
L 234.874196 83.847996 
L 239.154372 77.432935 
L 243.434548 73.231777 
L 247.714724 71.606928 
L 251.9949 72.10843 
L 256.275076 73.789927 
L 260.555252 75.872106 
L 264.835428 78.334846 
L 269.115604 82.055353 
L 273.39578 88.388509 
L 277.675956 98.42808 
L 281.956132 112.376743 
L 286.236308 129.376707 
L 290.516484 147.871094 
L 294.79666 166.263439 
L 299.076836 183.501736 
L 303.357012 199.301181 
L 307.637188 213.957225 
L 311.917364 227.929125 
L 316.19754 241.463125 
L 320.477716 254.446625 
L 324.757892 266.515786 
L 329.038068 277.293914 
L 333.318244 286.594609 
L 337.59842 294.484072 
L 341.878596 301.202217 
L 346.158772 307.021188 
L 350.438948 312.133785 
L 354.719124 316.622194 
L 358.9993 320.498256 
L 363.279476 323.769143 
L 367.559652 326.481949 
L 371.839828 328.727168 
L 376.120004 330.611103 
L 380.40018 332.22252 
L 384.680356 333.614811 
L 388.960532 334.809711 
L 393.240708 335.814458 
L 397.520884 336.639057 
L 401.80106 337.304359 
L 406.081236 337.839708 
L 410.361412 338.275138 
L 414.641588 338.634466 
L 418.921765 338.932965 
L 423.201941 339.179442 
L 427.482117 339.380098 
L 431.762293 339.541435 
L 436.042469 339.670986 
L 440.322645 339.776302 
L 444.602821 339.863501 
L 448.882997 339.936479 
L 453.163173 339.997124 
L 457.443349 340.046201 
L 461.723525 340.084302 
L 466.003701 340.112416 
L 470.283877 340.132033 
L 474.564053 340.144942 
L 478.844229 340.152958 
L 483.124405 340.157735 
L 487.404581 340.160681 
L 491.684757 340.162933 
L 495.964933 340.165326 
L 500.245109 340.168361 
L 504.525285 340.172189 
L 508.805461 340.176651 
L 513.085637 340.181384 
L 517.365813 340.185957 
L 521.645989 340.190001 
L 525.926165 340.19329 
L 530.206341 340.195761 
L 534.486517 340.19748 
" style="fill:none;stroke:#55a868;stroke-linecap:round;stroke-width:1.5;"/>
   </g>
   <g id="patch_27">
    <path d="M 86.4 340.2 
L 86.4 46.656 
" style="fill:none;stroke:#cccccc;stroke-linecap:square;stroke-linejoin:miter;stroke-width:1.25;"/>
   </g>
   <g id="patch_28">
    <path d="M 622.08 340.2 
L 622.08 46.656 
" style="fill:none;stroke:#cccccc;stroke-linecap:square;stroke-linejoin:miter;stroke-width:1.25;"/>
   </g>
   <g id="patch_29">
    <path d="M 86.4 340.2 
L 622.08 340.2 
" style="fill:none;stroke:#cccccc;stroke-linecap:square;stroke-linejoin:miter;stroke-width:1.25;"/>
   </g>
   <g id="patch_30">
    <path d="M 86.4 46.656 
L 622.08 46.656 
" style="fill:none;stroke:#cccccc;stroke-linecap:square;stroke-linejoin:miter;stroke-width:1.25;"/>
   </g>
   <g id="text_17">
    <!-- Haiku syllables per line -->
    <defs>
     <path d="M 9.8125 72.90625 
L 19.671875 72.90625 
L 19.671875 43.015625 
L 55.515625 43.015625 
L 55.515625 72.90625 
L 65.375 72.90625 
L 65.375 0 
L 55.515625 0 
L 55.515625 34.71875 
L 19.671875 34.71875 
L 19.671875 0 
L 9.8125 0 
z
" id="DejaVuSans-72"/>
     <path d="M 9.078125 75.984375 
L 18.109375 75.984375 
L 18.109375 31.109375 
L 44.921875 54.6875 
L 56.390625 54.6875 
L 27.390625 29.109375 
L 57.625 0 
L 45.90625 0 
L 18.109375 26.703125 
L 18.109375 0 
L 9.078125 0 
z
" id="DejaVuSans-107"/>
     <path d="M 8.5 21.578125 
L 8.5 54.6875 
L 17.484375 54.6875 
L 17.484375 21.921875 
Q 17.484375 14.15625 20.5 10.265625 
Q 23.53125 6.390625 29.59375 6.390625 
Q 36.859375 6.390625 41.078125 11.03125 
Q 45.3125 15.671875 45.3125 23.6875 
L 45.3125 54.6875 
L 54.296875 54.6875 
L 54.296875 0 
L 45.3125 0 
L 45.3125 8.40625 
Q 42.046875 3.421875 37.71875 1 
Q 33.40625 -1.421875 27.6875 -1.421875 
Q 18.265625 -1.421875 13.375 4.4375 
Q 8.5 10.296875 8.5 21.578125 
z
M 31.109375 56 
z
" id="DejaVuSans-117"/>
     <path id="DejaVuSans-32"/>
     <path d="M 18.109375 8.203125 
L 18.109375 -20.796875 
L 9.078125 -20.796875 
L 9.078125 54.6875 
L 18.109375 54.6875 
L 18.109375 46.390625 
Q 20.953125 51.265625 25.265625 53.625 
Q 29.59375 56 35.59375 56 
Q 45.5625 56 51.78125 48.09375 
Q 58.015625 40.1875 58.015625 27.296875 
Q 58.015625 14.40625 51.78125 6.484375 
Q 45.5625 -1.421875 35.59375 -1.421875 
Q 29.59375 -1.421875 25.265625 0.953125 
Q 20.953125 3.328125 18.109375 8.203125 
z
M 48.6875 27.296875 
Q 48.6875 37.203125 44.609375 42.84375 
Q 40.53125 48.484375 33.40625 48.484375 
Q 26.265625 48.484375 22.1875 42.84375 
Q 18.109375 37.203125 18.109375 27.296875 
Q 18.109375 17.390625 22.1875 11.75 
Q 26.265625 6.109375 33.40625 6.109375 
Q 40.53125 6.109375 44.609375 11.75 
Q 48.6875 17.390625 48.6875 27.296875 
z
" id="DejaVuSans-112"/>
     <path d="M 41.109375 46.296875 
Q 39.59375 47.171875 37.8125 47.578125 
Q 36.03125 48 33.890625 48 
Q 26.265625 48 22.1875 43.046875 
Q 18.109375 38.09375 18.109375 28.8125 
L 18.109375 0 
L 9.078125 0 
L 9.078125 54.6875 
L 18.109375 54.6875 
L 18.109375 46.1875 
Q 20.953125 51.171875 25.484375 53.578125 
Q 30.03125 56 36.53125 56 
Q 37.453125 56 38.578125 55.875 
Q 39.703125 55.765625 41.0625 55.515625 
z
" id="DejaVuSans-114"/>
    </defs>
    <g style="fill:#262626;" transform="translate(284.7975 40.656)scale(0.12 -0.12)">
     <use xlink:href="#DejaVuSans-72"/>
     <use x="75.195312" xlink:href="#DejaVuSans-97"/>
     <use x="136.474609" xlink:href="#DejaVuSans-105"/>
     <use x="164.257812" xlink:href="#DejaVuSans-107"/>
     <use x="219.042969" xlink:href="#DejaVuSans-117"/>
     <use x="282.421875" xlink:href="#DejaVuSans-32"/>
     <use x="314.208984" xlink:href="#DejaVuSans-115"/>
     <use x="366.308594" xlink:href="#DejaVuSans-121"/>
     <use x="425.488281" xlink:href="#DejaVuSans-108"/>
     <use x="453.271484" xlink:href="#DejaVuSans-108"/>
     <use x="481.054688" xlink:href="#DejaVuSans-97"/>
     <use x="542.333984" xlink:href="#DejaVuSans-98"/>
     <use x="605.810547" xlink:href="#DejaVuSans-108"/>
     <use x="633.59375" xlink:href="#DejaVuSans-101"/>
     <use x="695.117188" xlink:href="#DejaVuSans-115"/>
     <use x="747.216797" xlink:href="#DejaVuSans-32"/>
     <use x="779.003906" xlink:href="#DejaVuSans-112"/>
     <use x="842.480469" xlink:href="#DejaVuSans-101"/>
     <use x="904.003906" xlink:href="#DejaVuSans-114"/>
     <use x="945.117188" xlink:href="#DejaVuSans-32"/>
     <use x="976.904297" xlink:href="#DejaVuSans-108"/>
     <use x="1004.6875" xlink:href="#DejaVuSans-105"/>
     <use x="1032.470703" xlink:href="#DejaVuSans-110"/>
     <use x="1095.849609" xlink:href="#DejaVuSans-101"/>
    </g>
   </g>
   <g id="legend_1">
    <g id="patch_31">
     <path d="M 539.947812 103.893812 
L 614.38 103.893812 
Q 616.58 103.893812 616.58 101.693812 
L 616.58 54.356 
Q 616.58 52.156 614.38 52.156 
L 539.947812 52.156 
Q 537.747812 52.156 537.747812 54.356 
L 537.747812 101.693812 
Q 537.747812 103.893812 539.947812 103.893812 
z
" style="fill:#ffffff;opacity:0.8;stroke:#cccccc;stroke-linejoin:miter;"/>
    </g>
    <g id="patch_32">
     <path d="M 542.147812 64.914281 
L 564.147812 64.914281 
L 564.147812 57.214281 
L 542.147812 57.214281 
z
" style="fill:#4c72b0;opacity:0.4;stroke:#ffffff;stroke-linejoin:miter;"/>
    </g>
    <g id="text_18">
     <!-- first -->
     <defs>
      <path d="M 37.109375 75.984375 
L 37.109375 68.5 
L 28.515625 68.5 
Q 23.6875 68.5 21.796875 66.546875 
Q 19.921875 64.59375 19.921875 59.515625 
L 19.921875 54.6875 
L 34.71875 54.6875 
L 34.71875 47.703125 
L 19.921875 47.703125 
L 19.921875 0 
L 10.890625 0 
L 10.890625 47.703125 
L 2.296875 47.703125 
L 2.296875 54.6875 
L 10.890625 54.6875 
L 10.890625 58.5 
Q 10.890625 67.625 15.140625 71.796875 
Q 19.390625 75.984375 28.609375 75.984375 
z
" id="DejaVuSans-102"/>
     </defs>
     <g style="fill:#262626;" transform="translate(572.947812 64.914281)scale(0.11 -0.11)">
      <use xlink:href="#DejaVuSans-102"/>
      <use x="35.205078" xlink:href="#DejaVuSans-105"/>
      <use x="62.988281" xlink:href="#DejaVuSans-114"/>
      <use x="104.101562" xlink:href="#DejaVuSans-115"/>
      <use x="156.201172" xlink:href="#DejaVuSans-116"/>
     </g>
    </g>
    <g id="patch_33">
     <path d="M 542.147812 81.060219 
L 564.147812 81.060219 
L 564.147812 73.360219 
L 542.147812 73.360219 
z
" style="fill:#dd8452;opacity:0.4;stroke:#ffffff;stroke-linejoin:miter;"/>
    </g>
    <g id="text_19">
     <!-- second -->
     <defs>
      <path d="M 48.78125 52.59375 
L 48.78125 44.1875 
Q 44.96875 46.296875 41.140625 47.34375 
Q 37.3125 48.390625 33.40625 48.390625 
Q 24.65625 48.390625 19.8125 42.84375 
Q 14.984375 37.3125 14.984375 27.296875 
Q 14.984375 17.28125 19.8125 11.734375 
Q 24.65625 6.203125 33.40625 6.203125 
Q 37.3125 6.203125 41.140625 7.25 
Q 44.96875 8.296875 48.78125 10.40625 
L 48.78125 2.09375 
Q 45.015625 0.34375 40.984375 -0.53125 
Q 36.96875 -1.421875 32.421875 -1.421875 
Q 20.0625 -1.421875 12.78125 6.34375 
Q 5.515625 14.109375 5.515625 27.296875 
Q 5.515625 40.671875 12.859375 48.328125 
Q 20.21875 56 33.015625 56 
Q 37.15625 56 41.109375 55.140625 
Q 45.0625 54.296875 48.78125 52.59375 
z
" id="DejaVuSans-99"/>
      <path d="M 30.609375 48.390625 
Q 23.390625 48.390625 19.1875 42.75 
Q 14.984375 37.109375 14.984375 27.296875 
Q 14.984375 17.484375 19.15625 11.84375 
Q 23.34375 6.203125 30.609375 6.203125 
Q 37.796875 6.203125 41.984375 11.859375 
Q 46.1875 17.53125 46.1875 27.296875 
Q 46.1875 37.015625 41.984375 42.703125 
Q 37.796875 48.390625 30.609375 48.390625 
z
M 30.609375 56 
Q 42.328125 56 49.015625 48.375 
Q 55.71875 40.765625 55.71875 27.296875 
Q 55.71875 13.875 49.015625 6.21875 
Q 42.328125 -1.421875 30.609375 -1.421875 
Q 18.84375 -1.421875 12.171875 6.21875 
Q 5.515625 13.875 5.515625 27.296875 
Q 5.515625 40.765625 12.171875 48.375 
Q 18.84375 56 30.609375 56 
z
" id="DejaVuSans-111"/>
     </defs>
     <g style="fill:#262626;" transform="translate(572.947812 81.060219)scale(0.11 -0.11)">
      <use xlink:href="#DejaVuSans-115"/>
      <use x="52.099609" xlink:href="#DejaVuSans-101"/>
      <use x="113.623047" xlink:href="#DejaVuSans-99"/>
      <use x="168.603516" xlink:href="#DejaVuSans-111"/>
      <use x="229.785156" xlink:href="#DejaVuSans-110"/>
      <use x="293.164062" xlink:href="#DejaVuSans-100"/>
     </g>
    </g>
    <g id="patch_34">
     <path d="M 542.147812 97.206156 
L 564.147812 97.206156 
L 564.147812 89.506156 
L 542.147812 89.506156 
z
" style="fill:#55a868;opacity:0.4;stroke:#ffffff;stroke-linejoin:miter;"/>
    </g>
    <g id="text_20">
     <!-- third -->
     <defs>
      <path d="M 54.890625 33.015625 
L 54.890625 0 
L 45.90625 0 
L 45.90625 32.71875 
Q 45.90625 40.484375 42.875 44.328125 
Q 39.84375 48.1875 33.796875 48.1875 
Q 26.515625 48.1875 22.3125 43.546875 
Q 18.109375 38.921875 18.109375 30.90625 
L 18.109375 0 
L 9.078125 0 
L 9.078125 75.984375 
L 18.109375 75.984375 
L 18.109375 46.1875 
Q 21.34375 51.125 25.703125 53.5625 
Q 30.078125 56 35.796875 56 
Q 45.21875 56 50.046875 50.171875 
Q 54.890625 44.34375 54.890625 33.015625 
z
" id="DejaVuSans-104"/>
     </defs>
     <g style="fill:#262626;" transform="translate(572.947812 97.206156)scale(0.11 -0.11)">
      <use xlink:href="#DejaVuSans-116"/>
      <use x="39.208984" xlink:href="#DejaVuSans-104"/>
      <use x="102.587891" xlink:href="#DejaVuSans-105"/>
      <use x="130.371094" xlink:href="#DejaVuSans-114"/>
      <use x="169.734375" xlink:href="#DejaVuSans-100"/>
     </g>
    </g>
   </g>
  </g>
 </g>
 <defs>
  <clipPath id="p50a8c38b70">
   <rect height="293.544" width="535.68" x="86.4" y="46.656"/>
  </clipPath>
 </defs>
</svg>
