<svg viewBox="-1.8835576322079524 1.0854492529580844 290.4155078971243 300.6281014951137" xmlns="http://www.w3.org/2000/svg">
<style>
svg { stroke:black; stroke-width:2px; fill:none;}
</style>
<polyline points="89.36335203528276 227.98454505335536 86.87855777805535 298.7135507480718"/>
<polyline points="237.7802231300751 292.4047113711328 190.69556247326952 240.43473149443815 153.39466472222924 159.95696195320397 89.36335203528276 227.98454505335536"/>
<circle cx="237.7802231300751" cy="292.4047113711328" r="1"/>
<circle cx="285.53195026491636" cy="265.9400068623144" r="1"/>
<circle cx="285.53195026491636" cy="265.9400068623144" r="1"/>
<circle cx="285.24492275439775" cy="92.7077866203353" r="1"/>
<circle cx="285.24492275439775" cy="92.7077866203353" r="1"/>
<circle cx="267.96629932179803" cy="66.89239776302496" r="1"/>
<circle cx="267.96629932179803" cy="66.89239776302496" r="1"/>
<circle cx="183.78513999144667" cy="25.346652268583657" r="1"/>
<circle cx="89.36335203528276" cy="227.98454505335536" r="1"/>
<circle cx="86.87855777805535" cy="298.7135507480718" r="1"/>
<circle cx="60.47749992089126" cy="94.14238478059862" r="1"/>
<circle cx="1.1164423677920476" cy="4.085449252958084" r="1"/>
<circle cx="153.39466472222924" cy="159.95696195320397" r="1"/>
<circle cx="190.69556247326952" cy="240.43473149443815" r="1"/>
<circle cx="139.86200652620678" cy="125.61737013642218" r="1"/>
<circle cx="153.39466472222924" cy="159.95696195320397" r="1"/>
<circle cx="139.86200652620678" cy="125.61737013642218" r="1"/>
<circle cx="183.78513999144667" cy="25.346652268583657" r="1"/>
<circle cx="153.39466472222924" cy="159.95696195320397" r="1"/>
<circle cx="89.36335203528276" cy="227.98454505335536" r="1"/>
<circle cx="60.47749992089126" cy="94.14238478059862" r="1"/>
<circle cx="139.86200652620678" cy="125.61737013642218" r="1"/>
<circle cx="190.69556247326952" cy="240.43473149443815" r="1"/>
<circle cx="237.7802231300751" cy="292.4047113711328" r="1"/>
</svg>