<svg viewBox="-1.8835576322079524 1.0854492529580844 290.4155078971243 300.6281014951137" xmlns="http://www.w3.org/2000/svg">
<style>
svg { stroke:black; stroke-width:2px; fill:none;}
</style>
<polyline points="89.36335203528276 227.98454505335536 89.36092547839093 228.05361634797913 89.35607236460729 228.1917589372266 89.34879269393181 228.39897282109786 89.3390864663645 228.67525799959282 89.3269536819054 229.02061447271154 89.31239434055445 229.43504224045404 89.2954084423117 229.91854130282027 89.27599598717711 230.47111165981025 89.25415697515069 231.09275331142396 89.22989140623244 231.78346625766142 89.20319928042238 232.54325049852264 89.17408059772052 233.37210603400763 89.14253535812682 234.27003286411633 89.10856356164126 235.23703098884877 89.07216520826391 236.27310040820495 89.03334029799473 237.37824112218487 88.99208883083372 238.55245313078856 88.9484108067809 239.79573643401602 88.90230622583624 241.10809103186722 88.85377508799978 242.48951692434213 88.80281739327148 243.9400141114408 88.74943314165137 245.45958259316328 88.69362233313943 247.04822236950943 88.63538496773566 248.70593344047933 88.57472104544007 250.432715806073 88.51163056625266 252.2285694662904 88.44611353017342 254.09349442113154 88.37816993720236 256.0274906705965 88.30779978733948 258.03055821468513 88.23500308058476 260.1026970533975 88.15977981693823 262.2439071867336 88.08212999639989 264.4541886146935 88.00690673275335 266.59539874802965 87.93411002599863 268.667537586742 87.86373987613575 270.6706051308307 87.79579628316469 272.6046013802956 87.73027924708545 274.4695263351368 87.66718876789804 276.2653799953542 87.60652484560245 277.9921623609478 87.54828748019868 279.64987343191774 87.49247667168675 281.23851320826384 87.43909242006663 282.7580816899863 87.38813472533833 284.20857887708496 87.33960358750187 285.59000476956 87.29349900655721 286.9023593674111 87.24982098250439 288.1456426706386 87.20856951534338 289.31985467924227 87.1697446050742 290.42499539322216 87.13334625169685 291.46106481257834 87.09937445521129 292.4280629373108 87.06782921561759 293.3259897674195 87.03871053291573 294.1548453029045 87.01201840710567 294.9146295437657 86.98775283818742 295.6053424900032 86.965913826161 296.22698414161687 86.94650137102641 296.7795544986069 86.92951547278366 297.2630535609731 86.91495613143272 297.6774813287156 86.9028233469736 298.0228378018343 86.8931171194063 298.2991229803293 86.88583744873083 298.50633686420053 86.88098433494719 298.644479453448 86.87855777805535 298.7135507480718"/>
<polyline points="237.7802231300751 292.4047113711328 237.73424201615242 292.35395943765946 237.6422797883071 292.2524555707128 237.5043364465391 292.10019977029276 237.32041199084847 291.8971920363995 237.09050642123515 291.6434323690328 236.8146197376992 291.3389207681928 236.49275194024057 290.9836572338794 236.12490302885925 290.57764176609277 235.7110730035553 290.12087436483273 235.2512618643287 289.61335503009934 234.74546961117943 289.05508376189266 234.19369624410746 288.4460605602127 233.59594176311288 287.78628542505936 232.9522061681956 287.0757583564327 232.26248945935566 286.31447935433266 231.5267916365931 285.5024484187593 230.74511269990785 284.6396655497126 229.91745264929992 283.72613074719254 229.04381148476935 282.76184401119923 228.12418920631612 281.74680534173257 227.15858581394022 280.68101473879256 226.1470013076417 279.5644722023792 225.08943568742046 278.3971777324925 223.9858889532766 277.1791313291324 222.83636110521007 275.910332992299 221.6408521432208 274.59078272199235 220.39936206730894 273.2204805182123 219.11189087747442 271.79942638095895 217.7784385737172 270.32762031023225 216.3990051560374 268.8050623060322 214.97359062443488 267.2317523683588 213.5021949789097 265.60769049721216 212.0403537893472 263.9557889877211 210.58806705574733 262.2760478398859 209.14533477811014 260.56846705370634 207.71215695643565 258.8330466291825 206.28853359072377 257.0697865663144 204.87446468097457 255.27868686510203 203.469950227188 253.45974752554542 202.07499022936412 251.6129685476445 200.68958468750293 249.73834993139928 199.31373360160433 247.83589167680987 197.94743697166842 245.9055937838761 196.59069479769522 243.94745625259804 195.24350707968463 241.9614790829757 193.9058738176367 239.94766227500912 192.57779501155147 237.90600582869826 191.25927066142887 235.83650974404316 189.9503007672689 233.73917402104374 188.65088532907168 231.61399865970006 187.36102434683707 229.4609836600121 186.0807178205651 227.28012902197983 184.80996575025583 225.0714347456033 183.54876813590923 222.8349008308825 182.29712497752524 220.57052727781743 181.05503627510396 218.2783140864081 179.82250202864532 215.95826125665445 178.59952223814935 213.61036878855657 177.38609690361602 211.2346366821144 176.18222602504537 208.83106493732788 174.98790960243738 206.39965355419716 173.80314763579207 203.94040253272215 172.6279401251094 201.45331187290287 171.46228707038935 198.93838157473928 170.2705300948335 196.56847603501456 169.0526691984418 194.34359525372872 167.80870438121426 192.2637392308817 166.5386356431509 190.32890796647354 165.2424629842517 188.53910146050424 163.92018640451658 186.8943197129738 162.57180590394563 185.3945627238822 161.19732148253888 184.03983049322946 159.79673314029625 182.83012302101557 158.37004087721778 181.7654403072405 156.91724469330347 180.84578235190435 155.4383445885533 180.071149155007 153.9333405629673 179.4415407165485 152.40223261654543 178.95695703652893 150.84502074928776 178.61739811494814 149.2617049611942 178.42286395180622 147.65228525226482 178.37335454710313 146.0167616224996 178.46886990083894 144.3551340718985 178.70941001301358 142.66740260046157 179.09497488362706 140.95356720818882 179.62556451267943 139.21362789508018 180.30117890017064 137.44758466113572 181.12181804610069 135.6554375063554 182.08748195046957 133.83718643073925 183.19817061327734 131.99283143428724 184.45388403452392 130.12237251699938 185.85462221420937 128.22580967887572 187.40038515233368 126.30314291991618 189.09117284889686 124.35437224012077 190.9269853038989 122.37949763948953 192.90782251733978 120.37851911802247 195.03368448921952 118.44007117535122 197.09311327447801 116.56415381147585 199.08610887311525 114.7507670263963 201.01267128513126 112.9999108201126 202.87280051052602 111.31158519262476 204.66649654929952 109.68579014393275 206.3937594014518 108.1225256740366 208.05458906698286 106.6217917829363 209.64898554589266 105.18358847063183 211.1769488381812 103.80791573712322 212.63847894384855 102.49477358241046 214.03357586289462 101.24416200649353 215.36223959531947 100.05608100937245 216.62447014112308 98.93053059104722 217.82026750030536 97.86751075151783 218.94963167286647 96.8670214907843 220.01256265880642 95.92906280884661 221.00906045812502 95.05363470570477 221.9391250708224 94.24073718135877 222.80275649689855 93.4903702358086 223.59995473635337 92.80253386905429 224.33071978918701 92.17722808109583 224.9950516553995 91.61445287193322 225.5929503349907 91.11420824156646 226.1244158279606 90.67649418999554 226.58944813430932 90.30131071722045 226.98804725403676 89.98865782324123 227.32021318714297 89.73853550805782 227.58594593362793 89.55094377167029 227.78524549349163 89.4258826140786 227.91811186673414 89.36335203528276 227.98454505335536"/>
<circle cx="237.7802231300751" cy="292.4047113711328" r="1"/>
<circle cx="285.53195026491636" cy="265.9400068623144" r="1"/>
<circle cx="285.53195026491636" cy="265.9400068623144" r="1"/>
<circle cx="285.24492275439775" cy="92.7077866203353" r="1"/>
<circle cx="285.24492275439775" cy="92.7077866203353" r="1"/>
<circle cx="267.96629932179803" cy="66.89239776302496" r="1"/>
<circle cx="267.96629932179803" cy="66.89239776302496" r="1"/>
<circle cx="183.78513999144667" cy="25.346652268583657" r="1"/>
<circle cx="89.36335203528276" cy="227.98454505335536" r="1"/>
<circle cx="86.87855777805535" cy="298.7135507480718" r="1"/>
<circle cx="60.47749992089126" cy="94.14238478059862" r="1"/>
<circle cx="1.1164423677920476" cy="4.085449252958084" r="1"/>
<circle cx="153.39466472222924" cy="159.95696195320397" r="1"/>
<circle cx="190.69556247326952" cy="240.43473149443815" r="1"/>
<circle cx="139.86200652620678" cy="125.61737013642218" r="1"/>
<circle cx="153.39466472222924" cy="159.95696195320397" r="1"/>
<circle cx="139.86200652620678" cy="125.61737013642218" r="1"/>
<circle cx="183.78513999144667" cy="25.346652268583657" r="1"/>
<circle cx="153.39466472222924" cy="159.95696195320397" r="1"/>
<circle cx="89.36335203528276" cy="227.98454505335536" r="1"/>
<circle cx="60.47749992089126" cy="94.14238478059862" r="1"/>
<circle cx="139.86200652620678" cy="125.61737013642218" r="1"/>
<circle cx="190.69556247326952" cy="240.43473149443815" r="1"/>
<circle cx="237.7802231300751" cy="292.4047113711328" r="1"/>
</svg>