<svg viewBox="-1.8835576322079524 1.0854492529580844 290.4155078971243 300.6281014951137" xmlns="http://www.w3.org/2000/svg">
<style>
svg { stroke:black; stroke-width:2px; fill:none;}
</style>
<polyline points="237.7802231300751 292.4047113711328 285.53195026491636 265.9400068623144"/>
<polyline points="285.53195026491636 265.9400068623144 285.24492275439775 92.7077866203353"/>
<polyline points="285.24492275439775 92.7077866203353 267.96629932179803 66.89239776302496"/>
<polyline points="267.96629932179803 66.89239776302496 183.78513999144667 25.346652268583657"/>
<polyline points="183.78513999144667 25.346652268583657 1.1164423677920476 4.085449252958084"/>
<polyline points="1.1164423677920476 4.085449252958084 86.87855777805535 298.7135507480718"/>
<polyline points="86.87855777805535 298.7135507480718 237.7802231300751 292.4047113711328"/>
<polyline points="139.86200652620678 125.61737013642218 153.39466472222924 159.95696195320397"/>
<polyline points="89.36335203528276 227.98454505335536 139.86200652620678 125.61737013642218"/>
<polyline points="153.39466472222924 159.95696195320397 89.36335203528276 227.98454505335536"/>
<polyline points="60.47749992089126 94.14238478059862 139.86200652620678 125.61737013642218"/>
<polyline points="89.36335203528276 227.98454505335536 60.47749992089126 94.14238478059862"/>
<polyline points="139.86200652620678 125.61737013642218 183.78513999144667 25.346652268583657"/>
<polyline points="267.96629932179803 66.89239776302496 139.86200652620678 125.61737013642218"/>
<polyline points="190.69556247326952 240.43473149443815 89.36335203528276 227.98454505335536"/>
<polyline points="153.39466472222924 159.95696195320397 190.69556247326952 240.43473149443815"/>
<polyline points="89.36335203528276 227.98454505335536 86.87855777805535 298.7135507480718"/>
<polyline points="1.1164423677920476 4.085449252958084 89.36335203528276 227.98454505335536"/>
<polyline points="190.69556247326952 240.43473149443815 86.87855777805535 298.7135507480718"/>
<polyline points="267.96629932179803 66.89239776302496 153.39466472222924 159.95696195320397"/>
<polyline points="60.47749992089126 94.14238478059862 183.78513999144667 25.346652268583657"/>
<polyline points="60.47749992089126 94.14238478059862 1.1164423677920476 4.085449252958084"/>
<polyline points="285.24492275439775 92.7077866203353 153.39466472222924 159.95696195320397"/>
<polyline points="190.69556247326952 240.43473149443815 237.7802231300751 292.4047113711328"/>
<polyline points="285.24492275439775 92.7077866203353 190.69556247326952 240.43473149443815"/>
<polyline points="285.53195026491636 265.9400068623144 190.69556247326952 240.43473149443815"/>
</svg>