<svg viewBox="8.225712239741114 30.98134848082799 291.34350158144207 219.2913597109043" xmlns="http://www.w3.org/2000/svg">
<style>
svg { stroke:black; stroke-width:2px; fill:none;}
</style>
<polyline points="294.5754427901115 93.58182331180242 294.577389832134 93.70933736161533 294.5812839161791 93.96436546124107 294.58712504224667 94.34690761067974 294.59491321033676 94.85696380993127 294.60464842044945 95.4945340589957 294.61633067258464 96.25961835787301 294.6299599667423 97.15221670656321 294.6455363029226 98.1723291050663 294.66305968112533 99.31995555338227 294.68253010135066 100.59509605151112 294.7039475635985 101.99775059945286 294.72731206786887 103.52791919720748 294.7526236141618 105.185601844775 294.7798822024772 106.97079854215536 294.8090878328152 108.88350928934864 294.8402405051757 110.92373408635481 294.8733402195587 113.09147293317386 294.9083869759643 115.38672582980578 294.9453807743924 117.80949277625061 294.984321614843 120.3597737725083 295.02520949731615 123.03756881857888 295.06804442181186 125.84287791446238 295.11282638833006 128.77570106015872 295.1595553968708 131.83603825566794 295.20823144743406 135.0238895009901 295.2588545400199 138.3392547961251 295.31142467462826 141.78213414107302 295.3659418512591 145.35252753583376 295.42240606991254 149.05043498040743 295.4808173305885 152.875856474794 295.5411756332869 156.82879201899345 295.60348097800784 160.90924161300575 295.66383928070627 164.8621771572052 295.7222505413822 168.68759865159177 295.77871476003565 172.38550609616544 295.8332319366665 175.9558994909262 295.88580207127484 179.3987788358741 295.9364251638607 182.7141441310091 295.98510121442393 185.90199537633126 296.0318302229647 188.9623325718405 296.0766121894829 191.89515571753685 296.1194471139786 194.70046481342033 296.1603349964517 197.37825985949092 296.19927583690236 199.92854085574862 296.2362696353304 202.35130780219342 296.271316391736 204.64656069882534 296.304416106119 206.81429954564442 296.3355687784795 208.8545243426506 296.3647744088175 210.76723508984387 296.3920329971329 212.55243178722424 296.4173445434258 214.21011443479176 296.44070904769615 215.74028303254636 296.462126509944 217.1429375804881 296.4815969301693 218.418078078617 296.4991203083721 219.56570452693296 296.5146966445524 220.58581692543603 296.52832593871005 221.47841527412623 296.54000819084524 222.24349957300356 296.54974340095794 222.88106982206796 296.557531569048 223.39112602131948 296.5633726951156 223.77366817075813 296.5672667791607 224.02869627038393 296.5692138211832 224.1562103201968"/>
<polyline points="28.772349670681784 247.27270819173228 28.79516820531434 247.20260525613426 28.840805274579466 247.06239938493817 28.90926087847714 246.8520905781441 29.00053501700738 246.57167883575195 29.11462769017018 246.2211641577618 29.25153889796554 245.80054654417364 29.41126864039346 245.30982599498742 29.593816917453942 244.74900251020316 29.799183729146982 244.11807608982087 30.027369075472578 243.41704673384058 30.278372956430736 242.64591444226224 30.55219537202146 241.80467921508588 30.848836322244736 240.89334105231148 31.168295807100577 239.91189995393904 31.51057382658898 238.86035591996855 31.875670380709934 237.73870895040005 32.26358546946346 236.5469590452335 32.67431909284954 235.28510620446895 33.10787125086817 233.95315042810637 33.56424194351938 232.55109171614572 34.04343117080313 231.07893006858708 34.545438932719456 229.5366654854304 35.07026522926833 227.92429796667568 35.61791006044977 226.241827512323 36.188373426263766 224.48925412237224 36.781655326710336 222.6665777968234 37.397755761789455 220.77379853567658 38.03667473150112 218.8109163389317 38.69841223584537 216.77793120658876 39.38296827482216 214.67484313864787 40.09034284843152 212.50165213510888 40.82053595667344 210.2583581959719 41.64675730300597 208.0829984879583 42.56900688742914 205.97557301106804 43.58728470994292 203.93608176530114 44.70159077054733 201.9645247506576 45.91192506924236 200.06090196713743 47.218287606028 198.2252134147406 48.62067838090427 196.4574590934672 50.119097393871165 194.7576390033171 51.713544644928675 193.1257531442904 53.40402013407681 191.5618015163871 55.19052386131557 190.06578411960712 57.073055826644946 188.6377009539505 59.05161603006494 187.2775520194173 61.12620447157556 185.98533731600742 63.2968211511768 184.76105684372092 65.56346606886865 183.6047106025578 67.92613922465114 182.516298592518 70.38484061852425 181.49582081360163 72.93957025048798 180.54327726580857 75.59032812054232 179.65866794913887 78.3371142286873 178.84199286359257 81.17992857492288 178.09325200916965 84.11877115924909 177.4124453858701 87.15364198166594 176.79957299369386 90.2845410421734 176.25463483264102 93.51146834077146 175.77763090271154 96.83442387746015 175.36856120390541 100.2534076522395 175.02742573622268 103.76841966510943 174.7542244996633 107.37945991607 174.54895749422727 111.0865284051212 174.41162471991464 114.889625132263 174.34222617672535 118.58316208310858 174.27904685001445 122.16713925765794 174.22208673978201 125.64155665591106 174.17134584602792 129.00641427786795 174.12682416875228 132.26171212352864 174.08852170795504 135.40745019289307 174.0564384636362 138.4436284859613 174.03057443579576 141.37024700273327 174.01092962443371 144.18730574320904 173.9975040295501 146.89480470738857 173.99029765114486 149.49274389527187 173.98931048921804 151.981123306859 173.99454254376963 154.35994294214981 174.0059938147996 156.62920280114446 174.02366430230802 158.7889028838428 174.04755400629483 160.83904319024498 174.07766292676004 162.77962372035088 174.11399106370365 164.6106444741606 174.15653841712572 166.33210545167407 174.20530498702612 167.94400665289135 174.26029077340496 169.4463480778124 174.32149577626222 170.8391297264372 174.38891999559786 172.12235159876576 174.46256343141192 173.2960136947981 174.54242608370436 174.36011601453424 174.62850795247525 175.31465855797416 174.7208090377245 176.15964132511783 174.8193293394522 176.89506431596521 174.9240688576583 177.52092753051645 175.0350275923428 178.03723096877144 175.15220554350572 178.44397463073017 175.27560271114703 178.74115851639272 175.40521909526672 179.02905540562827 175.53078496738271 179.3076652984369 175.65230032749494 179.57698819481857 175.76976517560342 179.83702409477326 175.8831795117082 180.08777299830103 175.9925433358092 180.32923490540182 176.09785664790644 180.56140981607567 176.19911944799998 180.78429773032258 176.29633173608974 180.9978986481425 176.38949351217576 181.2022125695355 176.47860477625812 181.39723949450152 176.56366552833668 181.5829794230406 176.64467576841145 181.75943235515274 176.72163549648252 181.9265982908379 176.7945447125499 182.08447723009613 176.8634034166135 182.23306917292737 176.92821160867334 182.37237411933168 176.98896928872944 182.50239206930905 177.04567645678182 182.62312302285943 177.09833311283046 182.7345669799829 177.14693925687536 182.83672394067938 177.1914948889165 182.92959390494892 177.2320000089539 183.01317687279152 177.26845461698758 183.08747284420713 177.30085871301748 183.15248181919583 177.32921229704365 183.20820379775753 177.35351536906614 183.2546387798923 177.37376792908483 183.29178676560014 177.38996997709978 183.31964775488098 177.402121513111 183.3382217477349 177.4102225371185 183.34750874416184 177.41427304912224"/>
<polyline points="294.5754427901115 93.58182331180242 294.48566488410256 93.5293998701422 294.3061090720847 93.42455298682174 294.03677535405797 93.26728266184102 293.6776637300223 93.05758889520007 293.2287741999777 92.79547168689889 292.6901067639242 92.48093103693749 292.06166142186174 92.11396694531585 291.3434381737904 91.69457941203397 290.5354370197101 91.22276843709186 289.6376579596209 90.6985340204895 288.6501009935228 90.12187616222693 287.5727661214158 89.49279486230412 286.40565334329983 88.81129012072108 285.14876265917496 88.07736193747778 283.8020940690412 87.29101031257424 282.3656475728985 86.45223524601047 280.8394231707469 85.56103673778648 279.22342086258635 84.61741478790225 277.5176406484169 83.62136939635778 275.7220825282385 82.5729005631531 273.8367465020512 81.47200828828815 271.861632569855 80.318692571763 269.79674073164983 79.11295341357759 267.64207098743583 77.85479081373195 265.39762333721285 76.54420477222608 263.063397780981 75.18119528905997 260.6393943187402 73.76576236423362 258.12561295049045 72.29790599774704 255.5220536762318 70.77762618960023 252.82871649596422 69.20492293979316 250.04560140968772 67.57979624832589 247.1727084174023 65.90224611519838 244.3031771998786 64.2713392766892 241.43700775711662 62.68707573279838 238.57420008911635 61.14945548352589 235.71475419587782 59.65847852887176 232.85867007740097 58.21414486883597 230.00594773368584 56.81645450341853 227.15658716473246 55.465407432619436 224.3105883705408 54.1610036564387 221.46795135111083 52.9032431748763 218.62867610644255 51.69212598793224 215.792762636536 50.527652095606534 212.96021094139115 49.40982149789917 210.13102102100802 48.338634194810155 207.3051928753866 47.314090186339484 204.4827265045269 46.33618947248716 201.66362190842892 45.40493205325319 198.84787908709265 44.52031792863757 196.0354980405181 43.68234709864028 193.22647876870525 42.891019563261345 190.42082127165412 42.14633532250076 187.6185255493647 41.44829437635852 184.819591601837 40.79689672483461 182.02401942907102 40.192142367929065 179.2318090310667 39.634031305641855 176.4429604078241 39.122563537973 173.65747355934326 38.65773906492249 170.87534848562416 38.23955788649032 168.09658518666674 37.8680200026765 165.32118366247104 37.54312541348102 162.54914391303703 37.264874118903904 159.78046593836476 37.03326611894512 157.01514973845417 36.8483014136047 154.33624966979082 36.66911685530616 151.74376573237467 36.4957124440495 149.23769792620573 36.32808817983474 146.81804625128393 36.166244062661846 144.4848107076094 36.01018009253086 142.23799129518207 35.859896269441755 140.07758801400195 35.71539259339454 138.00360086406903 35.57666906438922 136.01602984538331 35.44372568242578 134.11487495794478 35.31656244750423 132.30013620175347 35.195179359624575 130.57181357680935 35.0795764187868 128.92990708311245 34.96975362499092 127.37441672066277 34.865710978236926 125.90534248946028 34.76744847852483 124.52268438950497 34.67496612585461 123.22644242079689 34.58826392022629 122.01661658333603 34.50734186163985 120.89320687712237 34.432199950095296 119.8562133021559 34.362838185592636 118.90563585843664 34.29925656813186 118.0414745459646 34.24145509771297 117.26372936473975 34.189433774335974 116.57240031476209 34.14319259800087 115.96748739603166 34.102731568707654 115.44899060854843 34.06805068645632 115.0169099523124 34.03914995124687 114.67124542732358 34.016029363079326 114.41199703358197 33.99868892195366 114.23916477108756 33.98712862786988 114.15274863984035 33.98134848082799"/>
<polyline points="52.13852913442318 175.48730213934851 52.09857521167447 175.367578722393 52.01866736617705 175.12813188848196 51.89880559793091 174.7689616376154 51.738989906936055 174.29006796979334 51.53922029319249 173.69145088501574 51.299496756700215 172.97311038328263 51.01981929745922 172.13504646459398 50.70018791546952 171.1772591289498 50.3406026107311 170.09974837635014 49.94106338324397 168.90251420679496 49.50157023300813 167.58555662028425 49.022123160023575 166.14887561681797 48.502722164290304 164.59247119639622 47.943367245808325 162.91634335901898 47.34405840457763 161.12049210468618 46.70479564059822 159.20491743339787 46.0255789538701 157.16961934515405 45.30640834439327 155.01459783995466 44.54728381216772 152.7398529177998 43.74820535719346 150.34538457868945 42.90917297947049 147.83119282262354 42.0301866789988 145.19727764960209 41.1112464557784 142.44363905962513 40.152352309809295 139.5702770526927 39.153504241091476 136.57719162880468 38.11470224962493 133.46438278796117 37.03594633540968 130.23185053016215 35.917236498445725 126.87959485540759 34.758572738733044 123.40761576369752 33.559955056271654 119.81591325503194 32.32138345106156 116.10448732941083 31.042857923102737 112.27333798683415 29.80428631789264 108.56191206121304 28.60566863543125 104.97020955254746 27.44700487571857 101.49823046083739 26.32829503875461 98.14597478608283 25.24953912453936 94.91344252828381 24.21073713307282 91.80063368744032 23.211889064355 88.80754826355233 22.252994918385888 85.93418625661987 21.334054695165488 83.18054766664292 20.455068394693804 80.54663249362149 19.61603601697083 78.03244073755558 18.816957561996574 75.63797239844519 18.057833029771025 73.3632274762903 17.33866242029419 71.20820597109096 16.659445733566073 69.17290788284713 16.02018296958667 67.25733321155879 15.420874128355976 65.46148195722598 14.861519209873993 63.78535411984872 14.342118214140726 62.22894969942696 13.86267114115617 60.792268695960736 13.423177990920326 59.47531110945002 13.023638763433198 58.27807693989483 12.66405345869478 57.20056618729515 12.344422076705076 56.242778851650996 12.064744617464086 55.40471493296236 11.825021080971808 54.68637443122923 11.625251467228242 54.08775734645164 11.465435776233392 53.60886367862957 11.345574007987253 53.249693427763006 11.265666162489826 53.01024659385197 11.225712239741114 52.890523176896444"/>
<polyline points="173.837624402961 173.26654875729147 173.8657545227208 173.13630820093837 173.9220147622404 172.8758270882322 174.00640512151972 172.4851054191729 174.11892560055884 171.96414319376055 174.25957619935775 171.31294041199507 174.42835691791646 170.5314970738765 174.62526775623496 169.61981317940482 174.8503087143132 168.57788872858006 175.10347979215126 167.4057237214022 175.3847809897491 166.10331815787126 175.69421230710668 164.6706720379872 176.0317737442241 163.10778536175005 176.39746530110125 161.4146581291598 176.7912869777382 159.59129034021646 177.21323877413494 157.63768199492003 177.66332069029147 155.5538330932705 178.1415327262078 153.3397436352679 178.64787488188387 150.99541362091216 179.18234715731973 148.52084305020335 179.74494955251538 145.91603192314145 180.33568206747083 143.18098023972644 180.95454470218607 140.31568799995836 181.60153745666105 137.32015520383715 182.27666033089582 134.19438185136286 182.9799133248904 130.93836794253548 183.71129643864475 127.552113477355 184.4708096721589 124.03561845582144 185.2584530254328 120.38888287793476 186.07422649846652 116.611906743695 186.91813009126 112.70469005310214 187.79016380381324 108.66723280615618 188.6903276361263 104.49953500285713 189.56236134867956 100.46207775591117 190.40626494147304 96.55486106531829 191.22203841450676 92.77788493107852 192.00968176778065 89.13114935319186 192.7691950012948 85.61465433165829 193.50057811504914 82.22839986647782 194.2038311090437 78.97238595765043 194.8789539832785 75.84661260517613 195.5259467377535 72.85107980905494 196.14480937246873 69.98578756928686 196.73554188742415 67.25073588587185 197.2981442826198 64.64592475880995 197.8326165580557 62.17135418810115 198.33895871373176 59.82702417374543 198.81717074964808 57.6129347157428 199.2672526658046 55.52908581409328 199.68920446220133 53.57547746879685 200.0830261388383 51.752109679853504 200.44871769571552 50.05898244726326 200.7862791328329 48.49609577102612 201.0957104501905 47.06344965114207 201.37701164778832 45.76104408761112 201.63018272562638 44.58887908043326 201.85522368370465 43.54695462960849 202.05213452202312 42.63527073513683 202.22091524058183 41.853827397018264 202.36156583938075 41.20262461525279 202.47408631841986 40.681662389840405 202.55847667769922 40.29094072078112 202.61473691721878 40.03045960807493 202.64286703697854 39.900219051721834"/>
<polyline points="11.225712239741114 52.890523176896444 11.326335312014278 52.88549076315854 11.527581456560606 52.87542593568273 11.829450673380098 52.86032869446902 12.231942962472752 52.8401990395174 12.73505832383857 52.815036970827876 13.338796757477553 52.78484248840044 14.043158263389701 52.749615592235116 14.848142841575012 52.709356282331875 15.753750492033488 52.66406455869073 16.759981214765126 52.61374042131169 17.86683500976993 52.55838387019474 19.074311877047897 52.49799490533988 20.382411816599024 52.43257352674712 21.791134828423317 52.36211973441645 23.300480912520776 52.28663352834788 24.9104500688914 52.20611490854141 26.621042297535183 52.120563874997025 28.432257598452132 52.02998042771473 30.344095971642247 51.93436456669454 32.35655741710553 51.83371629193645 34.46964193484197 51.728035603440446 36.68334952485157 51.61732250120654 38.99768018713434 51.501576985234735 41.41263392169028 51.38079905552502 43.928210728519375 51.2549887120774 46.54441060762164 51.12414595489187 49.26123355899706 50.988270783968446 52.07867958264565 50.84736319930712 54.9967486785674 50.70142320090788 58.01544084676232 50.550450788770746 61.1347560872304 50.3944459628957 64.35469439997163 50.23340872328275 67.47400964043972 50.077403897407706 70.49270180863464 49.92643148527057 73.41077090455639 49.78049148687133 76.22821692820497 49.63958390221 78.94503987958039 49.50370873128657 81.56123975868266 49.372865974101046 84.07681656551176 49.24705563065343 86.49177030006769 49.12627770094371 88.80610096235046 49.0105321849719 91.01980855236008 48.899819082738 93.13289307009651 48.794138394242 95.14535451555979 48.69349011948391 97.05719288874991 48.59787425846372 98.86840818966685 48.507290811181434 100.57900041831064 48.42173977763706 102.18896957468127 48.341221157830574 103.69831565877871 48.265734951762006 105.107038670603 48.19528115943134 106.41513861015414 48.12985978083858 107.6226154774321 48.06947081598372 108.72946927243692 48.01411426486677 109.73569999516856 47.96379012748773 110.64130764562702 47.918498403846584 111.44629222381232 47.87823909394334 112.15065372972447 47.84301219777801 112.75439216336346 47.81281771535058 113.25750752472929 47.78765564666106 113.65999981382193 47.76752599170944 113.96186903064142 47.752428750495724 114.16311517518776 47.742363923019916 114.26373824746092 47.73733150928201"/>
</svg>