<svg viewBox="108.82382112887859 31.75381740098082 147.4264172416486 210.0823549211006" xmlns="http://www.w3.org/2000/svg">
<style>
svg { stroke:black; stroke-width:2px; fill:none;}
</style>
<polyline points="217.48592506302177 238.83617232208144 217.52085115023613 238.76577806251123 217.59070332466484 238.62498954337084 217.69548158630792 238.41380676466025 217.83518593516538 238.13222972637945 218.00981637123718 237.78025842852847 218.21937289452333 237.35789287110728 218.46385550502384 236.8651330541159 218.74326420273877 236.30197897755428 219.05759898766803 235.6684306414225 219.40685985981162 234.96448804572051 219.79104681916957 234.19015119044832 220.2101598657419 233.34542007560594 220.6641989995286 232.4302947011934 221.15316422052962 231.44477506721057 221.67705552874503 230.38886117365763 222.23587292417483 229.26255302053445 222.82961640681899 228.06585060784107 223.45828597667747 226.7987539355775 224.12188163375032 225.46126300374374 224.82040337803755 224.05337781233976 225.55385120953912 222.5750983613656 226.322225128255 221.02642465082124 227.12552513418532 219.4073566807067 227.96375122733 217.71789445102192 228.83690340768902 215.95803796176696 229.7449816752624 214.12778721294183 230.68798603005015 212.22714220454645 231.66591647205226 210.2561029365809 232.67877300126872 208.21466940904514 233.72655561769955 206.1028416219392 234.80926432134473 203.92061957526303 235.92689911220427 201.66800326901668 237.00960781584945 199.4857812223405 238.05739043228027 197.37395343523454 239.07024696149674 195.33251990769878 240.04817740349884 193.36148063973332 240.9911817582866 191.46083563133794 241.89926002585995 189.63058488251278 242.77241220621897 187.87072839325782 243.61063829936364 186.18126616357307 244.41393830529393 184.56219819345853 245.18231222400988 183.01352448291414 245.91576005551144 181.53524503193998 246.61428179979865 180.127359840536 247.27787745687152 178.78986890870223 247.90654702673 177.52277223643867 248.50029050937414 176.32606982374529 249.0591079048039 175.19976167062214 249.58299921301932 174.14384777706914 250.07196443402037 173.15832814308635 250.52600356780707 172.24320276867377 250.9451166143794 171.3984716538314 251.32930357373738 170.62413479855923 251.678564445881 169.9201922028572 251.99289923081022 169.28664386672546 252.2723079285251 168.72348979016385 252.51679053902564 168.2307299731725 252.7263470623118 167.80836441575127 252.90097749838358 167.4563931179003 253.04068184724105 167.1748160796195 253.14546010888412 166.9636333009089 253.21531228331284 166.8228447817685 253.2502383705272 166.7524505221983"/>
<polyline points="217.48592506302177 238.83617232208144 217.43198157271436 238.7967538905808 217.3240945920996 238.7179170275795 217.16226412117743 238.59966173307754 216.94649015994787 238.44198800707494 216.67677270841094 238.2448958495717 216.35311176656666 238.0083852605678 215.97550733441494 237.73245624006324 215.5439594119558 237.4171087880581 215.0584679991893 237.06234290455228 214.5190330961155 236.66815858954578 213.92565470273422 236.2345558430386 213.27833281904554 235.7615346650308 212.57706744504952 235.24909505552236 211.8218585807461 234.6972370145133 211.0127062261353 234.10596054200354 210.1496103812171 233.47526563799318 209.2325710459915 232.80515230248213 208.26158822045855 232.09562053547043 207.2366619046182 231.34667033695808 206.15779209847042 230.55830170694512 205.02497880201528 229.73051464543147 203.83822201525277 228.86330915241717 202.59752173818285 227.95668522790226 201.30287797080555 227.01064287188666 199.95429071312088 226.0251820843704 198.5517599651288 225.00030286535355 197.09528572682933 223.93600521483603 195.5848679982225 222.83228913281786 194.02050677930828 221.68915461929905 192.40220207008662 220.50660167427958 190.72995387055764 219.28463029775943 189.00376218072125 218.02324048973867 187.29513837011163 216.73170431725208 185.6040824387288 215.41002178029967 183.93059438657275 214.05819287888147 182.27467421364346 212.67621761299745 180.63632191994097 211.26409598264763 179.01553750546526 209.82182798783202 177.41232097021634 208.34941362855056 175.8266723141942 206.8468529048033 174.25859153739884 205.31414581659024 172.70807863983026 203.75129236391135 171.17513362148847 202.1582925467667 169.65975648237344 200.5351463651562 168.1619472224852 198.8818538190799 166.68170584182374 197.19841490853776 165.21903234038908 195.48482963352984 163.77392671818117 193.7410979940561 162.34638897520006 191.96721999011655 160.93641911144573 190.1631956217112 159.5440171269182 188.32902488884002 158.1691830216174 186.46470779150306 156.81191679554342 184.5702443297003 155.47221844869622 182.64563450343172 154.15008798107579 180.6908783126973 152.84552539268213 178.70597575749713 151.55853068351527 176.6909268378311 150.28910385357517 174.64573155369925 149.0372449028619 172.57038990510165 147.80295383137536 170.4649018920382 146.58623063911563 168.32926751450896 145.38707532608268 166.16348677251386 144.20548789227652 163.96755966605298 143.04146833769713 161.7414861951263 141.92815737781663 159.49466157290553 140.86555501263504 157.2270857993907 139.8536612421523 154.93875887458182 138.89247606636843 152.62968079847883 137.9819994852835 150.29985157108177 137.1222314988974 147.94927119239065 136.31317210721025 145.5779396624055 135.55482131022194 143.18585698112625 134.84717910793256 140.7730231485529 134.19024550034203 138.33943816468553 133.5840204874504 135.8851020295241 133.02850406925768 133.4100147430686 132.5236962457638 130.91417630531896 132.06959701696883 128.3975867162753 131.66620638287276 125.86024597593754 131.31352434347554 123.30215408430574 131.01155089877724 120.72331104137987 130.76028604877783 118.12371684715993 130.5597297934773 115.50337150164589 130.40988213287568 112.86227500483781 130.31074306697292 110.20042735673564 130.26231259576903 107.51782855733941 130.26459071926405 104.81447860664912 130.317577437458 102.09037750466476 130.4212727503508 99.3455252513863 130.57567665794244 96.57992184681379 130.78078916023304 93.79356729094721 131.0366102572225 90.98646158378656 131.34313994891085 88.15860472533186 131.7003782352981 85.30999671558305 132.1083251163842 82.4406375545402 132.56698059216924 79.55052724220327 133.01130308433596 76.75073287712686 133.44129259288442 74.041254459311 133.8569491178146 71.42209198875565 134.25827265912648 68.89324546546084 134.6452632168201 66.45471488942655 135.0179207908954 64.10650026065278 135.37624538135245 61.848601579139554 135.7202369881912 59.68101884488686 136.04989561141167 57.60375205789469 136.36522125101388 55.61680121816304 136.6662139069978 53.720166325691935 136.9528735793634 51.91384738048136 137.22520026811077 50.1978443825313 137.48319397323982 48.57215733184178 137.7268546947506 47.03678622841279 137.95618243264312 45.591731072244315 138.17117718691733 44.23699186333638 138.3718389575733 42.97256860168897 138.55816774461093 41.79846128730209 138.73016354803033 40.714669920175744 138.88782636783142 39.72119450030992 139.03115620401422 38.818035027704624 139.16015305657876 38.005191502359864 139.27481692552502 37.28266392427564 139.37514781085298 36.650452293451934 139.46114571256268 36.10855660988876 139.5328106306541 35.65697687358612 139.59014256512722 35.29571308454399 139.6331415159821 35.024765242762406 139.66180748321864 34.84413334824135 139.67614046683693 34.75381740098082"/>
<polyline points="111.82382112887859 232.48025259582624 111.87306328694439 232.4470411171833 111.97154760307599 232.38061815989732 112.11927407727339 232.28098372396838 112.31624270953658 232.14813780939647 112.56245349986558 231.9820804161816 112.85790644826038 231.7828115443237 113.20260155472097 231.55033119382284 113.59653881924737 231.28463936467904 114.03971824183957 230.98573605689225 114.53213982249756 230.65362127046245 115.07380356122135 230.2882950053897 115.66470945801095 229.88975726167396 116.30485751286633 229.45800803931525 116.99424772578753 228.99304733831357 117.73288009677452 228.4948751586689 118.5207546258273 227.96349150038125 119.35787131294589 227.39889636345063 120.24423015813026 226.80108974787703 121.17983116138045 226.17007165366044 122.16467432269644 225.50584208080087 123.19875964207824 224.80840102929835 124.28208711952583 224.07774849915282 125.4146567550392 223.3138844903643 126.59646854861839 222.5168090029328 127.82752250026338 221.68652203685835 129.10781860997417 220.8230235921409 130.43735687775074 219.9263136687805 131.8161373035931 218.99639226677715 133.2441598875013 218.0332593861308 134.7214246294753 217.03691502684143 136.24793152951509 216.0073591889091 137.82368058762063 214.94459187233377 139.3501874876604 213.91503603440145 140.8274522296344 212.9186916751121 142.25547481354255 211.95555879446573 143.63425523938497 211.0256373924624 144.96379350716154 210.12892746910197 146.24408961687232 209.26542902438453 147.4751435685173 208.43514205831008 148.65695536209648 207.63806657087858 149.78952499760987 206.87420256209006 150.87285247505747 206.14355003194453 151.90693779443927 205.446108980442 152.89178095575522 204.78187940758244 153.82738195900544 204.15086131336585 154.7137408041898 203.55305469779225 155.55085749130842 202.98845956086163 156.3387320203612 202.457075902574 157.0773643913482 201.9589037229293 157.76675460426938 201.49394302192763 158.40690265912477 201.06219379956892 158.99780855591436 200.66365605585318 159.53947229463816 200.29832979078043 160.03189387529616 199.96621500435063 160.47507329788834 199.66731169656384 160.86901056241476 199.40161986742004 161.21370566887532 199.1691395169192 161.50915861727015 198.9698706450613 161.75536940759912 198.8038132518464 161.95233803986235 198.6709673372745 162.10006451405974 198.57133290134556 162.19854883019133 198.5049099440596 162.24779098825712 198.47169846541664"/>
</svg>