<svg viewBox="22.717734330051844 43.60624181265254 244.47441496678474 216.75772889227105" xmlns="http://www.w3.org/2000/svg">
<style>
svg { stroke:black; stroke-width:2px; fill:none;}
</style>
<polyline points="96.8790426994782 46.60624181265254 96.80954923427369 46.6731386757014 96.67056230386466 46.806932401799116 96.46208190825111 47.00762299094569 96.18410804743303 47.275210443141134 95.83664072141045 47.60969475838543 95.41967993018334 48.01107593667857 94.9332256737517 48.47935397802058 94.37727795211558 49.014528882411454 93.7518367652749 49.616600649851186 93.05690211322973 50.28556928033977 92.29247399598003 51.02143477387722 91.45855241352581 51.82419713046353 90.55513736586707 52.6938563500987 89.58222885300383 53.630412432782705 88.53982687493605 54.63386537851558 87.42793143166377 55.70421518729732 86.24654252318696 56.84146185912791 84.99566014950562 58.04560539400737 83.67528431061979 59.316645791935684 82.28541500652942 60.65458305291286 80.82605223723455 62.059417176938894 79.29719600273516 63.531148164013786 77.69884630303125 65.06977601413755 76.03100313812283 66.67530072731014 74.29366650800986 68.34772230353161 72.48683641269241 70.08704074280195 70.61051285217042 71.89325604512112 68.66469582644393 73.76636821048916 66.6493853355129 75.70637723890607 64.56458137937736 77.71328313037182 62.41028395803731 79.78708588488644 60.186493071492734 81.92778550244992 58.03219565015268 84.00158825696454 55.94739169401714 86.00849414843032 53.93208120308612 87.94850317684721 51.98626417735962 89.82161534221524 50.10994061683764 91.62783064453441 48.303110521520175 93.36714908380475 46.565773891407225 95.03957066002621 44.89793072649879 96.64509537319884 43.299581026794876 98.18372322332259 41.77072479229548 99.65545421039748 40.311362023000605 101.06028833442352 38.921492718910244 102.39822559540069 37.601116880024406 103.66926599332899 36.35023450634308 104.87340952820844 35.16884559786627 106.01065620003905 34.056950154594 107.08100600882076 33.01454817652623 108.08445895455365 32.04163966366298 109.02101503723767 31.138224616004244 109.89067425687283 30.304303033550024 110.69343661345914 29.539874916300327 111.42930210699659 28.844940264255147 112.09827073748517 28.219499077414486 112.70034250492489 27.66355135577835 113.23551740931578 27.177097099346724 113.7037954506578 26.760136308119613 114.10517662895093 26.412668982097024 114.43966094419523 26.134695121278952 114.70724839639067 25.926214725665396 114.90793898553724 25.787227795256364 115.04173271163495 25.717734330051844 115.10862957468382"/>
<polyline points="222.43071805874328 182.0119811326027 222.4452750543863 182.01084222412842 222.47438904567238 182.00856440717988 222.51806003260145 182.00514768175705 222.5762880151736 182.00059204786 222.64907299338873 181.99489750548867 222.73641496724687 181.98806405464302 222.83831393674808 181.98009169532313 222.95476990189235 181.97098042752899 223.08578286267962 181.96073025126054 223.23135281910993 181.94934116651785 223.39147977118327 181.9368131733009 223.5661637188996 181.92314627160965 223.75540466225897 181.90834046144414 223.9592026012614 181.89239574280435 224.17755753590686 181.87531211569032 224.41046946619534 181.85708958010198 224.65793839212685 181.8377281360394 224.91996431370137 181.81722778350255 225.19654723091895 181.7955885224914 225.48768714377954 181.772810353006 225.79338405228316 181.74889327504636 226.11363795642984 181.72383728861243 226.4484488562195 181.6976423937042 226.79781675165222 181.67030859032172 227.16174164272797 181.64183587846497 227.54022352944673 181.61222425813395 227.93326241180856 181.58147372932868 228.3408582898134 181.54958429204916 228.76301116346127 181.51655594629534 229.19972103275217 181.48238869206722 229.6509878976861 181.44708252936485 230.11681175826303 181.4106374581882 230.56807862319693 181.37533129548586 231.00478849248782 181.34116404125774 231.42694136613568 181.30813569550392 231.8345372441405 181.27624625822438 232.22757612650233 181.24549572941908 232.60605801322112 181.21588410908805 232.96998290429687 181.1874113972313 233.3193507997296 181.16007759384883 233.65416169951928 181.13388269894062 233.97441560366596 181.10882671250667 234.28011251216958 181.084909634547 234.57125242503017 181.0621314650616 234.84783534224775 181.04049220405048 235.10986126382227 181.01999185151362 235.35733018975375 181.00063040745104 235.59024212004223 180.9824078718627 235.80859705468765 180.96532424474864 236.01239499369007 180.94937952610888 236.20163593704947 180.93457371594337 236.37631988476582 180.92090681425213 236.53644683683916 180.90837882103517 236.68201679326947 180.89698973629245 236.81302975405674 180.88673956002404 236.92948571920095 180.87762829222987 237.03138468870216 180.86965593290998 237.1187266625604 180.8628224820644 237.19151164077553 180.85712793969304 237.2497396233476 180.85257230579595 237.2934106102767 180.84915558037315 237.32252460156278 180.84687776342457 237.3370815972058 180.84573885495033"/>
<polyline points="222.43071805874328 182.0119811326027 222.3443854740605 181.99736436883833 222.17172030469493 181.96813084130963 221.91272255064655 181.92428055001653 221.5673922119154 181.8658134949591 221.13572928850147 181.7927296761373 220.61773378040476 181.7050290935511 220.01340568762527 181.6027117472006 219.32274501016298 181.48577763708576 218.54575174801792 181.35422676320653 217.68242590119007 181.20805912556293 216.7327674696794 181.04727472415496 215.69677645348602 180.8718735589826 214.5744528526098 180.6818556300459 213.3657966670508 180.4772209373449 212.07080789680901 180.2579694808795 210.68948654188443 180.02410126064973 209.22183260227706 179.77561627665563 207.6678460779869 179.51251452889716 206.027526969014 179.23479601737432 204.30087527535827 178.94246074208712 202.48789099701975 178.63550870303555 200.58857413399852 178.31393990021965 198.60292468629444 177.97775433363938 196.53094265390757 177.62695200329472 194.3726280368379 177.26153290918575 192.1279808350855 176.88149705131238 189.7970010486503 176.48684442967465 187.37968867753227 176.07757504427258 184.8760437217315 175.65368889510611 182.28606618124792 175.2151859821753 179.60975605608155 174.76206630548018 176.84711334623242 174.29432986502067 174.1522177408745 173.7486798137553 171.52506924000787 173.12511615168404 168.96566784363245 172.42363887880697 166.47401355174827 171.64424799512403 164.05010636435534 170.78694350063523 161.6939462814537 169.85172539534062 159.40553330304326 168.83859367924012 157.18486742912407 167.74754835233375 155.03194865969613 166.57858941462155 152.9467769947594 165.3317168661035 150.92935243431396 164.0069307067796 148.97967497835975 162.60423093664986 147.0977446268968 161.12361755571422 145.2835613799251 159.56509056397275 143.53712523744463 157.92864996142544 141.85843619945535 156.21429574807223 140.24749426595739 154.42202792391322 138.70429943695063 152.5518464889483 137.22885171243513 150.6037514431776 135.8211510924109 148.577742786601 134.4811975768779 146.47382051921858 133.20899116583615 144.29198464103024 132.00453185928563 142.0322351520361 130.86781965722633 139.69457205223608 129.7988545596583 137.2789953416302 128.79763656658156 134.78550502021852 127.864165677996 132.21410108800094 126.99844189390168 129.5647835449775 126.20046521429862 126.83755239114822 125.47023563918682 124.0324076265131 124.80775316856626 121.14934925107211 124.21301780243695 118.18837726482526 123.63686791649917 115.31993565314863 123.07930351075294 112.54402441604222 122.54032458519825 109.86064355350602 122.0199311398351 107.26979306554006 121.51812317466349 104.7714729521443 121.03490068968338 102.36568321331872 120.57026368489485 100.05242384906337 120.1242121602979 97.83169485937825 119.69674611589244 95.70349624426332 119.28786555167852 93.66782800371863 118.89757046765615 91.72469013774413 118.52586086382533 89.87408264633986 118.17273674018605 88.1160055295058 117.83819809673832 86.45045878724194 117.52224493348211 84.87744241954832 117.22487725041745 83.3969564264249 116.94609504754433 82.00900080787169 116.68589832486276 80.7135755638887 116.44428708237274 79.51068069447591 116.22126132007423 78.40031619963334 116.01682103796729 77.38248207936098 115.83096623605188 76.45717833365885 115.663696914328 75.62440496252692 115.51501307279568 74.88416196596522 115.38491471145488 74.23644934397373 115.27340183030563 73.68126709655245 115.18047442934792 73.21861522370138 115.10613250858177 72.84849372542052 115.05037606800715 72.57090260170988 115.01320510762406 72.38584185256946 114.99461962743251 72.29331147799924"/>
<polyline points="121.35102083813479 241.41640737504738 121.45984871993082 241.44137168150505 121.67750448352288 241.49130029442037 122.00398812891098 241.56619321379335 122.4392996560951 241.666050439624 122.98343906507526 241.7908719719123 123.63640635585145 241.94065781065828 124.39820152842367 242.1154079558619 125.26882458279192 242.31512240752318 126.2482755189562 242.53980116564213 127.33655433691652 242.78944423021875 128.53366103667287 243.06405160125303 129.83959561822525 243.36362327874497 131.25435808157366 243.68815926269457 132.7779484267181 244.03765955310183 134.41036665365857 244.41212414996676 136.15161276239513 244.8115530532893 138.00168675292767 245.2359462630695 139.96058862525624 245.68530377930745 142.02831837938083 246.15962560200302 144.20487601530147 246.65891173115622 146.49026153301813 247.18316216676712 148.88447493253082 247.7323769088357 151.38751621383955 248.3065559573619 153.9993853769443 248.90569931234575 156.7200824218451 249.5298069737873 159.5496073485419 250.1788789416865 162.48796015703476 250.85291521604336 165.53514084732365 251.55191579685786 168.69114941940856 252.27588068413002 171.95598587328953 253.0248098778599 175.3296502089665 253.79870337804738 178.81214242643955 254.59756118469255 182.21647216983095 255.2955048796847 185.54263943914074 255.89253446302376 188.79064423436893 256.3886499347098 191.96048655551547 256.7838512947428 195.0521664025804 257.0781385431228 198.06568377556374 257.2715116798497 201.0010386744655 257.3639707049236 203.8582310992856 257.35551561834444 206.6372610500241 257.24614642011227 209.338128526681 257.03586311022707 211.9608335292563 256.7246656886888 214.50537605774994 256.3125541554975 216.971756112162 255.79952851065315 219.35997369249245 255.1855887541558 221.67002879874127 254.47073488600535 223.90192143090846 253.65496690620188 226.05565158899407 252.73828481474538 228.13121927299807 251.72068861163586 230.12862448292043 250.60217829687332 232.0478672187612 249.3827538704577 233.8889474805204 248.06241533238904 235.6518652681979 246.64116268266736 237.33662058179382 245.11899592129265 238.94321342130814 243.4959150482649 240.47164378674086 241.7719200635841 241.92191167809193 239.94701096725026 243.2940170953614 238.02118775926337 244.58796003854928 235.9944504396235 245.8037405076555 233.86679900833053 246.94135850268017 231.63823346538456 248.0008140236232 229.30875381078553 248.98210707048463 226.87836004453345 249.93273470963163 224.52391608347676 250.8526969410642 222.24542192761547 251.74199376478236 220.04287757694954 252.6006251807861 217.916283031479 253.42859118907543 215.86563829120382 254.22589178965035 213.890943356124 254.9925269825108 211.9921982262396 255.72849676765688 210.16940290155048 256.4338011450885 208.42255738205682 257.1084401148058 206.75166166775853 257.75241367680854 205.1567157586556 258.36572183109695 203.63771965474808 258.94836457767093 202.1946733560359 259.50034191653043 200.82757686251912 260.02165384767557 199.53643017419773 260.51230037110633 198.3212332910717 260.9722814868226 197.18198621314107 261.40159719482443 196.1186889404058 261.8002474951119 195.1313414728659 262.16823238768495 194.21994381052136 262.5055518725436 193.3844959533722 262.8122059496877 192.62499790141842 263.08819461911753 191.94144965466003 263.33351788083286 191.33385121309703 263.54817573483376 190.80220257672937 263.7321681811203 190.34650374555713 263.8854952196924 189.96675471958025 264.0081568505501 189.66295549879874 264.1001530736934 189.4351060832126 264.1614838891222 189.28320647282186 264.1921492968366 189.20725666762647"/>
</svg>