<svg viewBox="-1.5952904755508674 17.097787252186137 269.63492421914947 281.68758414545186" xmlns="http://www.w3.org/2000/svg">
<style>
svg { stroke:black; stroke-width:2px; fill:none;}
</style>
<polyline points="249.59463025045667 74.93343124502105 249.51537975420956 74.93223814486699 249.35687876171536 74.92985194455883 249.11912727297405 74.92627264409663 248.80212528798566 74.92150024348034 248.40587280675015 74.91553474270998 247.93036982926756 74.90837614178557 247.37561635553786 74.90002444070706 246.74161238556104 74.89047963947449 246.02835791933714 74.87974173808784 245.23585295686615 74.86781073654714 244.36409749814806 74.85468663485236 243.41309154318282 74.84036943300349 242.38283509197052 74.82485913100057 241.2733281445111 74.80815572884356 240.0845707008046 74.7902592265325 238.816562760851 74.77116962406734 237.4693043246503 74.75088692144813 236.0427953922025 74.72941111867485 234.5370359635076 74.70674221574748 232.95202603856558 74.68288021266608 231.28776561737646 74.65782510943058 229.54425469994027 74.631576906041 227.72149328625693 74.60413560249737 225.8194813763265 74.57550119879966 223.838218970149 74.54567369494788 221.7777060677244 74.51465309094203 219.63794266905268 74.4824393867821 217.41892877413386 74.4490325824681 215.12066438296796 74.41443267800004 212.74314949555492 74.3786396733779 210.2863841118948 74.34165356860169 207.75036823198758 74.30347436367141 205.27043732354875 74.24988526870408 202.84659138657827 74.18088628369972 200.4788304210762 74.0964774086583 198.16715442704248 73.99665864357982 195.91156340447714 73.88142998846432 193.71205735338017 73.75079144331177 191.56863627375157 73.60474300812217 189.48130016559136 73.44328468289552 187.4500490288995 73.26641646763184 185.47488286367604 73.0741383623311 183.55580166992098 72.86645036699333 181.69280544763433 72.6433524816185 179.885894196816 72.40484470620663 178.13506791746605 72.15092704075772 176.44032660958447 71.88159948527176 174.80167027317125 71.59686203974877 173.21909890822644 71.29671470418872 171.69261251474998 70.98115747859163 170.2222110927419 70.65019036295749 168.80789464220226 70.3038133572863 167.44966316313094 69.94202646157808 166.14751665552797 69.5648296758328 164.9014551193934 69.17222300005048 163.71147855472725 68.76420643423111 162.57758696152945 68.3407799783747 161.4997803398 67.90194363248125 160.47805868953893 67.44769739655074 159.51242201074626 66.9780412705832 158.60287030342195 66.49297525457861 157.74940356756602 65.99249934853697 156.95202180317847 65.47661355245829 156.21072501025927 64.94531786634256 155.4925937421188 64.43062517041795 154.7976279987571 63.93253546468446 154.12582778017406 63.45104874914209 153.47719308636982 62.986165023790825 152.85172391734426 62.53788428863068 152.24942027309743 62.106206543661656 151.67028215362933 61.691131788883744 151.1143095589399 61.29266002429695 150.58150248902928 60.91079124990127 150.07186094389732 60.54552546569671 149.58538492354413 60.19686267168327 149.12207442796964 59.86480286786094 148.68192945717388 59.54934605422973 148.26495001115683 59.25049223078963 147.87113608991854 58.96824139754065 147.50048769345892 58.70259355448279 147.15300482177807 58.45354870161604 146.82868747487595 58.221106838940415 146.52753565275253 58.0052679664559 146.24954935540782 57.8060320841625 145.99472858284184 57.62339919206022 145.76307333505463 57.45736929014905 145.55458361204612 57.307942378429004 145.3692594138163 57.17511845690008 145.20710074036526 57.058897525562266 145.0681075916929 56.959279584415555 144.95227996779929 56.876264633459975 144.85961786868438 56.80985267269552 144.79012129434824 56.76004370212217 144.74379024479077 56.72683772173993 144.72062472001204 56.710234731548816"/>
<polyline points="1.4047095244491326 158.56715245336156 1.4447748939686722 158.56972862926776 1.5249056330077513 158.57488098108018 1.64510174156637 158.58260950879878 1.8053632196445277 158.59291421242364 2.0056900672422255 158.60579509195466 2.246082284359463 158.62125214739189 2.5265398709962392 158.63928537873534 2.847062827152555 158.659894785985 3.2076511528284106 158.68308036914084 3.6083048480238062 158.70884212820292 4.0490239127387415 158.7371800631712 4.529808346973216 158.76809417404564 5.05065815072723 158.80158446082635 5.6115733240007835 158.83765092351322 6.2125538667938764 158.87629356210633 6.853599779106508 158.91751237660563 7.5347110609386805 158.96130736701113 8.255887712290392 159.00767853332286 9.017129733161642 159.05662587554076 9.818437123552432 159.10814939366492 10.659809883462763 159.16224908769524 11.541248012892634 159.21892495763177 12.462751511842043 159.27817700347453 13.424320380310993 159.34000522522348 14.425954618299482 159.40440962287863 15.46765422580751 159.47139019644 16.549419202835075 159.5409469459076 17.671249549382186 159.61307987128134 18.83314526544883 159.68778897256135 20.03510635103502 159.76507424974753 21.277132806140745 159.84493570283993 22.55922463076601 159.92737333183854 23.801251085871737 160.00723478493092 25.00321217145792 160.08452006211712 26.165107887524567 160.15922916339713 27.286938234071673 160.23136208877088 28.36870321109924 160.30091883823846 29.41040281860727 160.36789941179984 30.412037056595757 160.432303809455 31.37360592506471 160.49413203120395 32.295109424014115 160.5533840770467 33.17654755344399 160.61005994698323 34.01792031335432 160.66415964101355 34.819227703745106 160.7156831591377 35.58046972461636 160.7646305013556 36.30164637596807 160.8110016676673 36.98275765780024 160.85479665807284 37.62380357011287 160.89601547257215 38.224784112905965 160.93465811116522 38.785699286179515 160.97072457385212 39.30654908993353 161.00421486063283 39.787333524168005 161.03512897150728 40.22805258888294 161.06346690647555 40.62870628407834 161.08922866553763 40.9892946097542 161.11241424869348 41.30981756591051 161.13302365594313 41.590275152547285 161.1510568872866 41.830667369664525 161.1665139427238 42.03099421726222 161.17939482225484 42.19125569534038 161.1896995258797 42.311451803899 161.1974280535983 42.391582542938075 161.20258040541069 42.43164791245761 161.2051565813169"/>
<polyline points="265.0396337435986 295.785371397638 264.9255396037176 295.6426078485313 264.69735132395573 295.35708075031806 264.3550689043128 294.92879010299805 263.898692344789 294.3577359065714 263.32822164538425 293.64391816103813 262.64365680609853 292.7873368663981 261.84499782693183 291.7879920226515 260.93224470788414 290.6458836297983 259.90539744895557 289.3610116878383 258.76445605014607 287.93337619677175 257.5094205114556 286.36297715659845 256.1402908328841 284.6498145673186 254.65706701443168 282.79388842893195 253.0597490560983 280.79519874143875 251.348336957884 278.65374550483887 249.52283071978871 276.3695287191323 247.58323034181248 273.9425483843191 245.5295358239553 271.3728045003992 243.36174716621719 268.6602970673727 241.07986436859807 265.8050260852395 238.68388743109801 262.80699155399964 236.17381635371703 259.66619347365315 233.54965113645505 256.3826318442 230.81139177931215 252.9563066656401 227.9590382822883 249.38721793797362 224.99259064538347 245.67536566120046 221.9120488685977 241.82074983532067 218.71741295193095 237.8233704603342 215.40868289538327 233.68322753624105 211.98585869895464 229.40032106304125 208.44894036264503 224.9746510407348 204.7979278864545 220.40621746932172 201.15771307886263 215.99188500509035 197.52829593986945 211.73165364804078 193.90967646947496 207.62552339817293 190.30185466767915 203.67349425548684 186.70483053448203 199.8755662199825 183.1186040698836 196.23173929165992 179.54317527388383 192.7420134705191 175.97854414648276 189.40638875656003 172.42471068768037 186.22486514978272 168.88167489747667 183.19744265018716 165.34943677587165 180.32412125777338 161.82799632286537 177.60490097254134 158.31735353845772 175.03978179449103 154.81750842264879 172.6287637236225 151.32846097543853 170.37184675993575 147.85021119682693 168.26903090343075 144.38275908681402 166.3203161541075 140.92610464539985 164.52570251196596 137.4802478725843 162.88518997700623 134.04518876836747 161.3987785492282 130.62092733274932 160.066468228632 127.20746356572985 158.8882590152175 123.80479746730907 157.86415090898478 120.41292903748699 156.9941439099338 117.03185827626359 156.27823801806457 113.66158518363888 155.71643323337713 110.30210975961285 155.30872955587142 106.95343200418549 155.05512698554747 103.61555191735684 154.95562552240528 100.28846949912685 155.01022516644483 96.97218474949557 155.21892591766616 93.66669766846297 155.58172777606924 90.46450705871263 155.93319207639723 87.36561292024459 156.2733188186501 84.37001525305878 156.6021080028279 81.47771405715525 156.91955962893056 78.68870933253399 157.22567369695815 76.003001079195 157.52045020691065 73.42058929713828 157.80388915878805 70.94147398636383 158.07599055259038 68.56565514687165 158.3367543883176 66.29313277866173 158.58618066596972 64.12390688173409 158.82426938554673 62.05797745608871 159.05102054704864 60.0953445017256 159.26643415047545 58.23600801864475 159.47051019582722 56.47996800684618 159.66324868310383 54.82722446632989 159.84464961230537 53.27777739709585 160.0147129834318 51.83162679914409 160.17343879648317 50.48877267247459 160.32082705145942 49.24921501708736 160.45687774836057 48.1129538329824 160.58159088718662 47.07998912015971 160.6949664679376 46.15032087861929 160.79700449061346 45.32394910836114 160.88770495521425 44.60087380938526 160.9670678617399 43.98109498169165 161.03509321019047 43.4646126252803 161.09178100056596 43.05142674015123 161.13713123286632 42.74153732630442 161.17114390709162 42.534944383739884 161.19381902324182 42.43164791245761 161.2051565813169"/>
<polyline points="48.47754637034707 38.34109508795143 48.47778200141705 38.32327935764307 48.47825326355698 38.28764789702634 48.478960156766895 38.23420070610125 48.47990268104678 38.16293778486778 48.48108083639663 38.07385913332596 48.48249462281645 37.96696475147577 48.48414404030625 37.842254639317225 48.486029088866005 37.6997287968503 48.488149768495745 37.53938722407502 48.490506079195455 37.36122992099138 48.49309802096513 37.16525688759937 48.49592559380477 36.95146812389899 48.49898879771438 36.719863629890256 48.50228763269397 36.47044340557315 48.50582209874353 36.20320745094769 48.50959219586306 35.918155766013854 48.513597924052554 35.615288350771664 48.51783928331202 35.2946052052211 48.522316273641465 34.95610632936217 48.52702889504087 34.59979172319488 48.531977147510254 34.225661386719224 48.53716103104961 33.83371531993521 48.54258054565892 33.42395352284282 48.54823569133822 32.996375995442065 48.55412646808748 32.55098273773295 48.56025287590671 32.08777374971548 48.56661491479592 31.606749031389636 48.57321258475509 31.107908582755428 48.58004588578423 30.591252403812852 48.58711481788335 30.056780494561917 48.594419381052425 29.504492855002617 48.601959575291474 28.93438948513495 48.60926413846056 28.382101845575647 48.616333070559676 27.847629936324715 48.62316637158882 27.330973757382143 48.62976404154799 26.832133308747935 48.636126080437194 26.351108590422093 48.64225248825642 25.887899602404612 48.648143265005686 25.4425063446955 48.653798410684985 25.014928817294752 48.65921792529431 24.605167020202366 48.66440180883366 24.21322095341835 48.669350061303035 23.839090616942695 48.67406268270245 23.482776010775403 48.67853967303189 23.14427713491648 48.682781032291345 22.82359398936591 48.68678676048084 22.520726574123714 48.69055685760037 22.23567488918988 48.69409132364993 21.968438934564414 48.69739015862951 21.719018710247312 48.70045336253913 21.48741421623857 48.70328093537878 21.273625452538198 48.70587287714845 21.077652419146187 48.70822918784816 20.89949511606254 48.710349867477895 20.73915354328726 48.71223491603766 20.596627700820346 48.713884333527446 20.471917588661793 48.71529811994727 20.365023206811607 48.716476275297126 20.27594455526978 48.717418799577004 20.204681634036326 48.71812569278691 20.151234443111232 48.71859695492685 20.1156029824945 48.71883258599683 20.097787252186137"/>
<polyline points="148.20723450550094 149.5954971124185 148.22699513791102 149.52139183856582 148.26651640273118 149.37318129086043 148.32579829996143 149.15086546930232 148.40484082960177 148.85444437389148 148.50364399165218 148.48391800462798 148.62220778611268 148.03928636151178 148.76053221298326 147.52054944454287 148.91861727226393 146.92770725372125 149.09646296395468 146.26075978904694 149.2940692880555 145.5197070505199 149.51143624456643 144.7045490381402 149.74856383348742 143.8152857519078 150.0054520548185 142.85191719182268 150.28210090855964 141.81444335788484 150.5785103947109 140.7028642500943 150.89468051327216 139.51717986845108 151.23061126424358 138.25739021295516 151.58630264762505 136.92349528360654 151.96175466341663 135.5154950804052 152.3569673116183 134.03338960335114 152.77194059223004 132.4771788524444 153.20667450525187 130.846862827685 153.66116905068378 129.14244152907284 154.13542422852578 127.36391495660801 154.62944003877786 125.51128311029048 155.14321648144 123.58454599012023 155.67675355651224 121.5837035960973 156.2300512639945 119.50875592822163 156.80310960388692 117.35970298649329 157.3959285761894 115.13654477091224 158.00850818090197 112.83928128147849 158.64084841802463 110.46791251819207 159.2534280227372 108.1706490287583 159.84624699503968 105.94749081317727 160.4193053349321 103.79843787144893 160.97260304241436 101.72349020357325 161.5061401174866 99.72264780955031 162.01991656014874 97.79591068938007 162.51393237040082 95.94327884306253 162.98818754824282 94.16475227059769 163.44268209367473 92.46033097198554 163.87741600669656 90.8300149472261 164.2923892873083 89.27380419631936 164.68760193550997 87.79169871926536 165.06305395130155 86.38369851606402 165.41874533468302 85.04980358671537 165.75467608565444 83.79001393121945 166.07084620421574 82.60432954957625 166.367255690367 81.49275044178572 166.64390454410815 80.4552766078479 166.90079276543923 79.49190804776278 167.13792035436023 78.60264476153036 167.35528731087115 77.78748674915064 167.55289363497198 77.04643401062361 167.73073932666273 76.3794865459493 167.88882438594337 75.78664435512769 168.02714881281395 75.26790743815877 168.14571260727445 74.82327579504258 168.24451576932486 74.45274942577906 168.3235582989652 74.15632833036825 168.38284019619545 73.93401250881016 168.4223614610156 73.78580196110474 168.4421220934257 73.71169668725204"/>
</svg>