<svg viewBox="80.80158324813982 69.47603569550614 194.45697669166992 208.04781078051406" xmlns="http://www.w3.org/2000/svg">
<style>
svg { stroke:black; stroke-width:2px; fill:none;}
</style>
<polyline points="272.25855993980974 274.5238464760202 272.2096290554097 274.4058925441827 272.11176728660973 274.1699846805077 271.9649746334097 273.8161228849952 271.7692510958097 273.3443071576452 271.5245966738097 272.7545374984577 271.2310113674097 272.04681390743264 270.88849517660964 271.2211363845702 270.4970481014096 270.27750492987013 270.05667014180955 269.2159195433327 269.56736129780955 268.0363802249576 269.0291215694095 266.7388869747451 268.4419509566094 265.3234397926951 267.80584945940933 263.7900386788076 267.1208170778093 262.13868363308256 266.38685381180926 260.36937465552006 265.60395966140914 258.48211174612004 264.77213462660904 256.47689490488256 263.891378707409 254.3537241318075 262.9616919038089 252.11259942689497 261.98307421580887 249.75352079014496 260.95552564340875 247.27648822155743 259.8790461866087 244.6815017211324 258.7536358454086 241.9685612888699 257.5792946198085 239.13766692476986 256.3560225098084 236.18881862883234 255.08381951540827 233.12201640105732 253.76268563660815 229.9372602414448 252.39262087340805 226.63455014999477 250.97362522580795 223.21388612670725 249.50569869380783 219.6752681715822 247.98884127740772 216.01869628461966 246.4230529766076 212.24417046581965 244.9061955602075 208.58759857885713 243.43826902820737 205.04898062373206 242.01927338060725 201.62831660044452 240.6492086174071 198.3256065089945 239.32807473860697 195.140850349382 238.05587174420685 192.07404812160695 236.83259963420676 189.12519982566943 235.65825840860668 186.29430546156937 234.5328480674066 183.58136502930685 233.4563686106065 180.98637852888183 232.4288200382064 178.5093459602943 231.45020235020633 176.15026732354428 230.52051554660625 173.90914261863176 229.63975962740614 171.7859718455568 228.80793459260607 169.78075500431925 228.02504044220603 167.89349209491925 227.29107717620596 166.12418311735672 226.60604479460594 164.47282807163174 225.96994329740588 162.93942695774422 225.38277268460578 161.52397977569416 224.84453295620574 160.22648652548165 224.35522411220572 159.04694720710665 223.91484615260566 157.98536182056915 223.52339907740566 157.04173036586914 223.18088288660562 156.21605284300665 222.8872975802056 155.50832925198165 222.64264315820557 154.91855959279414 222.44691962060554 154.44674386544412 222.30012696740553 154.09288206993162 222.20226519860555 153.85697420625664 222.15333431420552 153.73902027441912"/>
<polyline points="83.80158324813982 200.27666835354947 83.81175386559747 200.2159148768011 83.83209510051276 200.09440792330435 83.8626069528857 199.91214749305922 83.90328942271627 199.66913358606567 83.95414251000449 199.3653662023238 84.01516621475037 199.00084534183353 84.08636053695389 198.57557100459488 84.16772547661506 198.08954319060786 84.25926103373386 197.54276189987246 84.3609672083103 196.9352271323887 84.4728440003444 196.26693888815655 84.59489140983615 195.537897167176 84.72710943678554 194.7481019694471 84.86949808119256 193.8975532949698 85.02205734305724 192.98625114374414 85.18478722237957 192.01419551577007 85.35768771915953 190.98138641104765 85.54075883339715 189.88782382957686 85.7340005650924 188.73350777135767 85.93741291424531 187.51843823639012 86.15099588085587 186.2426152246742 86.37474946492404 184.90603873620987 86.60867366644987 183.50870877099717 86.85276848543339 182.0506253290361 87.10703392187452 180.53178841032667 87.37146997577327 178.95219801486883 87.64607664712969 177.3118541426626 87.93085393594376 175.61075679370805 88.22580184221547 173.84890596800506 88.53092036594482 172.02630166555375 88.84620950713183 170.14294388635403 89.17166926577649 168.19883263040595 89.53370425375442 166.2514230226245 89.93231447106565 164.30071506300968 90.36749991771016 162.3467087515615 90.83926059368794 160.38940408827995 91.34759649899902 158.42880107316503 91.8925076336434 156.46489970621673 92.47399399762106 154.49769998743508 93.09205559093202 152.52720191682005 93.74669241357626 150.55340549437167 94.43790446555379 148.57631072008994 95.1656917468646 146.59591759397483 95.93005425750869 144.61222611602636 96.73099199748609 142.62523628624453 97.56850496679675 140.63494810462933 98.44259316544071 138.64136157118077 99.353256593418 136.64447668589887 100.30049525072853 134.64429344878357 101.28430913737236 132.64081185983494 102.30469825334947 130.63403191905292 103.36166259865988 128.62395362643753 104.45520217330358 126.61057698198877 105.58531697728056 124.59390198570665 106.75200701059082 122.57392863759117 107.95527227323436 120.55065693764232 109.1951127652112 118.5240868858601 110.47152848652132 116.49421848224452 111.78451943716475 114.46105172679557 113.13408561714145 112.42458661951328 114.52022702645144 110.38482316039762 115.94294366509473 108.34176134944856 117.40223553307129 106.29540118666617 118.89810263038116 104.24574267205045 120.34722388090009 102.26013598601644 121.74959928462806 100.33858112856416 123.10522884156512 98.4810780996936 124.41411255171126 96.6876268994048 125.67625041506645 94.95822752769774 126.8916424316307 93.29287998457247 128.06028860140404 91.6915842700289 129.18218892438642 90.15434038406707 130.2573434005779 88.68114832668701 131.2857520299784 87.27200809788866 132.267414812588 85.92691969767206 133.20233174840664 84.6458831260372 134.09050283743437 83.4288983829841 134.93192807967114 82.27596546851274 135.72660747511702 81.18708438262311 136.47454102377196 80.16225512531524 137.17572872563596 79.20147769658911 137.83017058070902 78.3047520964447 138.43786658899114 77.47207832488205 138.99881675048232 76.70345638190113 139.5130210651826 75.99888626750197 139.98047953309194 75.35836798168454 140.40119215421035 74.78190152444887 140.7751589285378 74.26948689579493 141.10237985607432 73.82112409572274 141.38285493681994 73.43681312423229 141.61658417077462 73.11655398132356 141.80356755793832 72.8603466669966 141.94380509831115 72.66819118125137 142.037296791893 72.54008752408788 142.08404263868394 72.47603569550614"/>
</svg>