<svg viewBox="-3 -3 206 306" xmlns="http://www.w3.org/2000/svg">
<style>
svg { stroke:black; stroke-width:2px; fill:none;}
</style>
<polyline points="100 200 99.90234375 200.09765625 99.70703125 200.29296875 99.4140625 200.5859375 99.0234375 200.9765625 98.53515625 201.46484375 97.94921875 202.05078125 97.265625 202.734375 96.484375 203.515625 95.60546875 204.39453125 94.62890625 205.37109375 93.5546875 206.4453125 92.3828125 207.6171875 91.11328125 208.88671875 89.74609375 210.25390625 88.28125 211.71875 86.71875 213.28125 85.05859375 214.94140625 83.30078125 216.69921875 81.4453125 218.5546875 79.4921875 220.5078125 77.44140625 222.55859375 75.29296875 224.70703125 73.046875 226.953125 70.703125 229.296875 68.26171875 231.73828125 65.72265625 234.27734375 63.0859375 236.9140625 60.3515625 239.6484375 57.51953125 242.48046875 54.58984375 245.41015625 51.5625 248.4375 48.4375 251.5625 45.41015625 254.4921875 42.48046875 257.2265625 39.6484375 259.765625 36.9140625 262.109375 34.27734375 264.2578125 31.73828125 266.2109375 29.296875 267.96875 26.953125 269.53125 24.70703125 270.8984375 22.55859375 272.0703125 20.5078125 273.046875 18.5546875 273.828125 16.69921875 274.4140625 14.94140625 274.8046875 13.28125 275 11.71875 275 10.25390625 274.8046875 8.88671875 274.4140625 7.6171875 273.828125 6.4453125 273.046875 5.37109375 272.0703125 4.39453125 270.8984375 3.515625 269.53125 2.734375 267.96875 2.05078125 266.2109375 1.46484375 264.2578125 0.9765625 262.109375 0.5859375 259.765625 0.29296875 257.2265625 0.09765625 254.4921875 0 251.5625 0 248.4375 0.09765625 245.3125 0.29296875 242.1875 0.5859375 239.0625 0.9765625 235.9375 1.46484375 232.8125 2.05078125 229.6875 2.734375 226.5625 3.515625 223.4375 4.39453125 220.3125 5.37109375 217.1875 6.4453125 214.0625 7.6171875 210.9375 8.88671875 207.8125 10.25390625 204.6875 11.71875 201.5625 13.28125 198.4375 14.94140625 195.3125 16.69921875 192.1875 18.5546875 189.0625 20.5078125 185.9375 22.55859375 182.8125 24.70703125 179.6875 26.953125 176.5625 29.296875 173.4375 31.73828125 170.3125 34.27734375 167.1875 36.9140625 164.0625 39.6484375 160.9375 42.48046875 157.8125 45.41015625 154.6875 48.4375 151.5625 51.5625 148.4375 54.58984375 145.41015625 57.51953125 142.48046875 60.3515625 139.6484375 63.0859375 136.9140625 65.72265625 134.27734375 68.26171875 131.73828125 70.703125 129.296875 73.046875 126.953125 75.29296875 124.70703125 77.44140625 122.55859375 79.4921875 120.5078125 81.4453125 118.5546875 83.30078125 116.69921875 85.05859375 114.94140625 86.71875 113.28125 88.28125 111.71875 89.74609375 110.25390625 91.11328125 108.88671875 92.3828125 107.6171875 93.5546875 106.4453125 94.62890625 105.37109375 95.60546875 104.39453125 96.484375 103.515625 97.265625 102.734375 97.94921875 102.05078125 98.53515625 101.46484375 99.0234375 100.9765625 99.4140625 100.5859375 99.70703125 100.29296875 99.90234375 100.09765625 100 100"/>
<polyline points="200 0 199.90234375 0.09765625 199.70703125 0.29296875 199.4140625 0.5859375 199.0234375 0.9765625 198.53515625 1.46484375 197.94921875 2.05078125 197.265625 2.734375 196.484375 3.515625 195.60546875 4.39453125 194.62890625 5.37109375 193.5546875 6.4453125 192.3828125 7.6171875 191.11328125 8.88671875 189.74609375 10.25390625 188.28125 11.71875 186.71875 13.28125 185.05859375 14.94140625 183.30078125 16.69921875 181.4453125 18.5546875 179.4921875 20.5078125 177.44140625 22.55859375 175.29296875 24.70703125 173.046875 26.953125 170.703125 29.296875 168.26171875 31.73828125 165.72265625 34.27734375 163.0859375 36.9140625 160.3515625 39.6484375 157.51953125 42.48046875 154.58984375 45.41015625 151.5625 48.4375 148.4375 51.5625 145.5078125 54.58984375 142.7734375 57.51953125 140.234375 60.3515625 137.890625 63.0859375 135.7421875 65.72265625 133.7890625 68.26171875 132.03125 70.703125 130.46875 73.046875 129.1015625 75.29296875 127.9296875 77.44140625 126.953125 79.4921875 126.171875 81.4453125 125.5859375 83.30078125 125.1953125 85.05859375 125 86.71875 125 88.28125 125.1953125 89.74609375 125.5859375 91.11328125 126.171875 92.3828125 126.953125 93.5546875 127.9296875 94.62890625 129.1015625 95.60546875 130.46875 96.484375 132.03125 97.265625 133.7890625 97.94921875 135.7421875 98.53515625 137.890625 99.0234375 140.234375 99.4140625 142.7734375 99.70703125 145.5078125 99.90234375 148.4375 100 151.5625 100 154.4921875 100.09765625 157.2265625 100.29296875 159.765625 100.5859375 162.109375 100.9765625 164.2578125 101.46484375 166.2109375 102.05078125 167.96875 102.734375 169.53125 103.515625 170.8984375 104.39453125 172.0703125 105.37109375 173.046875 106.4453125 173.828125 107.6171875 174.4140625 108.88671875 174.8046875 110.25390625 175 111.71875 175 113.28125 174.8046875 114.94140625 174.4140625 116.69921875 173.828125 118.5546875 173.046875 120.5078125 172.0703125 122.55859375 170.8984375 124.70703125 169.53125 126.953125 167.96875 129.296875 166.2109375 131.73828125 164.2578125 134.27734375 162.109375 136.9140625 159.765625 139.6484375 157.2265625 142.48046875 154.4921875 145.41015625 151.5625 148.4375 148.4375 151.5625 145.41015625 154.58984375 142.48046875 157.51953125 139.6484375 160.3515625 136.9140625 163.0859375 134.27734375 165.72265625 131.73828125 168.26171875 129.296875 170.703125 126.953125 173.046875 124.70703125 175.29296875 122.55859375 177.44140625 120.5078125 179.4921875 118.5546875 181.4453125 116.69921875 183.30078125 114.94140625 185.05859375 113.28125 186.71875 111.71875 188.28125 110.25390625 189.74609375 108.88671875 191.11328125 107.6171875 192.3828125 106.4453125 193.5546875 105.37109375 194.62890625 104.39453125 195.60546875 103.515625 196.484375 102.734375 197.265625 102.05078125 197.94921875 101.46484375 198.53515625 100.9765625 199.0234375 100.5859375 199.4140625 100.29296875 199.70703125 100.09765625 199.90234375 100 200"/>
<polyline points="100 0 100 0.09765625 100 0.29296875 100 0.5859375 100 0.9765625 100 1.46484375 100 2.05078125 100 2.734375 100 3.515625 100 4.39453125 100 5.37109375 100 6.4453125 100 7.6171875 100 8.88671875 100 10.25390625 100 11.71875 100 13.28125 100 14.94140625 100 16.69921875 100 18.5546875 100 20.5078125 100 22.55859375 100 24.70703125 100 26.953125 100 29.296875 100 31.73828125 100 34.27734375 100 36.9140625 100 39.6484375 100 42.48046875 100 45.41015625 100 48.4375 100 51.5625 99.90234375 54.58984375 99.70703125 57.51953125 99.4140625 60.3515625 99.0234375 63.0859375 98.53515625 65.72265625 97.94921875 68.26171875 97.265625 70.703125 96.484375 73.046875 95.60546875 75.29296875 94.62890625 77.44140625 93.5546875 79.4921875 92.3828125 81.4453125 91.11328125 83.30078125 89.74609375 85.05859375 88.28125 86.71875 86.71875 88.28125 85.05859375 89.74609375 83.30078125 91.11328125 81.4453125 92.3828125 79.4921875 93.5546875 77.44140625 94.62890625 75.29296875 95.60546875 73.046875 96.484375 70.703125 97.265625 68.26171875 97.94921875 65.72265625 98.53515625 63.0859375 99.0234375 60.3515625 99.4140625 57.51953125 99.70703125 54.58984375 99.90234375 51.5625 100 48.4375 100 45.41015625 100.09765625 42.48046875 100.29296875 39.6484375 100.5859375 36.9140625 100.9765625 34.27734375 101.46484375 31.73828125 102.05078125 29.296875 102.734375 26.953125 103.515625 24.70703125 104.39453125 22.55859375 105.37109375 20.5078125 106.4453125 18.5546875 107.6171875 16.69921875 108.88671875 14.94140625 110.25390625 13.28125 111.71875 11.71875 113.28125 10.25390625 114.94140625 8.88671875 116.69921875 7.6171875 118.5546875 6.4453125 120.5078125 5.37109375 122.55859375 4.39453125 124.70703125 3.515625 126.953125 2.734375 129.296875 2.05078125 131.73828125 1.46484375 134.27734375 0.9765625 136.9140625 0.5859375 139.6484375 0.29296875 142.48046875 0.09765625 145.41015625 0 148.4375 0 151.5625 0 154.58984375 0 157.51953125 0 160.3515625 0 163.0859375 0 165.72265625 0 168.26171875 0 170.703125 0 173.046875 0 175.29296875 0 177.44140625 0 179.4921875 0 181.4453125 0 183.30078125 0 185.05859375 0 186.71875 0 188.28125 0 189.74609375 0 191.11328125 0 192.3828125 0 193.5546875 0 194.62890625 0 195.60546875 0 196.484375 0 197.265625 0 197.94921875 0 198.53515625 0 199.0234375 0 199.4140625 0 199.70703125 0 199.90234375 0 200"/>
<polyline points="200 100 200 99.90234375 200 99.70703125 200 99.4140625 200 99.0234375 200 98.53515625 200 97.94921875 200 97.265625 200 96.484375 200 95.60546875 200 94.62890625 200 93.5546875 200 92.3828125 200 91.11328125 200 89.74609375 200 88.28125 200 86.71875 200 85.05859375 200 83.30078125 200 81.4453125 200 79.4921875 200 77.44140625 200 75.29296875 200 73.046875 200 70.703125 200 68.26171875 200 65.72265625 200 63.0859375 200 60.3515625 200 57.51953125 200 54.58984375 200 51.5625 200 48.4375 200 45.41015625 200 42.48046875 200 39.6484375 200 36.9140625 200 34.27734375 200 31.73828125 200 29.296875 200 26.953125 200 24.70703125 200 22.55859375 200 20.5078125 200 18.5546875 200 16.69921875 200 14.94140625 200 13.28125 200 11.71875 200 10.25390625 200 8.88671875 200 7.6171875 200 6.4453125 200 5.37109375 200 4.39453125 200 3.515625 200 2.734375 200 2.05078125 200 1.46484375 200 0.9765625 200 0.5859375 200 0.29296875 200 0.09765625 200 0"/>
<polyline points="200 100 200 100.09765625 200 100.29296875 200 100.5859375 200 100.9765625 200 101.46484375 200 102.05078125 200 102.734375 200 103.515625 200 104.39453125 200 105.37109375 200 106.4453125 200 107.6171875 200 108.88671875 200 110.25390625 200 111.71875 200 113.28125 200 114.94140625 200 116.69921875 200 118.5546875 200 120.5078125 200 122.55859375 200 124.70703125 200 126.953125 200 129.296875 200 131.73828125 200 134.27734375 200 136.9140625 200 139.6484375 200 142.48046875 200 145.41015625 200 148.4375 200 151.5625 200 154.6875 200 157.8125 200 160.9375 200 164.0625 200 167.1875 200 170.3125 200 173.4375 200 176.5625 200 179.6875 200 182.8125 200 185.9375 200 189.0625 200 192.1875 200 195.3125 200 198.4375 200 201.5625 200 204.6875 200 207.8125 200 210.9375 200 214.0625 200 217.1875 200 220.3125 200 223.4375 200 226.5625 200 229.6875 200 232.8125 200 235.9375 200 239.0625 200 242.1875 200 245.3125 200 248.4375 200 251.5625 200 254.58984375 200 257.51953125 200 260.3515625 200 263.0859375 200 265.72265625 200 268.26171875 200 270.703125 200 273.046875 200 275.29296875 200 277.44140625 200 279.4921875 200 281.4453125 200 283.30078125 200 285.05859375 200 286.71875 200 288.28125 200 289.74609375 200 291.11328125 200 292.3828125 200 293.5546875 200 294.62890625 200 295.60546875 200 296.484375 200 297.265625 200 297.94921875 200 298.53515625 200 299.0234375 200 299.4140625 200 299.70703125 200 299.90234375 200 300"/>
</svg>