<svg viewBox="10.163847855564358 160.37648314102088 122.41363110317799 140.11734092840723" xmlns="http://www.w3.org/2000/svg">
<style>
svg { stroke:black; stroke-width:2px; fill:none;}
</style>
<polyline points="110.98772874525402 216.77671985087034 110.98978451339667 216.84829034648703 110.99389604968198 216.9914313377204 111.00006335410995 217.20614282457046 111.0082864266806 217.49242480703714 111.01856526739388 217.85027728512057 111.03089987624983 218.2797002588207 111.04529025324845 218.78069372813746 111.06173639838971 219.3532576930709 111.08023831167364 219.99739215362104 111.10079599310023 220.71309710978787 111.12340944266947 221.50037256157137 111.14807866038136 222.3592185089716 111.17480364623592 223.2896349519885 111.20358440023313 224.29162189062203 111.23442092237299 225.36517932487226 111.26731321265554 226.51030725473913 111.30226127108072 227.72700568022276 111.33926509764856 229.01527460132303 111.37832469235907 230.37511401804 111.41944005521223 231.80652393037366 111.46261118620805 233.30950433832396 111.50783808534655 234.884055241891 111.55512075262769 236.5301766410747 111.60445918805146 238.24786853587506 111.65585339161792 240.03713092629212 111.70930336332702 241.89796381232588 111.76480910317879 243.83036719397631 111.82237061117324 245.83434107124341 111.88198788731033 247.9098854441272 111.94366093159006 250.05700031262768 112.00738974401247 252.27568567674484 112.07317432457752 254.56594153647865 112.10445763166733 256.7728107517132 112.1012396652819 258.8962933224486 112.06352042542122 260.9363892486848 111.9912999120853 262.89309853042164 111.88457812527412 264.7664211676593 111.74335506498772 266.55635716039774 111.56763073122605 268.2629065086369 111.35740512398908 269.88606921237687 111.11267824327692 271.42584527161756 110.8334500890895 272.882234686359 110.51972066142685 274.25523745660126 110.17148996028895 275.5448535823443 109.7887579856758 276.75108306358806 109.3715247375874 277.87392590033255 108.91979021602373 278.9133820925779 108.43355442098482 279.86945164032386 107.91281735247068 280.74213454357067 107.35757901048126 281.5314308023183 106.76783939501662 282.23734041656667 106.14359850607676 282.85986338631574 105.48485634366162 283.3989997115656 104.79161290777121 283.8547493923162 104.06386819840557 284.22711242856764 103.30162221556469 284.51608882031985 102.50487495924857 284.7216785675728 101.67362642945717 284.8438816703265 100.80787662619055 284.88269812858096 99.90762554944868 284.8381279423361 98.97287319923156 284.7101711115921 98.00361957553918 284.4988276363489 96.99986467837155 284.20409751660645 95.9616085077287 283.82598075236467 94.95579784241842 283.45968013700553 93.98243268244072 283.10519567052893 93.04151302779562 282.76252735293485 92.13303887848312 282.4316751842234 91.2570102345032 282.1126391643944 90.41342709585587 281.80541929344804 89.60228946254114 281.5100155713842 88.82359733455898 281.2264279982029 88.07735071190942 280.95465657390423 87.36354959459247 280.694701298488 86.68219398260808 280.4465621719544 86.03328387595627 280.21023919430326 85.41681927463708 279.9857323655347 84.83280017865046 279.77304168564876 84.28122658799643 279.57216715464534 83.762098502675 279.3831087725245 83.27541592268616 279.2058665392862 82.82117884802992 279.04044045493043 82.39938727870624 278.88683051945725 82.01004121471516 278.7450367328666 81.65314065605668 278.6150590951585 81.32868560273079 278.49689760633294 81.03667605473748 278.39055226638993 80.77711201207676 278.2960230753296 80.54999347474863 278.21331003315163 80.3553204427531 278.14241313985633 80.19309291609015 278.08333239544356 80.0633108947598 278.0360677999133 79.96597437876203 278.00061935326573 79.90108336809685 277.97698705550056 79.86863786276426 277.965170906618"/>
<polyline points="18.384794098477975 169.62521826222383 18.450166621626625 169.72720451982735 18.58091166792392 169.93117703503435 18.77702923736987 170.2371358078449 19.038519329964462 170.645080838259 19.365381945707707 171.15501212627657 19.7576170845996 171.76692967189766 20.215224746640143 172.48083347512227 20.738204931829333 173.29672353595038 21.326557640167174 174.21459985438202 21.980282871653664 175.23446243041718 22.6993806262888 176.35631126405585 23.483850904072586 177.58014635529804 24.33369370500502 178.90596770414373 25.248909029086107 180.33377531059293 26.229496876315842 181.86356917464565 27.275457246694227 183.49534929630198 28.386790140221258 185.22911567556173 29.563495556896946 187.064868312425 30.805573496721273 189.0026072068918 32.113023959694246 191.04233235896208 33.48584694581587 193.18404376863592 34.92404245508615 195.42774143591325 36.42761048750508 197.7734253607941 37.99655104307264 200.2210955432785 39.63086412178887 202.77075198336638 41.33054972365374 205.4223946810578 43.09560784866726 208.1760236363527 44.92603849682943 211.03163884925112 46.82184166814024 213.9892403197531 48.7830173625997 217.04882804785854 50.80956558020782 220.2104020335675 52.90148632096458 223.47396227688 54.95309456879004 226.57959639325563 56.9643903236842 229.52730438269438 58.93537358564704 232.31708624519626 60.86604435467858 234.94894198076125 62.75640263077881 237.4228715893894 64.60644841394775 239.73887507108068 66.41618170418538 241.8969524258351 68.18560250149169 243.89710365365266 69.9147108058667 245.73932875453332 71.60350661731042 247.42362772847716 73.25198993582282 248.9500005754841 74.8601607614039 250.31844729555417 76.4280190940537 251.5289678886874 77.9555649337722 252.58156235488374 79.44279828055937 253.47623069414323 80.88971913441524 254.2129729064658 82.29632749533982 254.79178899185155 83.66262336333308 255.21267895030041 84.98860673839505 255.4756427818124 86.27427762052568 255.58068048638756 87.51963600972503 255.52779206402582 88.72468190599308 255.3169775147272 89.88941530932982 254.9482368384917 91.01383621973525 254.42157003531935 92.09794463720938 253.73697710521012 93.1417405617522 252.89445804816404 94.14522399336371 251.8940128641811 95.10839493204394 250.73564155326125 96.03125337779284 249.41934411540456 96.91379933061044 247.94512055061102 97.75603279049673 246.3129708588806 98.55795375745171 244.52289504021337 99.35865605583791 242.85518601855875 100.1581396856553 241.30984379391685 100.95640464690392 239.88686836628767 101.75345093958374 238.5862597356711 102.54927856369477 237.4080179020673 103.343887519237 236.35214286547614 104.13727780621043 235.4186346258977 104.92944942461507 234.607493183332 105.72040237445091 233.91871853777894 106.51013665571799 233.35231068923858 107.29865226841625 232.90826963771093 108.08594921254573 232.58659538319594 108.87202748810643 232.38728792569367 109.65688709509828 232.3103472652041 110.44052803352139 232.3557734017272 111.22295030337568 232.523566335263 112.00415390466118 232.8137260658115 112.7841388373779 233.2262525933727 113.56290510152583 233.76114591794658 114.34045269710498 234.41840603953312 115.11678162411532 235.1980329581324 115.89189188255686 236.1000266737444 116.66578347242961 237.12438718636903 117.43845639373356 238.27111449600636 118.20991064646873 239.54020860265643 118.98014623063511 240.93166950631914 119.7491631462327 242.4454972069946 120.51696139326148 244.08169170468273 121.28354097172148 245.84025299938355 122.04890188161268 247.72118109109707 122.81304412293508 249.72447597982327 123.5759676956887 251.85013766556216 124.29326431328788 253.91451599155906 124.9649339757326 255.91761095781393 125.5909766830229 257.85942256432685 126.17139243515875 259.73995081109774 126.70618123214015 261.55919569812664 127.19534307396711 263.3171572254136 127.63887796063963 265.0138353929585 128.0367858921577 266.6492302007614 128.38906686852133 268.2233416488223 128.69572088973052 269.73616973714127 128.95674795578526 271.18771446571816 129.17214806668557 272.5779758345531 129.34192122243144 273.906953843646 129.46606742302282 275.17464849299694 129.5445866684598 276.38105978260586 129.57747895874235 277.5261877124727 129.56474429387043 278.61003228259756 129.50638267384406 279.6325934929805 129.40239409866325 280.59387134362146 129.25277856832804 281.4938658345204 129.05753608283834 282.33257696567733 128.81666664219424 283.1100047370922 128.53017024639567 283.8261491487651 128.19804689544262 284.4810102006961 127.82029658933516 285.074587892885 127.3969193280733 285.60688222533196 126.92791511165694 286.0778931980369 126.41328394008616 286.48762081099983 125.85302581336094 286.8360650642208 125.24714073148124 287.12322595769973 124.59562869444713 287.34910349143667 123.89848970225862 287.5136976654316 123.22313630357596 287.6731482714892 122.56956849839915 287.8274553096095 121.93778628672828 287.9766187797924 121.3277896685633 288.12063868203796 120.7395786439042 288.2595150163462 120.173153212751 288.393247782717 119.6285133751037 288.5218369811506 119.10565913096227 288.6452826116468 118.60459048032675 288.7635846742056 118.12530742319711 288.87674316882715 117.66780995957339 288.9847580955113 117.23209808945555 289.08762945425815 116.81817181284359 289.1853572450676 116.42603112973751 289.27794146793985 116.05567604013734 289.3653821228746 115.70710654404306 289.4476792098721 115.38032264145467 289.5248327289322 115.07532433237218 289.596842680055 114.79211161679558 289.66370906324045 114.53068449472487 289.72543187848856 114.29104296616005 289.78201112579933 114.07318703110114 289.83344680517274 113.8771166895481 289.8797389166088 113.70283194150097 289.9208874601075 113.55033278695973 289.9568924356689 113.41961922592438 289.9877538432929 113.31069125839491 290.0134716829797 113.22354888437133 290.0340459547291 113.15819210385365 290.0494766585411 113.11462091684187 290.05976379441574 113.09283532333598 290.0649073623531"/>
<polyline points="34.511191131699405 297.4938240694281 34.501846944851486 297.48770816999365 34.48315857115565 297.47547637112484 34.45512601061189 297.4571286728215 34.4177492632202 297.4326650750838 34.37102832898061 297.4020855779116 34.314963207893086 297.365390181305 34.24955389995765 297.3225788852639 34.17480040517429 297.2736516897883 34.090702723543004 297.2186085948784 33.997260855063814 297.15744960053405 33.89447479973669 297.09017470675525 33.78234455756165 297.016783913542 33.66087012853869 296.9372772208943 33.53005151266781 296.8516546288122 33.38988870994901 296.7599161372956 33.240381720382295 296.66206174634465 33.08153054396766 296.5580914559592 32.9133351807051 296.4480052661393 32.735795630594616 296.33180317688505 32.54891189363622 296.20948518819625 32.3526839698299 296.08105130007306 32.14711185917566 295.9465015125154 31.9321955616735 295.80583582552333 31.70793507732342 295.65905423909686 31.47433040612542 295.5061567532359 31.231381548079504 295.3471433679405 30.979088503185665 295.1820140832107 30.717451271443906 295.01076889904647 30.44646985285423 294.8334078154478 30.16614424741663 294.6499308324146 29.87647445513111 294.4603379499471 29.577460475997675 294.264629168045 29.27384148061677 293.94500916436493 28.9656174689884 293.50147793890676 28.65278844111256 292.93403549167056 28.335354396989253 292.24268182265627 28.013315336618476 291.42741693186383 27.68667126000023 290.4882408192934 27.355422167134524 289.4251534849449 27.01956805802135 288.2381549288183 26.679108932660707 286.92724515091356 26.334044791052598 285.49242415123075 25.98437563319702 283.9336919297699 25.63010145909397 282.251048486531 25.271222268743458 280.44449382151396 24.907738062145484 278.5140279347189 24.539648839300035 276.4596508261458 24.16695460020712 274.2813624957945 23.789655344866738 271.9791629436652 23.40775107327889 269.55305216975785 23.021241785443575 267.0030301740724 22.63012748136079 264.32909695660885 22.23440816103054 261.53125251736725 21.834083824452826 258.60949685634756 21.42915447162764 255.56382997354982 21.019620102554992 252.39425186897398 20.605480717234872 249.10076254262003 20.186736315667286 245.68336199448802 19.763386897852232 242.14205022457793 19.33543246378971 238.47682723288983 18.902873013479724 234.6876930194236 18.46570854692227 230.77464758417926 18.023939064117346 226.7376909271569 17.57756456506496 222.5768230483564 17.15268422444851 218.55725362605682 16.749298042268002 214.6789826602581 16.36740601852343 210.94201015096024 16.007008153214795 207.3463360981633 15.668104446342099 203.89196050186717 15.350694897905345 200.57888336207193 15.054779507904529 197.40710467877756 14.780358276339651 194.37662445198401 14.527431203210714 191.4874426816914 14.295998288517714 188.7395593678996 14.086059532260652 186.13297451060868 13.897614934439531 183.6676881098187 13.730664495054349 181.34370016552953 13.585208214105101 179.16101067774122 13.461246091591796 177.11961964645377 13.358778127514434 175.21952707166722 13.277804321873006 173.46073295338152 13.218324674667517 171.8432372915967 13.180339185897967 170.36704008631273 13.163847855564358 169.03214133752965 13.168850683666687 167.8385410452474 13.195347670204955 166.78623920946603 13.243338815179161 165.87523583018555 13.312824118589308 165.10553090740598 13.403803580435394 164.47712444112722 13.516277200717418 163.99001643134932 13.650244979435382 163.6442068780723 13.805706916589283 163.43969578129617 13.982663012179126 163.37648314102088 14.181113266204903 163.45456895724647 14.401057678666623 163.67395322997294 14.642496249564282 164.03463595920024 14.876389865121386 164.38404735313924 15.102738525337939 164.72218741178983 15.321542230213941 165.0490561351521 15.532800979749393 165.36465352322602 15.73651477394429 165.66897957601157 15.93268361279864 165.9620342935088 16.121307496312433 166.24381767571762 16.30238642448568 166.51432972263814 16.47592039731837 166.77357043427025 16.641909414810506 167.02153981061406 16.800353476962094 167.2582378516695 16.951252583773133 167.48366455743655 17.094606735243616 167.6978199279153 17.230415931373546 167.90070396310566 17.358680172162927 168.0923166630077 17.479399457611763 168.27265802762133 17.59257378772004 168.44172805694666 17.698203162487765 168.59952675098359 17.796287581914935 168.7460541097322 17.88682704600156 168.88131013319244 17.96982155474763 169.00529482136434 18.045271108153145 169.11800817424788 18.11317570621811 169.21945019184307 18.173535348942526 169.3096208741499 18.226350036326387 169.3885202211684 18.2716197683697 169.4561482328985 18.30934454507246 169.5125049093403 18.339524366434663 169.5575902504937 18.36215923245632 169.59140425635877 18.377249143137423 169.61394692693545 18.384794098477975 169.62521826222383"/>
</svg>