<svg viewBox="188.1113515045416 12.439731925604082 70.68694546207965 166.2003484071777" xmlns="http://www.w3.org/2000/svg">
<style>
svg { stroke:black; stroke-width:2px; fill:none;}
</style>
<polyline points="207.35234969421163 101.89957976331532 207.41776912502212 101.8332747232493 207.54860798664313 101.7006646431173 207.74486627907464 101.50174952291928 208.00654400231662 101.23652936265526 208.33364115636914 100.90500416232524 208.72615774123213 100.50717392192922 209.1840937569056 100.0430386414672 209.70744920338961 99.51259832093918 210.2962240806841 98.91585296034515 210.9504183887891 98.25280255968511 211.6700321277046 97.52344711895907 212.4550652974306 96.72778663816702 213.3055178979671 95.86582111730897 214.22138992931406 94.9375505563849 215.20268139147157 93.94297495539485 216.24939228443955 92.88209431433879 217.36152260821805 91.75490863321671 218.53907236280705 90.56141791202865 219.78204154820654 89.30162215077456 221.09043016441655 87.97552134945448 222.46423821143702 86.5831155080684 223.90346568926802 85.12440462661631 225.4081125979095 83.59938870509822 226.97817893736146 82.00806774351413 228.61366470762397 80.35044174186403 230.31456990869694 78.62651070014793 232.0808945405804 76.83627461836582 233.91263860327444 74.97973349651772 235.80980209677892 73.0568873346036 237.7723850210939 71.06773613262348 239.80038737621936 69.01227989057736 241.89380916215538 66.89051860846524 243.84053173667576 64.8169339613311 245.64055509978053 62.79152594917497 247.29387925146972 60.81429457199682 248.8005041917433 58.88523982979665 250.1604299206013 57.004361722574494 251.37365643804367 55.171660250330326 252.44018374407045 53.38713541306415 253.36001183868166 51.65078721077598 254.13314072187728 49.962615643465796 254.75957039365727 48.322620711133595 255.23930085402168 46.730802413779394 255.5723321029704 45.18716075140317 255.75866414050358 43.69169572400496 255.79829696662125 42.24440733158473 255.69123058132328 40.845295574142504 255.43746498460968 39.49436045167826 255.03700017648052 38.19160196419202 254.48983615693572 36.937020111683765 253.79597292597535 35.730614894153504 252.95541048359937 34.57238631160124 251.96814882980777 33.462334364026965 250.83418796460057 32.40045905143069 249.5535278879778 31.386760373812397 248.12616859993938 30.421238331172106 246.55211010048538 29.503892923509802 244.83135238961586 28.634724150825498 242.96389546733067 27.813732013119182 240.9497393336299 27.040916510390858 238.78888398851353 26.31627764264053 236.48132943198155 25.639815409868195 234.02707566403396 25.011529812073853 231.42612268467076 24.4314208492575 228.90644948591267 23.86944029152916 226.4680560677597 23.325588138888836 224.11094243021182 22.79986439133652 221.83510857326905 22.292269048872207 219.6405544969314 21.802802111495915 217.52728020119878 21.33146357920763 215.49528568607133 20.878253452007357 213.54457095154893 20.4431717298951 211.67513599763166 20.026218412870847 209.8869808243195 19.627393500934605 208.1801054316124 19.246696994086378 206.55450981951046 18.884128892326157 205.01019398801355 18.53968919565395 203.54715793712177 18.213377904069755 202.1654016668351 17.90519501757357 200.8649251771535 17.615140536165395 199.645728468077 17.343214459845232 198.50781153960563 17.089416788613075 197.45117439173933 16.853747522468936 196.47581702447815 16.636206661412803 195.58173943782205 16.436794205444684 194.76894163177104 16.255510154564575 194.03742360632515 16.092354508772477 193.38718536148437 15.947327268068388 192.81822689724868 15.820428432452314 192.3305482136181 15.711658001924249 191.9241493105926 15.621015976484193 191.59903018817218 15.548502356132149 191.3551908463569 15.494117140868116 191.1926312851467 15.457860330692094 191.1113515045416 15.439731925604082"/>
<polyline points="207.35234969421163 101.89957976331532 207.33648934441703 101.8151463181613 207.30476864482782 101.64627942785327 207.257187595444 101.39297909239123 207.19374619626564 101.05524531177517 207.1144444472926 100.6330780860051 207.01928234852502 100.12647741508101 206.90825989996284 99.5354432990029 206.78137710160604 98.85997573777078 206.63863395345464 98.10007473138464 206.48003045550865 97.2557402798445 206.30556660776807 96.32697238315033 206.11524241023287 95.31377104130213 205.90905786290307 94.21613625429994 205.68701296577865 93.03406802214374 205.44910771885966 91.76756634483353 205.1953421221461 90.41663122236929 204.9257161756379 88.98126265475105 204.6402298793351 87.46146064197879 204.3388832332377 85.85722518405251 204.0216762373457 84.1685562809722 203.6886088916591 82.39545393273788 203.33968119617793 80.53791813934956 202.97489315090212 78.5959489008072 202.59424475583174 76.56954621711085 202.19773601096676 74.45871008826047 201.78536691630717 72.26344051425608 201.35713747185298 69.98373749509767 200.9130476776042 67.61960103078528 200.4530975335608 65.17103112131883 199.9772870397228 62.63802776669839 199.48561619609023 60.02059096692393 198.97808500266302 57.31872072199546 198.48641415903046 54.701283922221 198.0106036651925 52.16828056760056 197.5506535211491 49.71971065813413 197.10656372690028 47.35557419382171 196.67833428244606 45.075871174663305 196.26596518778646 42.88060160065892 195.8694564429215 40.769765471808554 195.48880804785108 38.743362788112194 195.1240200025753 36.80139354956985 194.7750923070941 34.94385775618153 194.44202496140753 33.17075540794721 194.12481796551552 31.482086504866913 193.8234713194181 29.87785104694063 193.5379850231153 28.35804903416836 193.26835907660714 26.922680466550105 193.01459347989356 25.57174534408587 192.77668823297455 24.305243666775645 192.55464333585016 23.12317543461944 192.34845878852036 22.025540647617245 192.15813459098518 21.012339305769064 191.98367074324457 20.0835714090749 191.82506724529858 19.23923695753475 191.6823240971472 18.479335951148617 191.55544129879038 17.8038683899165 191.44441885022817 17.212834273838396 191.3492567514606 16.706233602914306 191.2699550024876 16.28406637714423 191.2065136033092 15.946332596528173 191.1589325539254 15.69303226106613 191.1272118543362 15.524165370758098 191.1113515045416 15.439731925604082"/>
<polyline points="199.96916683772992 175.6400803327818 200.03328220607096 175.55798291573427 200.16151294275318 175.39378808163923 200.35385904777644 175.14749583049667 200.61032052114075 174.81910616230653 200.93089736284622 174.40861907706892 201.31558957289275 173.91603457478377 201.76439715128032 173.3413526554511 202.27732009800906 172.68457331907092 202.85435841307884 171.94569656564317 203.49551209648968 171.12472239516794 204.20078114824167 170.22165080764518 204.97016556833472 169.23648180307487 205.80366535676882 168.16921538145706 206.70128051354408 167.0198515427917 207.6630110386604 165.78839028707884 208.68885693211774 164.47483161431845 209.77881819391627 163.07917552451053 210.93289482405584 161.6014220176551 212.15108682253646 160.0415710937521 213.43339418935824 158.39962275280163 214.77981692452107 156.6755769948036 216.19035502802495 154.86943381975806 217.66500849987 152.98119322766502 219.2037773400561 151.0108552185244 220.80666154858324 148.9584197923363 222.47366112545154 146.82388694910065 224.2047760706609 144.60725668881747 226.0000063842113 142.3085290114868 227.85935206610287 139.92770391710857 229.7828131163355 137.46478140568283 231.77038953490916 134.91976147720956 233.822081321824 132.29264413168875 235.75275251156486 129.75770941267564 237.56240310413187 127.31495732017021 239.251033099525 124.96438785417246 240.81864249774424 122.70600101468239 242.26523129878956 120.53979680169999 243.59079950266099 118.46577521522528 244.79534710935854 116.48393625525824 245.8788741188822 114.59427992179891 246.84138053123198 112.79680621484725 247.68286634640788 111.09151513440324 248.40333156440985 109.47840668046693 249.00277618523796 107.9574808530383 249.48120020889215 106.52873765211734 249.83860363537246 105.19217707770407 250.0749864646789 103.94779912979848 250.19034869681138 102.79560380840056 250.18469033177 101.73559111351032 250.0580113695548 100.76776104512778 249.81031181016564 99.89211360325291 249.4415916536026 99.10864878788571 248.95185089986566 98.4173665990262 248.3410895489548 97.81826703667436 247.6093076008701 97.3113501008302 246.75650505561148 96.89661579149373 245.78268191317898 96.57406410866494 244.68783817357257 96.34369505234382 243.4719738367923 96.20550862253039 242.13508890283816 96.15950481922464 240.6771833717101 96.20568364242656 239.09825724340817 96.34404509213616 237.39831051793232 96.57458916835343 235.57734319528254 96.89731587107839 233.8132811014656 97.20995736434318 232.10612423648146 97.51251364814784 230.45587260033014 97.80498472249235 228.86252619301163 98.08737058737668 227.32608501452592 98.35967124280089 225.84654906487302 98.6218866887649 224.4239183440529 98.87401692526878 223.0581928520656 99.11606195231249 221.74937258891111 99.34802176989606 220.4974575545894 99.56989637801948 219.3024477491005 99.78168577668274 218.16434317244443 99.98338996588585 217.08314382462117 100.1750089456288 216.05884970563068 100.35654271591157 215.091460815473 100.52799127673421 214.18097715414814 100.68935462809671 213.3273987216561 100.84063276999903 212.5307255179968 100.9818257024412 211.79095754317038 101.11293342542322 211.10809479717673 101.23395593894507 210.48213728001588 101.34489324300677 209.91308499168784 101.44574533760834 209.4009379321926 101.53651222274974 208.94569610153013 101.61719389843097 208.54735949970052 101.68779036465205 208.2059281267037 101.74830162141299 207.9214019825397 101.79872766871377 207.69378106720842 101.83906850655438 207.52306538071002 101.86932413493486 207.40925492304444 101.88949455385516 207.35234969421163 101.89957976331532"/>
</svg>