<svg viewBox="49.196841789846346 55.724502291668884 131.11185171042808 174.82685940494258" xmlns="http://www.w3.org/2000/svg">
<style>
svg { stroke:black; stroke-width:2px; fill:none;}
</style>
<polyline points="177.30869350027444 108.6809402257961 177.2668394210814 108.62619612785997 177.18313126269524 108.51670793198772 177.05756902511604 108.35247563817934 176.89015270834375 108.13349924643484 176.6808823123784 107.85977875675421 176.42975783722 107.53131416913745 176.13677928286853 107.14810548358456 175.80194664932398 106.71015270009555 175.42525993658637 106.2174558186704 175.00671914465568 105.67001483930913 174.54632427353192 105.06782976201174 174.0440753232151 104.41090058677821 173.49997229370524 103.69922731360856 172.91401518500228 102.93280994250279 172.28620399710624 102.11164847346087 171.61653873001714 101.23574290648284 170.90501938373498 100.30509324156868 170.15164595825973 99.3196994787184 169.35641845359143 98.27956161793199 168.5193368697301 97.18467965920945 167.64040120667565 96.03505360255079 166.71961146442814 94.83068344795599 165.75696764298758 93.57156919542507 164.75246974235392 92.25771084495804 163.7061177625272 90.88910839655486 162.61791170350742 89.46576185021556 161.48785156529456 87.98767120594013 160.31593734788865 86.45483646372858 159.10216905128965 84.86725762358091 157.84654667549762 83.22493468549709 156.54907022051248 81.52786764947716 155.20973968633433 79.77605651552109 153.88640575285848 78.09422607118057 152.57906842008504 76.48237631645557 151.28772768801392 74.94050725134613 150.01238355664518 73.46861887585223 148.75303602597882 72.06671118997384 147.50968509601478 70.734784193711 146.28233076675315 69.47283788706369 145.0709730381938 68.2808722700319 143.8756119103369 67.15888734261567 142.69624738318237 66.10688310481497 141.53287945673014 65.1248595566298 140.38550813098033 64.2128166980602 139.25413340593283 63.37075452910611 138.13875528158772 62.59867304976754 137.039373757945 61.89657226004453 135.95598883500458 61.26445215993705 134.88860051276657 60.7023127494451 133.83720879123086 60.2101540285687 132.80181367039756 59.78797599730783 131.78241515026667 59.4357786556625 130.77901323083807 59.1535620036327 129.79160791211189 58.94132604121844 128.82019919408802 58.79907076841971 127.86478707676655 58.72679618523654 126.92537156014743 58.724502291668884 126.0019526442307 58.792189087716764 125.0945303290163 58.92985657338019 124.20310461450424 59.13750474865914 123.32767550069457 59.415133613553635 122.46824298758727 59.762743168063665 121.62480707518233 60.18033341218924 120.79736776347971 60.66790434593035 119.99578593026783 61.140238687992046 119.22006157554668 61.59733643837433 118.47019469931621 62.039197597077205 117.74618530157645 62.46582216410067 117.04803338232739 62.87721013944473 116.37573894156905 63.27336152310937 115.72930197930141 63.654276315094606 115.10872249552447 64.01995451540044 114.51400049023825 64.37039612402685 113.94513596344272 64.70560114097385 113.4021289151379 65.02556956624146 112.88497934532377 65.33030139982965 112.39368725400035 65.61979664173843 111.92825264116766 65.8940552919678 111.48867550682567 66.15307735051778 111.07495585097436 66.39686281738832 110.68709367361377 66.62541169257948 110.3250889747439 66.8387239760912 109.98894175436473 67.03679966792353 109.67865201247625 67.21963876807644 109.39421974907849 67.38724127654994 109.13564496417145 67.53960719334404 108.9029276577551 67.67673651845872 108.69606782982945 67.798629251894 108.51506548039451 67.90528539364988 108.35992060945026 67.99670494372631 108.23063321699674 68.07288790212337 108.12720330303392 68.13383426884101 108.0496308675618 68.17954404387925 107.99791591058039 68.21001722723807 107.97205843208968 68.22525381891747"/>
<polyline points="72.271728904495 118.94715095024478 72.32697770558389 118.96751595368751 72.43747530776167 119.00824596057299 72.60322171102833 119.06934097090124 72.82421691538387 119.15080098467222 73.10046092082831 119.25262600188594 73.43195372736162 119.37481602254238 73.81869533498383 119.51737104664159 74.26068574369489 119.68029107418357 74.75792495349486 119.86357610516826 75.31041296438374 120.0672261395957 75.91814977636149 120.29124117746588 76.58113538942813 120.53562121877881 77.29936980358366 120.80036626353449 78.07285301882806 121.08547631173289 78.90158503516136 121.39095136337406 79.78556585258352 121.71679141845796 80.72479547109458 122.06299647698461 81.71927389069455 122.42956653895399 82.76900111138339 122.81650160436614 83.87397713316112 123.22380167322102 85.03420195602773 123.65146674551863 86.24967557998322 124.099496821259 87.5203980050276 124.5678919004421 88.84636923116086 125.05665198306798 90.22758925838302 125.56577706913657 91.66405808669404 126.09526715864793 93.15577571609398 126.64512225160202 94.70274214658279 127.21534234799884 96.3049573781605 127.80592744783843 97.96242141082709 128.41687755112073 99.67513424458255 129.0481926578458 101.44309587942692 129.69987276801362 103.20313507283157 130.30079727488533 104.9552518247965 130.85096617846096 106.69944613532175 131.35037947874054 108.43571800440728 131.799037175724 110.16406743205312 132.19693926941142 111.88449441825924 132.54408575980273 113.59699896302564 132.84047664689797 115.30158106635236 133.08611193069711 116.99824072823935 133.2809916112002 118.68697794868663 133.42511568840717 120.36779272769422 133.51848416231806 122.04068506526212 133.5610970329329 123.70565496139031 133.55295430025163 125.36270241607875 133.49405596427428 127.0118274293275 133.38440202500087 128.65303000113656 133.22399248243133 130.2863101315059 133.01282733656575 131.91166782043553 132.75090658740407 133.52910306792546 132.4382302349463 135.1386158739757 132.0747982791925 136.7402062385862 131.66061072014256 138.33387416175702 131.19566755779655 139.91961964348815 130.67996879215445 141.49744268377952 130.1135144232163 143.0673432826312 129.49630445098202 144.6293214400432 128.8283388754517 146.18337715601552 128.10961769662526 147.7295104305481 127.34014091450278 149.26772126364096 126.5199085290842 150.79800965529415 125.64892054036953 152.3203756055076 124.72717694835879 153.83481911428134 123.75467775305196 155.30193626340593 122.81256915759847 156.7217270528813 121.9008511619983 158.09419148270752 121.0195237662515 159.41932955288456 120.16858697035804 160.6971412634124 119.3480407743179 161.92762661429106 118.55788517813109 163.11078560552056 117.79812018179763 164.2466182371009 117.06874578531752 165.33512450903203 116.36976198869074 166.37630442131396 115.70116879191728 167.37015797394673 115.06296619499717 168.31668516693034 114.45515419793041 169.21588600026476 113.87773280071698 170.06776047394996 113.33070200335688 170.87230858798603 112.81406180585013 171.62953034237287 112.32781220819672 172.33942573711056 111.87195321039664 173.0019947721991 111.4464848124499 173.61723744763844 111.0514070143565 174.18515376342856 110.68671981611644 174.7057437195695 110.35242321772971 175.17900731606136 110.04851721919633 175.604944552904 109.7750018205163 175.9835554300974 109.53187702168958 176.31483994764167 109.31914282271622 176.5987981055368 109.13679922359619 176.83542990378265 108.98484622432949 177.0247353423794 108.86328382491614 177.16671442132693 108.77211202535612 177.26136714062528 108.71133082564944 177.30869350027444 108.6809402257961"/>
<polyline points="99.37658747222275 186.0292685113567 99.32962104527003 186.05266920377557 99.23568819136459 186.09947058861334 99.09478891050642 186.16967266587 98.90692320269552 186.26327543554555 98.67209106793192 186.38027889763998 98.39029250621559 186.5206830521533 98.06152751754652 186.6844878990855 97.68579610192472 186.87169343843658 97.26309825935022 187.08229967020657 96.793433989823 187.31630659439543 96.27680329334305 187.57371421100316 95.71320616991036 187.8545225200298 95.10264261952497 188.15873152147532 94.44511264218684 188.48634121533973 93.74061623789599 188.837351601623 92.98915340665242 189.21176268032517 92.19072414845613 189.60957445144624 91.34532846330711 190.03078691498618 90.45296635120538 190.475400070945 89.51363781215092 190.94341391932272 88.52734284614374 191.43482846011935 87.49408145318384 191.94964369333485 86.4138536332712 192.4878596189692 85.28665938640586 193.04947623702245 84.11249871258778 193.6344935474946 82.89137161181696 194.24291155038566 81.62327808409344 194.87473024569556 80.30821812941721 195.5299496334244 78.94619174778825 196.20856971357207 77.53719893920655 196.91059048613863 76.08123970367214 197.6360119511241 74.57831404118501 198.38483410852845 73.12421912627481 199.12740380022126 71.71895495894154 199.86372102620248 70.36252153918522 200.5937857864722 69.05491886700582 201.31759808103035 67.79614694240338 202.03515790987697 66.58620576537785 202.74646527301206 65.42509533592929 203.45152017043557 64.31281565405763 204.15032260214758 63.24936671976293 204.842872568148 62.23474853304516 205.52917006843688 61.26896109390432 206.20921510301423 60.35200440234043 206.88300767188002 59.48387845835346 207.55054777503426 58.66458326194342 208.21183541247697 57.894118813110325 208.86687058420813 57.172485111854186 209.5156532902277 56.49968215817496 210.15818353053578 55.87570995207267 210.79446130513227 55.300568493547324 211.4244866140172 54.774257782598916 212.04825945719068 54.296777819227444 212.66577983465254 53.868128603432915 213.27704774640284 53.488310135215315 213.88206319244165 53.15732241457466 214.48082617276887 52.87516544151093 215.07333668738457 52.64183921602414 215.6595947362887 52.45734373811429 216.2396003194813 52.32167900778137 216.81335343696236 52.234845025025386 217.38085408873187 52.196841789846346 217.94210227478982 52.207669302244234 218.49709799513622 52.26732756221906 219.0458412497711 52.32512150156967 219.5774362776986 52.38105112029607 220.09188307891876 52.43511641839826 220.5891816534316 52.48731739587625 221.06933200123711 52.537654052730005 221.5323341223353 52.58612638895955 221.9781880167261 52.632734404564886 222.4068936844096 52.677478099546 222.8184511253858 52.72035747390291 223.2128603396546 52.7613725276356 223.59012132721605 52.80052326074408 223.95023408807018 52.83780967322836 224.29319862221698 52.873231765088406 224.6190149296564 52.90678953632425 224.9276830103885 52.938482986935874 225.2192028644133 52.968312116923286 225.4935744917307 52.99627692628649 225.7507978923408 53.022377415025474 225.99087306624358 53.04661358314025 226.21380001343897 53.06898543063081 226.41957873392704 53.08949295749716 226.6082092277078 53.10813616373929 226.77969149478116 53.124915049357206 226.9340255351472 53.139829614350916 227.07121134880595 53.15287985872041 227.19124893575733 53.164065782465684 227.29413829600134 53.17338738558675 227.37987942953805 53.18084466808361 227.44847233636742 53.186437629956245 227.49991701648943 53.190166271204674 227.5342134699041 53.19203059182889 227.55136169661145"/>
</svg>