<svg viewBox="-3 -3 206 306" xmlns="http://www.w3.org/2000/svg">
<style>
svg { stroke:black; stroke-width:2px; fill:none;}
</style>
<polyline points="100 300 99.90234375 300 99.70703125 300 99.4140625 300 99.0234375 300 98.53515625 300 97.94921875 300 97.265625 300 96.484375 300 95.60546875 300 94.62890625 300 93.5546875 300 92.3828125 300 91.11328125 300 89.74609375 300 88.28125 300 86.71875 300 85.05859375 300 83.30078125 300 81.4453125 300 79.4921875 300 77.44140625 300 75.29296875 300 73.046875 300 70.703125 300 68.26171875 300 65.72265625 300 63.0859375 300 60.3515625 300 57.51953125 300 54.58984375 300 51.5625 300 48.4375 300 45.41015625 300 42.48046875 300 39.6484375 300 36.9140625 300 34.27734375 300 31.73828125 300 29.296875 300 26.953125 300 24.70703125 300 22.55859375 300 20.5078125 300 18.5546875 300 16.69921875 300 14.94140625 300 13.28125 300 11.71875 300 10.25390625 300 8.88671875 300 7.6171875 300 6.4453125 300 5.37109375 300 4.39453125 300 3.515625 300 2.734375 300 2.05078125 300 1.46484375 300 0.9765625 300 0.5859375 300 0.29296875 300 0.09765625 300 0 300"/>
<polyline points="100 300 100 299.90234375 100 299.70703125 100 299.4140625 100 299.0234375 100 298.53515625 100 297.94921875 100 297.265625 100 296.484375 100 295.60546875 100 294.62890625 100 293.5546875 100 292.3828125 100 291.11328125 100 289.74609375 100 288.28125 100 286.71875 100 285.05859375 100 283.30078125 100 281.4453125 100 279.4921875 100 277.44140625 100 275.29296875 100 273.046875 100 270.703125 100 268.26171875 100 265.72265625 100 263.0859375 100 260.3515625 100 257.51953125 100 254.58984375 100 251.5625 100 248.4375 100 245.3125 100 242.1875 100 239.0625 100 235.9375 100 232.8125 100 229.6875 100 226.5625 100 223.4375 100 220.3125 100 217.1875 100 214.0625 100 210.9375 100 207.8125 100 204.6875 100 201.5625 100 198.4375 100 195.3125 100 192.1875 100 189.0625 100 185.9375 100 182.8125 100 179.6875 100 176.5625 100 173.4375 100 170.3125 100 167.1875 100 164.0625 100 160.9375 100 157.8125 100 154.6875 100 151.5625 100 148.4375 100 145.3125 100 142.1875 100 139.0625 100 135.9375 100 132.8125 100 129.6875 100 126.5625 100 123.4375 100 120.3125 100 117.1875 100 114.0625 100 110.9375 100 107.8125 100 104.6875 100 101.5625 100 98.4375 100 95.3125 100 92.1875 100 89.0625 100 85.9375 100 82.8125 100 79.6875 100 76.5625 100 73.4375 100 70.3125 100 67.1875 100 64.0625 100 60.9375 100 57.8125 100 54.6875 100 51.5625 100 48.4375 100 45.41015625 100 42.48046875 100 39.6484375 100 36.9140625 100 34.27734375 100 31.73828125 100 29.296875 100 26.953125 100 24.70703125 100 22.55859375 100 20.5078125 100 18.5546875 100 16.69921875 100 14.94140625 100 13.28125 100 11.71875 100 10.25390625 100 8.88671875 100 7.6171875 100 6.4453125 100 5.37109375 100 4.39453125 100 3.515625 100 2.734375 100 2.05078125 100 1.46484375 100 0.9765625 100 0.5859375 100 0.29296875 100 0.09765625 100 0"/>
<polyline points="100 200 100.09765625 200 100.29296875 200 100.5859375 200 100.9765625 200 101.46484375 200 102.05078125 200 102.734375 200 103.515625 200 104.39453125 200 105.37109375 200 106.4453125 200 107.6171875 200 108.88671875 200 110.25390625 200 111.71875 200 113.28125 200 114.94140625 200 116.69921875 200 118.5546875 200 120.5078125 200 122.55859375 200 124.70703125 200 126.953125 200 129.296875 200 131.73828125 200 134.27734375 200 136.9140625 200 139.6484375 200 142.48046875 200 145.41015625 200 148.4375 200 151.5625 200 154.58984375 200.09765625 157.51953125 200.29296875 160.3515625 200.5859375 163.0859375 200.9765625 165.72265625 201.46484375 168.26171875 202.05078125 170.703125 202.734375 173.046875 203.515625 175.29296875 204.39453125 177.44140625 205.37109375 179.4921875 206.4453125 181.4453125 207.6171875 183.30078125 208.88671875 185.05859375 210.25390625 186.71875 211.71875 188.28125 213.28125 189.74609375 214.94140625 191.11328125 216.69921875 192.3828125 218.5546875 193.5546875 220.5078125 194.62890625 222.55859375 195.60546875 224.70703125 196.484375 226.953125 197.265625 229.296875 197.94921875 231.73828125 198.53515625 234.27734375 199.0234375 236.9140625 199.4140625 239.6484375 199.70703125 242.48046875 199.90234375 245.41015625 200 248.4375 200 251.5625 200 254.58984375 200 257.51953125 200 260.3515625 200 263.0859375 200 265.72265625 200 268.26171875 200 270.703125 200 273.046875 200 275.29296875 200 277.44140625 200 279.4921875 200 281.4453125 200 283.30078125 200 285.05859375 200 286.71875 200 288.28125 200 289.74609375 200 291.11328125 200 292.3828125 200 293.5546875 200 294.62890625 200 295.60546875 200 296.484375 200 297.265625 200 297.94921875 200 298.53515625 200 299.0234375 200 299.4140625 200 299.70703125 200 299.90234375 200 300"/>
<polyline points="0 100 0.09765625 100 0.29296875 100 0.5859375 100 0.9765625 100 1.46484375 100 2.05078125 100 2.734375 100 3.515625 100 4.39453125 100 5.37109375 100 6.4453125 100 7.6171875 100 8.88671875 100 10.25390625 100 11.71875 100 13.28125 100 14.94140625 100 16.69921875 100 18.5546875 100 20.5078125 100 22.55859375 100 24.70703125 100 26.953125 100 29.296875 100 31.73828125 100 34.27734375 100 36.9140625 100 39.6484375 100 42.48046875 100 45.41015625 100 48.4375 100 51.5625 100 54.58984375 100 57.51953125 100 60.3515625 100 63.0859375 100 65.72265625 100 68.26171875 100 70.703125 100 73.046875 100 75.29296875 100 77.44140625 100 79.4921875 100 81.4453125 100 83.30078125 100 85.05859375 100 86.71875 100 88.28125 100 89.74609375 100 91.11328125 100 92.3828125 100 93.5546875 100 94.62890625 100 95.60546875 100 96.484375 100 97.265625 100 97.94921875 100 98.53515625 100 99.0234375 100 99.4140625 100 99.70703125 100 99.90234375 100 100 100"/>
</svg>