<?xml version="1.0" encoding="UTF-8" standalone="no"?>
<!DOCTYPE svg PUBLIC "-//W3C//DTD SVG 1.1//EN"
 "http://www.w3.org/Graphics/SVG/1.1/DTD/svg11.dtd">
<!-- Generated by graphviz version 2.43.0 (0)
 -->
<!-- Title: example10 Pages: 1 -->
<svg width="436pt" height="182pt"
 viewBox="0.00 0.00 436.19 182.00" xmlns="http://www.w3.org/2000/svg" xmlns:xlink="http://www.w3.org/1999/xlink">
<g id="graph0" class="graph" transform="scale(1 1) rotate(0) translate(4 178)">
<title>example10</title>
<polygon fill="white" stroke="transparent" points="-4,4 -4,-178 432.19,-178 432.19,4 -4,4"/>
<g id="clust1" class="cluster">
<title>cluster_1</title>
<polygon fill="none" stroke="red" points="94.29,-91 94.29,-166 344.29,-166 344.29,-91 94.29,-91"/>
<text text-anchor="middle" x="219.29" y="-150.8" font-family="Times,serif" font-size="14.00">process 1</text>
</g>
<g id="clust2" class="cluster">
<title>cluster_2</title>
<polygon fill="none" stroke="black" points="184.29,-8 184.29,-83 344.29,-83 344.29,-8 184.29,-8"/>
<text text-anchor="middle" x="264.29" y="-67.8" font-family="Times,serif" font-size="14.00">process 2</text>
</g>
<!-- a1 -->
<g id="node1" class="node">
<title>a1</title>
<ellipse fill="none" stroke="black" cx="129.29" cy="-117" rx="27" ry="18"/>
<text text-anchor="middle" x="129.29" y="-113.3" font-family="Times,serif" font-size="14.00">a1</text>
</g>
<!-- a2 -->
<g id="node2" class="node">
<title>a2</title>
<ellipse fill="none" stroke="black" cx="219.29" cy="-117" rx="27" ry="18"/>
<text text-anchor="middle" x="219.29" y="-113.3" font-family="Times,serif" font-size="14.00">a2</text>
</g>
<!-- a1&#45;&gt;a2 -->
<g id="edge1" class="edge">
<title>a1&#45;&gt;a2</title>
<path fill="none" stroke="black" d="M156.7,-117C164.69,-117 173.6,-117 182.12,-117"/>
<polygon fill="black" stroke="black" points="182.21,-120.5 192.21,-117 182.21,-113.5 182.21,-120.5"/>
</g>
<!-- a3 -->
<g id="node3" class="node">
<title>a3</title>
<ellipse fill="none" stroke="black" cx="309.29" cy="-117" rx="27" ry="18"/>
<text text-anchor="middle" x="309.29" y="-113.3" font-family="Times,serif" font-size="14.00">a3</text>
</g>
<!-- a2&#45;&gt;a3 -->
<g id="edge2" class="edge">
<title>a2&#45;&gt;a3</title>
<path fill="none" stroke="black" d="M246.7,-117C254.69,-117 263.6,-117 272.12,-117"/>
<polygon fill="black" stroke="black" points="272.21,-120.5 282.21,-117 272.21,-113.5 272.21,-120.5"/>
</g>
<!-- end -->
<g id="node7" class="node">
<title>end</title>
<ellipse fill="none" stroke="black" cx="400.24" cy="-75" rx="27.9" ry="18"/>
<text text-anchor="middle" x="400.24" y="-71.3" font-family="Times,serif" font-size="14.00">end</text>
</g>
<!-- a3&#45;&gt;end -->
<g id="edge6" class="edge">
<title>a3&#45;&gt;end</title>
<path fill="none" stroke="black" d="M331.83,-106.83C342.7,-101.7 356.09,-95.38 368.07,-89.72"/>
<polygon fill="black" stroke="black" points="369.74,-92.8 377.29,-85.37 366.75,-86.47 369.74,-92.8"/>
</g>
<!-- b1 -->
<g id="node4" class="node">
<title>b1</title>
<ellipse fill="none" stroke="black" stroke-dasharray="5,2" cx="219.29" cy="-34" rx="27" ry="18"/>
<text text-anchor="middle" x="219.29" y="-30.3" font-family="Times,serif" font-size="14.00">b1</text>
</g>
<!-- b2 -->
<g id="node5" class="node">
<title>b2</title>
<ellipse fill="none" stroke="black" stroke-dasharray="5,2" cx="309.29" cy="-34" rx="27" ry="18"/>
<text text-anchor="middle" x="309.29" y="-30.3" font-family="Times,serif" font-size="14.00">b2</text>
</g>
<!-- b1&#45;&gt;b2 -->
<g id="edge3" class="edge">
<title>b1&#45;&gt;b2</title>
<path fill="none" stroke="black" d="M246.7,-34C254.69,-34 263.6,-34 272.12,-34"/>
<polygon fill="black" stroke="black" points="272.21,-37.5 282.21,-34 272.21,-30.5 272.21,-37.5"/>
</g>
<!-- b2&#45;&gt;end -->
<g id="edge7" class="edge">
<title>b2&#45;&gt;end</title>
<path fill="none" stroke="black" d="M331.83,-43.92C342.62,-48.9 355.89,-55.02 367.8,-60.51"/>
<polygon fill="black" stroke="black" points="366.43,-63.73 376.98,-64.74 369.36,-57.37 366.43,-63.73"/>
</g>
<!-- start -->
<g id="node6" class="node">
<title>start</title>
<ellipse fill="none" stroke="black" cx="33.15" cy="-93" rx="33.29" ry="18"/>
<text text-anchor="middle" x="33.15" y="-89.3" font-family="Times,serif" font-size="14.00">start</text>
</g>
<!-- start&#45;&gt;a1 -->
<g id="edge4" class="edge">
<title>start&#45;&gt;a1</title>
<path fill="none" stroke="black" d="M63.42,-100.46C73.14,-102.94 84.04,-105.72 94.09,-108.28"/>
<polygon fill="black" stroke="black" points="93.23,-111.67 103.79,-110.75 94.96,-104.89 93.23,-111.67"/>
</g>
<!-- start&#45;&gt;b1 -->
<g id="edge5" class="edge">
<title>start&#45;&gt;b1</title>
<path fill="none" stroke="black" d="M62.12,-84.04C95.08,-73.48 149.82,-55.94 184.96,-44.68"/>
<polygon fill="black" stroke="black" points="186.29,-47.93 194.75,-41.54 184.16,-41.26 186.29,-47.93"/>
</g>
</g>
</svg>
