<?xml version="1.0" encoding="UTF-8" standalone="no"?>
<!DOCTYPE svg PUBLIC "-//W3C//DTD SVG 1.1//EN"
 "http://www.w3.org/Graphics/SVG/1.1/DTD/svg11.dtd">
<!-- Generated by graphviz version 2.43.0 (0)
 -->
<!-- Title: example06 Pages: 1 -->
<svg width="280pt" height="116pt"
 viewBox="0.00 0.00 280.09 116.00" xmlns="http://www.w3.org/2000/svg" xmlns:xlink="http://www.w3.org/1999/xlink">
<g id="graph0" class="graph" transform="scale(1 1) rotate(0) translate(4 112)">
<title>example06</title>
<polygon fill="white" stroke="transparent" points="-4,4 -4,-112 276.09,-112 276.09,4 -4,4"/>
<!-- NODE_1 -->
<g id="node1" class="node">
<title>NODE_1</title>
<ellipse fill="none" stroke="black" cx="50.05" cy="-90" rx="50.09" ry="18"/>
<text text-anchor="middle" x="50.05" y="-86.3" font-family="Times,serif" font-size="14.00">NODE_1</text>
</g>
<!-- NODE_3 -->
<g id="node2" class="node">
<title>NODE_3</title>
<ellipse fill="none" stroke="black" cx="136.05" cy="-18" rx="50.09" ry="18"/>
<text text-anchor="middle" x="136.05" y="-14.3" font-family="Times,serif" font-size="14.00">NODE_3</text>
</g>
<!-- NODE_1&#45;&gt;NODE_3 -->
<g id="edge1" class="edge">
<title>NODE_1&#45;&gt;NODE_3</title>
<path fill="none" stroke="black" d="M69.56,-73.12C81.11,-63.72 95.91,-51.67 108.62,-41.33"/>
<polygon fill="black" stroke="black" points="111.06,-43.85 116.61,-34.82 106.64,-38.42 111.06,-43.85"/>
</g>
<!-- NODE_2 -->
<g id="node3" class="node">
<title>NODE_2</title>
<ellipse fill="none" stroke="black" cx="222.05" cy="-90" rx="50.09" ry="18"/>
<text text-anchor="middle" x="222.05" y="-86.3" font-family="Times,serif" font-size="14.00">NODE_2</text>
</g>
<!-- NODE_2&#45;&gt;NODE_3 -->
<g id="edge2" class="edge">
<title>NODE_2&#45;&gt;NODE_3</title>
<path fill="none" stroke="black" d="M202.53,-73.12C190.99,-63.72 176.18,-51.67 163.47,-41.33"/>
<polygon fill="black" stroke="black" points="165.45,-38.42 155.48,-34.82 161.03,-43.85 165.45,-38.42"/>
</g>
</g>
</svg>
