<?xml version="1.0" encoding="utf-8" standalone="no"?>
<!DOCTYPE svg PUBLIC "-//W3C//DTD SVG 1.1//EN"
  "http://www.w3.org/Graphics/SVG/1.1/DTD/svg11.dtd">
<!-- Created with matplotlib (https://matplotlib.org/) -->
<svg height="453.6pt" version="1.1" viewBox="0 0 806.4 453.6" width="806.4pt" xmlns="http://www.w3.org/2000/svg" xmlns:xlink="http://www.w3.org/1999/xlink">
 <defs>
  <style type="text/css">
*{stroke-linecap:butt;stroke-linejoin:round;}
  </style>
 </defs>
 <g id="figure_1">
  <g id="patch_1">
   <path d="M 0 453.6 
L 806.4 453.6 
L 806.4 0 
L 0 0 
z
" style="fill:#ffffff;"/>
  </g>
  <g id="axes_1">
   <g id="patch_2">
    <path d="M 100.8 396.9 
L 725.76 396.9 
L 725.76 54.432 
L 100.8 54.432 
z
" style="fill:#ffffff;"/>
   </g>
   <g id="matplotlib.axis_1">
    <g id="xtick_1">
     <g id="line2d_1">
      <path clip-path="url(#p84065e16c6)" d="M 129.207273 396.9 
L 129.207273 54.432 
" style="fill:none;stroke:#cccccc;stroke-linecap:round;"/>
     </g>
     <g id="text_1">
      <!-- 0.0 -->
      <defs>
       <path d="M 31.78125 66.40625 
Q 24.171875 66.40625 20.328125 58.90625 
Q 16.5 51.421875 16.5 36.375 
Q 16.5 21.390625 20.328125 13.890625 
Q 24.171875 6.390625 31.78125 6.390625 
Q 39.453125 6.390625 43.28125 13.890625 
Q 47.125 21.390625 47.125 36.375 
Q 47.125 51.421875 43.28125 58.90625 
Q 39.453125 66.40625 31.78125 66.40625 
z
M 31.78125 74.21875 
Q 44.046875 74.21875 50.515625 64.515625 
Q 56.984375 54.828125 56.984375 36.375 
Q 56.984375 17.96875 50.515625 8.265625 
Q 44.046875 -1.421875 31.78125 -1.421875 
Q 19.53125 -1.421875 13.0625 8.265625 
Q 6.59375 17.96875 6.59375 36.375 
Q 6.59375 54.828125 13.0625 64.515625 
Q 19.53125 74.21875 31.78125 74.21875 
z
" id="DejaVuSans-48"/>
       <path d="M 10.6875 12.40625 
L 21 12.40625 
L 21 0 
L 10.6875 0 
z
" id="DejaVuSans-46"/>
      </defs>
      <g style="fill:#262626;" transform="translate(120.460554 414.758281)scale(0.11 -0.11)">
       <use xlink:href="#DejaVuSans-48"/>
       <use x="63.623047" xlink:href="#DejaVuSans-46"/>
       <use x="95.410156" xlink:href="#DejaVuSans-48"/>
      </g>
     </g>
    </g>
    <g id="xtick_2">
     <g id="line2d_2">
      <path clip-path="url(#p84065e16c6)" d="M 242.836364 396.9 
L 242.836364 54.432 
" style="fill:none;stroke:#cccccc;stroke-linecap:round;"/>
     </g>
     <g id="text_2">
      <!-- 0.2 -->
      <defs>
       <path d="M 19.1875 8.296875 
L 53.609375 8.296875 
L 53.609375 0 
L 7.328125 0 
L 7.328125 8.296875 
Q 12.9375 14.109375 22.625 23.890625 
Q 32.328125 33.6875 34.8125 36.53125 
Q 39.546875 41.84375 41.421875 45.53125 
Q 43.3125 49.21875 43.3125 52.78125 
Q 43.3125 58.59375 39.234375 62.25 
Q 35.15625 65.921875 28.609375 65.921875 
Q 23.96875 65.921875 18.8125 64.3125 
Q 13.671875 62.703125 7.8125 59.421875 
L 7.8125 69.390625 
Q 13.765625 71.78125 18.9375 73 
Q 24.125 74.21875 28.421875 74.21875 
Q 39.75 74.21875 46.484375 68.546875 
Q 53.21875 62.890625 53.21875 53.421875 
Q 53.21875 48.921875 51.53125 44.890625 
Q 49.859375 40.875 45.40625 35.40625 
Q 44.1875 33.984375 37.640625 27.21875 
Q 31.109375 20.453125 19.1875 8.296875 
z
" id="DejaVuSans-50"/>
      </defs>
      <g style="fill:#262626;" transform="translate(234.089645 414.758281)scale(0.11 -0.11)">
       <use xlink:href="#DejaVuSans-48"/>
       <use x="63.623047" xlink:href="#DejaVuSans-46"/>
       <use x="95.410156" xlink:href="#DejaVuSans-50"/>
      </g>
     </g>
    </g>
    <g id="xtick_3">
     <g id="line2d_3">
      <path clip-path="url(#p84065e16c6)" d="M 356.465455 396.9 
L 356.465455 54.432 
" style="fill:none;stroke:#cccccc;stroke-linecap:round;"/>
     </g>
     <g id="text_3">
      <!-- 0.4 -->
      <defs>
       <path d="M 37.796875 64.3125 
L 12.890625 25.390625 
L 37.796875 25.390625 
z
M 35.203125 72.90625 
L 47.609375 72.90625 
L 47.609375 25.390625 
L 58.015625 25.390625 
L 58.015625 17.1875 
L 47.609375 17.1875 
L 47.609375 0 
L 37.796875 0 
L 37.796875 17.1875 
L 4.890625 17.1875 
L 4.890625 26.703125 
z
" id="DejaVuSans-52"/>
      </defs>
      <g style="fill:#262626;" transform="translate(347.718736 414.758281)scale(0.11 -0.11)">
       <use xlink:href="#DejaVuSans-48"/>
       <use x="63.623047" xlink:href="#DejaVuSans-46"/>
       <use x="95.410156" xlink:href="#DejaVuSans-52"/>
      </g>
     </g>
    </g>
    <g id="xtick_4">
     <g id="line2d_4">
      <path clip-path="url(#p84065e16c6)" d="M 470.094545 396.9 
L 470.094545 54.432 
" style="fill:none;stroke:#cccccc;stroke-linecap:round;"/>
     </g>
     <g id="text_4">
      <!-- 0.6 -->
      <defs>
       <path d="M 33.015625 40.375 
Q 26.375 40.375 22.484375 35.828125 
Q 18.609375 31.296875 18.609375 23.390625 
Q 18.609375 15.53125 22.484375 10.953125 
Q 26.375 6.390625 33.015625 6.390625 
Q 39.65625 6.390625 43.53125 10.953125 
Q 47.40625 15.53125 47.40625 23.390625 
Q 47.40625 31.296875 43.53125 35.828125 
Q 39.65625 40.375 33.015625 40.375 
z
M 52.59375 71.296875 
L 52.59375 62.3125 
Q 48.875 64.0625 45.09375 64.984375 
Q 41.3125 65.921875 37.59375 65.921875 
Q 27.828125 65.921875 22.671875 59.328125 
Q 17.53125 52.734375 16.796875 39.40625 
Q 19.671875 43.65625 24.015625 45.921875 
Q 28.375 48.1875 33.59375 48.1875 
Q 44.578125 48.1875 50.953125 41.515625 
Q 57.328125 34.859375 57.328125 23.390625 
Q 57.328125 12.15625 50.6875 5.359375 
Q 44.046875 -1.421875 33.015625 -1.421875 
Q 20.359375 -1.421875 13.671875 8.265625 
Q 6.984375 17.96875 6.984375 36.375 
Q 6.984375 53.65625 15.1875 63.9375 
Q 23.390625 74.21875 37.203125 74.21875 
Q 40.921875 74.21875 44.703125 73.484375 
Q 48.484375 72.75 52.59375 71.296875 
z
" id="DejaVuSans-54"/>
      </defs>
      <g style="fill:#262626;" transform="translate(461.347827 414.758281)scale(0.11 -0.11)">
       <use xlink:href="#DejaVuSans-48"/>
       <use x="63.623047" xlink:href="#DejaVuSans-46"/>
       <use x="95.410156" xlink:href="#DejaVuSans-54"/>
      </g>
     </g>
    </g>
    <g id="xtick_5">
     <g id="line2d_5">
      <path clip-path="url(#p84065e16c6)" d="M 583.723636 396.9 
L 583.723636 54.432 
" style="fill:none;stroke:#cccccc;stroke-linecap:round;"/>
     </g>
     <g id="text_5">
      <!-- 0.8 -->
      <defs>
       <path d="M 31.78125 34.625 
Q 24.75 34.625 20.71875 30.859375 
Q 16.703125 27.09375 16.703125 20.515625 
Q 16.703125 13.921875 20.71875 10.15625 
Q 24.75 6.390625 31.78125 6.390625 
Q 38.8125 6.390625 42.859375 10.171875 
Q 46.921875 13.96875 46.921875 20.515625 
Q 46.921875 27.09375 42.890625 30.859375 
Q 38.875 34.625 31.78125 34.625 
z
M 21.921875 38.8125 
Q 15.578125 40.375 12.03125 44.71875 
Q 8.5 49.078125 8.5 55.328125 
Q 8.5 64.0625 14.71875 69.140625 
Q 20.953125 74.21875 31.78125 74.21875 
Q 42.671875 74.21875 48.875 69.140625 
Q 55.078125 64.0625 55.078125 55.328125 
Q 55.078125 49.078125 51.53125 44.71875 
Q 48 40.375 41.703125 38.8125 
Q 48.828125 37.15625 52.796875 32.3125 
Q 56.78125 27.484375 56.78125 20.515625 
Q 56.78125 9.90625 50.3125 4.234375 
Q 43.84375 -1.421875 31.78125 -1.421875 
Q 19.734375 -1.421875 13.25 4.234375 
Q 6.78125 9.90625 6.78125 20.515625 
Q 6.78125 27.484375 10.78125 32.3125 
Q 14.796875 37.15625 21.921875 38.8125 
z
M 18.3125 54.390625 
Q 18.3125 48.734375 21.84375 45.5625 
Q 25.390625 42.390625 31.78125 42.390625 
Q 38.140625 42.390625 41.71875 45.5625 
Q 45.3125 48.734375 45.3125 54.390625 
Q 45.3125 60.0625 41.71875 63.234375 
Q 38.140625 66.40625 31.78125 66.40625 
Q 25.390625 66.40625 21.84375 63.234375 
Q 18.3125 60.0625 18.3125 54.390625 
z
" id="DejaVuSans-56"/>
      </defs>
      <g style="fill:#262626;" transform="translate(574.976918 414.758281)scale(0.11 -0.11)">
       <use xlink:href="#DejaVuSans-48"/>
       <use x="63.623047" xlink:href="#DejaVuSans-46"/>
       <use x="95.410156" xlink:href="#DejaVuSans-56"/>
      </g>
     </g>
    </g>
    <g id="xtick_6">
     <g id="line2d_6">
      <path clip-path="url(#p84065e16c6)" d="M 697.352727 396.9 
L 697.352727 54.432 
" style="fill:none;stroke:#cccccc;stroke-linecap:round;"/>
     </g>
     <g id="text_6">
      <!-- 1.0 -->
      <defs>
       <path d="M 12.40625 8.296875 
L 28.515625 8.296875 
L 28.515625 63.921875 
L 10.984375 60.40625 
L 10.984375 69.390625 
L 28.421875 72.90625 
L 38.28125 72.90625 
L 38.28125 8.296875 
L 54.390625 8.296875 
L 54.390625 0 
L 12.40625 0 
z
" id="DejaVuSans-49"/>
      </defs>
      <g style="fill:#262626;" transform="translate(688.606009 414.758281)scale(0.11 -0.11)">
       <use xlink:href="#DejaVuSans-49"/>
       <use x="63.623047" xlink:href="#DejaVuSans-46"/>
       <use x="95.410156" xlink:href="#DejaVuSans-48"/>
      </g>
     </g>
    </g>
   </g>
   <g id="matplotlib.axis_2">
    <g id="ytick_1">
     <g id="line2d_7">
      <path clip-path="url(#p84065e16c6)" d="M 100.8 364.161753 
L 725.76 364.161753 
" style="fill:none;stroke:#cccccc;stroke-linecap:round;"/>
     </g>
     <g id="text_7">
      <!-- 0.0025 -->
      <defs>
       <path d="M 10.796875 72.90625 
L 49.515625 72.90625 
L 49.515625 64.59375 
L 19.828125 64.59375 
L 19.828125 46.734375 
Q 21.96875 47.46875 24.109375 47.828125 
Q 26.265625 48.1875 28.421875 48.1875 
Q 40.625 48.1875 47.75 41.5 
Q 54.890625 34.8125 54.890625 23.390625 
Q 54.890625 11.625 47.5625 5.09375 
Q 40.234375 -1.421875 26.90625 -1.421875 
Q 22.3125 -1.421875 17.546875 -0.640625 
Q 12.796875 0.140625 7.71875 1.703125 
L 7.71875 11.625 
Q 12.109375 9.234375 16.796875 8.0625 
Q 21.484375 6.890625 26.703125 6.890625 
Q 35.15625 6.890625 40.078125 11.328125 
Q 45.015625 15.765625 45.015625 23.390625 
Q 45.015625 31 40.078125 35.4375 
Q 35.15625 39.890625 26.703125 39.890625 
Q 22.75 39.890625 18.8125 39.015625 
Q 14.890625 38.140625 10.796875 36.28125 
z
" id="DejaVuSans-53"/>
      </defs>
      <g style="fill:#262626;" transform="translate(52.810312 368.340893)scale(0.11 -0.11)">
       <use xlink:href="#DejaVuSans-48"/>
       <use x="63.623047" xlink:href="#DejaVuSans-46"/>
       <use x="95.410156" xlink:href="#DejaVuSans-48"/>
       <use x="159.033203" xlink:href="#DejaVuSans-48"/>
       <use x="222.65625" xlink:href="#DejaVuSans-50"/>
       <use x="286.279297" xlink:href="#DejaVuSans-53"/>
      </g>
     </g>
    </g>
    <g id="ytick_2">
     <g id="line2d_8">
      <path clip-path="url(#p84065e16c6)" d="M 100.8 324.53731 
L 725.76 324.53731 
" style="fill:none;stroke:#cccccc;stroke-linecap:round;"/>
     </g>
     <g id="text_8">
      <!-- 0.0050 -->
      <g style="fill:#262626;" transform="translate(52.810312 328.71645)scale(0.11 -0.11)">
       <use xlink:href="#DejaVuSans-48"/>
       <use x="63.623047" xlink:href="#DejaVuSans-46"/>
       <use x="95.410156" xlink:href="#DejaVuSans-48"/>
       <use x="159.033203" xlink:href="#DejaVuSans-48"/>
       <use x="222.65625" xlink:href="#DejaVuSans-53"/>
       <use x="286.279297" xlink:href="#DejaVuSans-48"/>
      </g>
     </g>
    </g>
    <g id="ytick_3">
     <g id="line2d_9">
      <path clip-path="url(#p84065e16c6)" d="M 100.8 284.912866 
L 725.76 284.912866 
" style="fill:none;stroke:#cccccc;stroke-linecap:round;"/>
     </g>
     <g id="text_9">
      <!-- 0.0075 -->
      <defs>
       <path d="M 8.203125 72.90625 
L 55.078125 72.90625 
L 55.078125 68.703125 
L 28.609375 0 
L 18.3125 0 
L 43.21875 64.59375 
L 8.203125 64.59375 
z
" id="DejaVuSans-55"/>
      </defs>
      <g style="fill:#262626;" transform="translate(52.810312 289.092007)scale(0.11 -0.11)">
       <use xlink:href="#DejaVuSans-48"/>
       <use x="63.623047" xlink:href="#DejaVuSans-46"/>
       <use x="95.410156" xlink:href="#DejaVuSans-48"/>
       <use x="159.033203" xlink:href="#DejaVuSans-48"/>
       <use x="222.65625" xlink:href="#DejaVuSans-55"/>
       <use x="286.279297" xlink:href="#DejaVuSans-53"/>
      </g>
     </g>
    </g>
    <g id="ytick_4">
     <g id="line2d_10">
      <path clip-path="url(#p84065e16c6)" d="M 100.8 245.288423 
L 725.76 245.288423 
" style="fill:none;stroke:#cccccc;stroke-linecap:round;"/>
     </g>
     <g id="text_10">
      <!-- 0.0100 -->
      <g style="fill:#262626;" transform="translate(52.810312 249.467564)scale(0.11 -0.11)">
       <use xlink:href="#DejaVuSans-48"/>
       <use x="63.623047" xlink:href="#DejaVuSans-46"/>
       <use x="95.410156" xlink:href="#DejaVuSans-48"/>
       <use x="159.033203" xlink:href="#DejaVuSans-49"/>
       <use x="222.65625" xlink:href="#DejaVuSans-48"/>
       <use x="286.279297" xlink:href="#DejaVuSans-48"/>
      </g>
     </g>
    </g>
    <g id="ytick_5">
     <g id="line2d_11">
      <path clip-path="url(#p84065e16c6)" d="M 100.8 205.66398 
L 725.76 205.66398 
" style="fill:none;stroke:#cccccc;stroke-linecap:round;"/>
     </g>
     <g id="text_11">
      <!-- 0.0125 -->
      <g style="fill:#262626;" transform="translate(52.810312 209.843121)scale(0.11 -0.11)">
       <use xlink:href="#DejaVuSans-48"/>
       <use x="63.623047" xlink:href="#DejaVuSans-46"/>
       <use x="95.410156" xlink:href="#DejaVuSans-48"/>
       <use x="159.033203" xlink:href="#DejaVuSans-49"/>
       <use x="222.65625" xlink:href="#DejaVuSans-50"/>
       <use x="286.279297" xlink:href="#DejaVuSans-53"/>
      </g>
     </g>
    </g>
    <g id="ytick_6">
     <g id="line2d_12">
      <path clip-path="url(#p84065e16c6)" d="M 100.8 166.039537 
L 725.76 166.039537 
" style="fill:none;stroke:#cccccc;stroke-linecap:round;"/>
     </g>
     <g id="text_12">
      <!-- 0.0150 -->
      <g style="fill:#262626;" transform="translate(52.810312 170.218678)scale(0.11 -0.11)">
       <use xlink:href="#DejaVuSans-48"/>
       <use x="63.623047" xlink:href="#DejaVuSans-46"/>
       <use x="95.410156" xlink:href="#DejaVuSans-48"/>
       <use x="159.033203" xlink:href="#DejaVuSans-49"/>
       <use x="222.65625" xlink:href="#DejaVuSans-53"/>
       <use x="286.279297" xlink:href="#DejaVuSans-48"/>
      </g>
     </g>
    </g>
    <g id="ytick_7">
     <g id="line2d_13">
      <path clip-path="url(#p84065e16c6)" d="M 100.8 126.415094 
L 725.76 126.415094 
" style="fill:none;stroke:#cccccc;stroke-linecap:round;"/>
     </g>
     <g id="text_13">
      <!-- 0.0175 -->
      <g style="fill:#262626;" transform="translate(52.810312 130.594234)scale(0.11 -0.11)">
       <use xlink:href="#DejaVuSans-48"/>
       <use x="63.623047" xlink:href="#DejaVuSans-46"/>
       <use x="95.410156" xlink:href="#DejaVuSans-48"/>
       <use x="159.033203" xlink:href="#DejaVuSans-49"/>
       <use x="222.65625" xlink:href="#DejaVuSans-55"/>
       <use x="286.279297" xlink:href="#DejaVuSans-53"/>
      </g>
     </g>
    </g>
    <g id="ytick_8">
     <g id="line2d_14">
      <path clip-path="url(#p84065e16c6)" d="M 100.8 86.790651 
L 725.76 86.790651 
" style="fill:none;stroke:#cccccc;stroke-linecap:round;"/>
     </g>
     <g id="text_14">
      <!-- 0.0200 -->
      <g style="fill:#262626;" transform="translate(52.810312 90.969791)scale(0.11 -0.11)">
       <use xlink:href="#DejaVuSans-48"/>
       <use x="63.623047" xlink:href="#DejaVuSans-46"/>
       <use x="95.410156" xlink:href="#DejaVuSans-48"/>
       <use x="159.033203" xlink:href="#DejaVuSans-50"/>
       <use x="222.65625" xlink:href="#DejaVuSans-48"/>
       <use x="286.279297" xlink:href="#DejaVuSans-48"/>
      </g>
     </g>
    </g>
   </g>
   <g id="line2d_15">
    <path clip-path="url(#p84065e16c6)" d="M 129.207273 381.109118 
L 134.946116 379.814305 
L 140.684959 379.291863 
L 146.423802 378.222858 
L 152.162645 376.949199 
L 157.901488 375.915154 
L 163.640331 374.790055 
L 169.379174 373.666643 
L 175.118017 371.824897 
L 180.85686 370.940087 
L 186.595702 369.873019 
L 192.334545 368.295623 
L 198.073388 366.560298 
L 203.812231 365.212112 
L 209.551074 363.55119 
L 215.289917 362.201923 
L 221.02876 360.652281 
L 226.767603 358.545038 
L 232.506446 356.318104 
L 238.245289 354.181314 
L 243.984132 351.910228 
L 249.722975 351.137666 
L 255.461818 347.775683 
L 261.200661 345.460042 
L 266.939504 342.361457 
L 272.678347 340.74549 
L 278.41719 338.417769 
L 284.156033 335.794209 
L 289.894876 332.905115 
L 295.633719 329.710521 
L 301.372562 326.288357 
L 307.111405 324.804322 
L 312.850248 320.251608 
L 318.589091 316.780788 
L 324.327934 313.714777 
L 330.066777 307.906849 
L 335.80562 305.297762 
L 341.544463 302.790771 
L 347.283306 297.969352 
L 353.022149 291.065437 
L 358.760992 287.667202 
L 364.499835 284.883325 
L 370.238678 279.494132 
L 375.977521 274.838358 
L 381.716364 267.764365 
L 387.455207 263.781846 
L 393.19405 259.647401 
L 398.932893 254.124916 
L 404.671736 245.433555 
L 410.410579 241.822921 
L 416.149421 234.338557 
L 421.888264 229.000383 
L 427.627107 223.235687 
L 433.36595 215.66161 
L 439.104793 208.272568 
L 444.843636 202.0557 
L 450.582479 195.965989 
L 456.321322 187.187317 
L 462.060165 181.315032 
L 467.799008 172.570265 
L 473.537851 164.570357 
L 479.276694 159.398572 
L 485.015537 152.853203 
L 490.75438 144.062784 
L 496.493223 138.545045 
L 502.232066 132.891479 
L 507.970909 129.082486 
L 513.709752 116.137487 
L 519.448595 103.324428 
L 525.187438 109.253728 
L 530.926281 100.930595 
L 536.665124 92.179347 
L 542.403967 90.298449 
L 548.14281 85.567648 
L 553.881653 75.642726 
L 559.620496 74.659278 
L 565.359339 72.362258 
L 571.098182 72.818792 
L 576.837025 72.987527 
L 582.575868 73.294827 
L 588.314711 69.998727 
L 594.053554 74.264569 
L 599.792397 80.435816 
L 605.53124 88.124175 
L 611.270083 94.871333 
L 617.008926 105.64415 
L 622.747769 119.154522 
L 628.486612 128.979628 
L 634.225455 144.882623 
L 639.964298 156.502576 
L 645.70314 174.563908 
L 651.441983 190.677974 
L 657.180826 209.443219 
L 662.919669 232.081066 
L 668.658512 251.590011 
L 674.397355 276.07914 
L 680.136198 299.528043 
L 685.875041 322.654099 
L 691.613884 347.108042 
L 697.352727 381.333273 
" style="fill:none;stroke:#4c72b0;stroke-linecap:round;stroke-width:1.5;"/>
   </g>
   <g id="line2d_16">
    <path clip-path="url(#p84065e16c6)" d="M 129.207273 365.126688 
L 134.946116 363.4827 
L 140.684959 362.825699 
L 146.423802 361.492156 
L 152.162645 359.921367 
L 157.901488 358.659773 
L 163.640331 357.300306 
L 169.379174 355.955974 
L 175.118017 353.778791 
L 180.85686 352.744047 
L 186.595702 351.50538 
L 192.334545 349.691989 
L 198.073388 347.720155 
L 203.812231 346.204067 
L 209.551074 344.354372 
L 215.289917 342.865783 
L 221.02876 341.17094 
L 226.767603 338.890441 
L 232.506446 336.509085 
L 238.245289 334.250258 
L 243.984132 331.875968 
L 249.722975 331.074262 
L 255.461818 327.618965 
L 261.200661 325.26923 
L 266.939504 322.16114 
L 272.678347 320.55583 
L 278.41719 318.261403 
L 284.156033 315.699706 
L 289.894876 312.907151 
L 295.633719 309.852218 
L 301.372562 306.615974 
L 307.111405 305.223726 
L 312.850248 300.992672 
L 318.589091 297.805763 
L 324.327934 295.016915 
L 330.066777 289.79802 
L 335.80562 287.479444 
L 341.544463 285.266022 
L 347.283306 281.04733 
L 353.022149 275.089046 
L 358.760992 272.189964 
L 364.499835 269.830786 
L 370.238678 265.30253 
L 375.977521 261.429941 
L 381.716364 255.612039 
L 387.455207 252.370063 
L 393.19405 249.028709 
L 398.932893 244.602679 
L 404.671736 237.718566 
L 410.410579 234.886676 
L 416.149421 229.066186 
L 421.888264 224.95403 
L 427.627107 220.548408 
L 433.36595 214.813016 
L 439.104793 209.27313 
L 444.843636 204.652538 
L 450.582479 200.160851 
L 456.321322 193.743223 
L 462.060165 189.486626 
L 467.799008 183.199498 
L 473.537851 177.499796 
L 479.276694 173.840434 
L 485.015537 169.236795 
L 490.75438 163.101028 
L 496.493223 159.276165 
L 502.232066 155.377723 
L 507.970909 152.762686 
L 513.709752 143.942117 
L 519.448595 135.308682 
L 525.187438 139.292158 
L 530.926281 133.706018 
L 536.665124 127.873776 
L 542.403967 126.625635 
L 548.14281 123.494571 
L 553.881653 116.963292 
L 559.620496 116.318826 
L 565.359339 114.81543 
L 571.098182 115.114023 
L 576.837025 115.224409 
L 582.575868 115.42548 
L 588.314711 113.27122 
L 594.053554 116.060303 
L 599.792397 120.111214 
L 605.53124 125.185143 
L 611.270083 129.663429 
L 617.008926 136.864777 
L 622.747769 145.988861 
L 628.486612 152.692196 
L 634.225455 163.67106 
L 639.964298 171.799801 
L 645.70314 184.627536 
L 651.441983 196.287124 
L 657.180826 210.147281 
L 662.919669 227.323278 
L 668.658512 242.584789 
L 674.397355 262.458534 
L 680.136198 282.405807 
L 685.875041 303.21803 
L 691.613884 326.939044 
L 697.352727 365.413645 
" style="fill:none;stroke:#dd8452;stroke-linecap:round;stroke-width:1.5;"/>
   </g>
   <g id="line2d_17">
    <path clip-path="url(#p84065e16c6)" d="M 129.207273 351.223301 
L 134.946116 349.442597 
L 140.684959 348.735046 
L 146.423802 347.305823 
L 152.162645 345.633832 
L 157.901488 344.299623 
L 163.640331 342.870229 
L 169.379174 341.464948 
L 175.118017 339.205656 
L 180.85686 338.138819 
L 186.595702 336.867402 
L 192.334545 335.01686 
L 198.073388 333.018651 
L 203.812231 331.49184 
L 209.551074 329.639899 
L 215.289917 328.157869 
L 221.02876 326.479279 
L 226.767603 324.234901 
L 232.506446 321.908034 
L 238.245289 319.716074 
L 243.984132 317.427365 
L 249.722975 316.657989 
L 255.461818 313.361147 
L 261.200661 311.13628 
L 266.939504 308.213681 
L 272.678347 306.712924 
L 278.41719 304.577933 
L 284.156033 302.207727 
L 289.894876 299.639566 
L 295.633719 296.848113 
L 301.372562 293.910718 
L 307.111405 292.653082 
L 312.850248 288.852645 
L 318.589091 286.010746 
L 324.327934 283.537818 
L 330.066777 278.943809 
L 335.80562 276.916423 
L 341.544463 274.988515 
L 347.283306 271.333773 
L 353.022149 266.214413 
L 358.760992 263.740753 
L 364.499835 261.735807 
L 370.238678 257.9071 
L 375.977521 254.652609 
L 381.716364 249.796312 
L 387.455207 247.106781 
L 393.19405 244.346831 
L 398.932893 240.709202 
L 404.671736 235.091196 
L 410.410579 232.793739 
L 416.149421 228.095672 
L 421.888264 224.795387 
L 427.627107 221.276369 
L 433.36595 216.720412 
L 439.104793 212.34595 
L 444.843636 208.716432 
L 450.582479 205.204284 
L 456.321322 200.212929 
L 462.060165 196.919175 
L 467.799008 192.077997 
L 473.537851 187.712956 
L 479.276694 184.922087 
L 485.015537 181.423626 
L 490.75438 176.782105 
L 496.493223 173.900703 
L 502.232066 170.973133 
L 507.970909 169.014499 
L 513.709752 162.437764 
L 519.448595 156.043674 
L 525.187438 158.988723 
L 530.926281 154.861268 
L 536.665124 150.570151 
L 542.403967 149.654189 
L 548.14281 147.360042 
L 553.881653 142.59094 
L 559.620496 142.121539 
L 565.359339 141.027348 
L 571.098182 141.244578 
L 576.837025 141.324896 
L 582.575868 141.471213 
L 588.314711 139.904637 
L 594.053554 141.933302 
L 599.792397 144.886793 
L 605.53124 148.598093 
L 611.270083 151.884955 
L 617.008926 157.193073 
L 622.747769 163.959811 
L 628.486612 168.961759 
L 634.225455 177.212311 
L 639.964298 183.369629 
L 645.70314 193.175157 
L 651.441983 202.187765 
L 657.180826 213.034532 
L 662.919669 226.694994 
L 668.658512 239.057491 
L 674.397355 255.515284 
L 680.136198 272.507867 
L 685.875041 290.847532 
L 691.613884 312.715964 
L 697.352727 351.535659 
" style="fill:none;stroke:#55a868;stroke-linecap:round;stroke-width:1.5;"/>
   </g>
   <g id="line2d_18">
    <path clip-path="url(#p84065e16c6)" d="M 129.207273 325.999588 
L 134.946116 324.252546 
L 140.684959 323.563686 
L 146.423802 322.181149 
L 152.162645 320.578488 
L 157.901488 319.310597 
L 163.640331 317.962725 
L 169.379174 316.647831 
L 175.118017 314.554374 
L 180.85686 313.574351 
L 186.595702 312.413301 
L 192.334545 310.736448 
L 198.073388 308.942588 
L 203.812231 307.583279 
L 209.551074 305.947282 
L 215.289917 304.647856 
L 221.02876 303.186296 
L 226.767603 301.248517 
L 232.506446 299.258662 
L 238.245289 297.401351 
L 243.984132 295.479207 
L 249.722975 294.836883 
L 255.461818 292.105576 
L 261.200661 290.281108 
L 266.939504 287.906506 
L 272.678347 286.696569 
L 278.41719 284.985986 
L 284.156033 283.101253 
L 289.894876 281.075582 
L 295.633719 278.892579 
L 301.372562 276.615856 
L 307.111405 275.647303 
L 312.850248 272.74238 
L 318.589091 270.591021 
L 324.327934 268.733022 
L 330.066777 265.314816 
L 335.80562 263.819701 
L 341.544463 262.405318 
L 347.283306 259.743276 
L 353.022149 256.055224 
L 358.760992 254.289601 
L 364.499835 252.866149 
L 370.238678 250.16634 
L 375.977521 247.889963 
L 381.716364 244.523728 
L 387.455207 242.674672 
L 393.19405 240.788168 
L 398.932893 238.318288 
L 404.671736 234.539531 
L 410.410579 233.006351 
L 416.149421 229.892353 
L 421.888264 227.721425 
L 427.627107 225.42126 
L 433.36595 222.465149 
L 439.104793 219.649304 
L 444.843636 217.329228 
L 450.582479 215.097838 
L 456.321322 211.949151 
L 462.060165 209.885447 
L 467.799008 206.871968 
L 473.537851 204.174508 
L 479.276694 202.459355 
L 485.015537 200.319608 
L 490.75438 197.497973 
L 496.493223 195.75601 
L 502.232066 193.993575 
L 507.970909 192.818575 
L 513.709752 188.896809 
L 519.448595 185.11797 
L 525.187438 186.854373 
L 530.926281 184.422761 
L 536.665124 181.908936 
L 542.403967 181.374192 
L 548.14281 180.037666 
L 553.881653 177.27196 
L 559.620496 177.000658 
L 565.359339 176.368872 
L 571.098182 176.49423 
L 576.837025 176.540589 
L 582.575868 176.625054 
L 588.314711 175.721529 
L 594.053554 176.891907 
L 599.792397 178.601254 
L 605.53124 180.758433 
L 611.270083 182.677656 
L 617.008926 185.794833 
L 622.747769 189.801218 
L 628.486612 192.786981 
L 634.225455 197.758686 
L 639.964298 201.508436 
L 645.70314 207.552885 
L 651.441983 213.191822 
L 657.180826 220.091111 
L 662.919669 228.969341 
L 668.658512 237.20288 
L 674.397355 248.49174 
L 680.136198 260.595762 
L 685.875041 274.263142 
L 691.613884 291.574979 
L 697.352727 326.308062 
" style="fill:none;stroke:#c44e52;stroke-linecap:round;stroke-width:1.5;"/>
   </g>
   <g id="line2d_19">
    <path clip-path="url(#p84065e16c6)" d="M 129.207273 309.955608 
L 134.946116 308.379469 
L 140.684959 307.760382 
L 146.423802 306.521871 
L 152.162645 305.092711 
L 157.901488 303.966953 
L 163.640331 302.774801 
L 169.379174 301.61632 
L 175.118017 299.780857 
L 180.85686 298.925319 
L 186.595702 297.914749 
L 192.334545 296.460871 
L 198.073388 294.912777 
L 203.812231 293.744571 
L 209.551074 292.344034 
L 215.289917 291.235796 
L 221.02876 289.993609 
L 226.767603 288.35361 
L 232.506446 286.677582 
L 238.245289 285.120379 
L 243.984132 283.515957 
L 249.722975 282.981398 
L 255.461818 280.717054 
L 261.200661 279.212224 
L 266.939504 277.262665 
L 272.678347 276.273147 
L 278.41719 274.878538 
L 284.156033 273.347746 
L 289.894876 271.709131 
L 295.633719 269.950798 
L 301.372562 268.125142 
L 307.111405 267.350962 
L 312.850248 265.037724 
L 318.589091 263.33282 
L 324.327934 261.865932 
L 330.066777 259.180357 
L 335.80562 258.010918 
L 341.544463 256.907497 
L 347.283306 254.838171 
L 353.022149 251.986997 
L 358.760992 250.628337 
L 364.499835 249.535898 
L 370.238678 247.470954 
L 375.977521 245.736914 
L 381.716364 243.184217 
L 387.455207 241.78778 
L 393.19405 240.367186 
L 398.932893 238.513487 
L 404.671736 235.690768 
L 410.410579 234.549993 
L 416.149421 232.24084 
L 421.888264 230.637126 
L 427.627107 228.943327 
L 433.36595 226.774495 
L 439.104793 224.716779 
L 444.843636 223.02726 
L 450.582479 221.407276 
L 456.321322 219.129454 
L 462.060165 217.641603 
L 467.799008 215.476087 
L 473.537851 213.544684 
L 479.276694 212.320017 
L 485.015537 210.795826 
L 490.75438 208.792021 
L 496.493223 207.558376 
L 502.232066 206.312857 
L 507.970909 205.483935 
L 513.709752 202.725567 
L 519.448595 200.079608 
L 525.187438 201.294013 
L 530.926281 199.59407 
L 536.665124 197.841597 
L 542.403967 197.46945 
L 548.14281 196.540292 
L 553.881653 194.621955 
L 559.620496 194.434092 
L 565.359339 193.99683 
L 571.098182 194.083567 
L 576.837025 194.115646 
L 582.575868 194.174098 
L 588.314711 193.549116 
L 594.053554 194.358803 
L 599.792397 195.543239 
L 605.53124 197.041199 
L 611.270083 198.376968 
L 617.008926 200.552705 
L 622.747769 203.360557 
L 628.486612 205.461663 
L 634.225455 208.97688 
L 639.964298 211.642158 
L 645.70314 215.964671 
L 651.441983 220.027301 
L 657.180826 225.039113 
L 662.919669 231.558382 
L 668.658512 237.678621 
L 674.397355 246.194701 
L 680.136198 255.499798 
L 685.875041 266.247115 
L 691.613884 280.278785 
L 697.352727 310.234821 
" style="fill:none;stroke:#8172b3;stroke-linecap:round;stroke-width:1.5;"/>
   </g>
   <g id="patch_3">
    <path d="M 100.8 396.9 
L 100.8 54.432 
" style="fill:none;stroke:#cccccc;stroke-linecap:square;stroke-linejoin:miter;stroke-width:1.25;"/>
   </g>
   <g id="patch_4">
    <path d="M 725.76 396.9 
L 725.76 54.432 
" style="fill:none;stroke:#cccccc;stroke-linecap:square;stroke-linejoin:miter;stroke-width:1.25;"/>
   </g>
   <g id="patch_5">
    <path d="M 100.8 396.9 
L 725.76 396.9 
" style="fill:none;stroke:#cccccc;stroke-linecap:square;stroke-linejoin:miter;stroke-width:1.25;"/>
   </g>
   <g id="patch_6">
    <path d="M 100.8 54.432 
L 725.76 54.432 
" style="fill:none;stroke:#cccccc;stroke-linecap:square;stroke-linejoin:miter;stroke-width:1.25;"/>
   </g>
   <g id="legend_1">
    <g id="patch_7">
     <path d="M 108.5 146.832 
L 244.79 146.832 
Q 246.99 146.832 246.99 144.632 
L 246.99 62.132 
Q 246.99 59.932 244.79 59.932 
L 108.5 59.932 
Q 106.3 59.932 106.3 62.132 
L 106.3 144.632 
Q 106.3 146.832 108.5 146.832 
z
" style="fill:#ffffff;opacity:0.8;stroke:#cccccc;stroke-linejoin:miter;"/>
    </g>
    <g id="line2d_20">
     <path d="M 110.7 69.414344 
L 132.7 69.414344 
" style="fill:none;stroke:#4c72b0;stroke-linecap:round;stroke-width:1.5;"/>
    </g>
    <g id="line2d_21"/>
    <g id="text_15">
     <!-- $\mathrm{softmax}(\vec x, t=0.6)$ -->
     <defs>
      <path d="M 44.28125 53.078125 
L 44.28125 44.578125 
Q 40.484375 46.53125 36.375 47.5 
Q 32.28125 48.484375 27.875 48.484375 
Q 21.1875 48.484375 17.84375 46.4375 
Q 14.5 44.390625 14.5 40.28125 
Q 14.5 37.15625 16.890625 35.375 
Q 19.28125 33.59375 26.515625 31.984375 
L 29.59375 31.296875 
Q 39.15625 29.25 43.1875 25.515625 
Q 47.21875 21.78125 47.21875 15.09375 
Q 47.21875 7.46875 41.1875 3.015625 
Q 35.15625 -1.421875 24.609375 -1.421875 
Q 20.21875 -1.421875 15.453125 -0.5625 
Q 10.6875 0.296875 5.421875 2 
L 5.421875 11.28125 
Q 10.40625 8.6875 15.234375 7.390625 
Q 20.0625 6.109375 24.8125 6.109375 
Q 31.15625 6.109375 34.5625 8.28125 
Q 37.984375 10.453125 37.984375 14.40625 
Q 37.984375 18.0625 35.515625 20.015625 
Q 33.0625 21.96875 24.703125 23.78125 
L 21.578125 24.515625 
Q 13.234375 26.265625 9.515625 29.90625 
Q 5.8125 33.546875 5.8125 39.890625 
Q 5.8125 47.609375 11.28125 51.796875 
Q 16.75 56 26.8125 56 
Q 31.78125 56 36.171875 55.265625 
Q 40.578125 54.546875 44.28125 53.078125 
z
" id="DejaVuSans-115"/>
      <path d="M 30.609375 48.390625 
Q 23.390625 48.390625 19.1875 42.75 
Q 14.984375 37.109375 14.984375 27.296875 
Q 14.984375 17.484375 19.15625 11.84375 
Q 23.34375 6.203125 30.609375 6.203125 
Q 37.796875 6.203125 41.984375 11.859375 
Q 46.1875 17.53125 46.1875 27.296875 
Q 46.1875 37.015625 41.984375 42.703125 
Q 37.796875 48.390625 30.609375 48.390625 
z
M 30.609375 56 
Q 42.328125 56 49.015625 48.375 
Q 55.71875 40.765625 55.71875 27.296875 
Q 55.71875 13.875 49.015625 6.21875 
Q 42.328125 -1.421875 30.609375 -1.421875 
Q 18.84375 -1.421875 12.171875 6.21875 
Q 5.515625 13.875 5.515625 27.296875 
Q 5.515625 40.765625 12.171875 48.375 
Q 18.84375 56 30.609375 56 
z
" id="DejaVuSans-111"/>
      <path d="M 37.109375 75.984375 
L 37.109375 68.5 
L 28.515625 68.5 
Q 23.6875 68.5 21.796875 66.546875 
Q 19.921875 64.59375 19.921875 59.515625 
L 19.921875 54.6875 
L 34.71875 54.6875 
L 34.71875 47.703125 
L 19.921875 47.703125 
L 19.921875 0 
L 10.890625 0 
L 10.890625 47.703125 
L 2.296875 47.703125 
L 2.296875 54.6875 
L 10.890625 54.6875 
L 10.890625 58.5 
Q 10.890625 67.625 15.140625 71.796875 
Q 19.390625 75.984375 28.609375 75.984375 
z
" id="DejaVuSans-102"/>
      <path d="M 18.3125 70.21875 
L 18.3125 54.6875 
L 36.8125 54.6875 
L 36.8125 47.703125 
L 18.3125 47.703125 
L 18.3125 18.015625 
Q 18.3125 11.328125 20.140625 9.421875 
Q 21.96875 7.515625 27.59375 7.515625 
L 36.8125 7.515625 
L 36.8125 0 
L 27.59375 0 
Q 17.1875 0 13.234375 3.875 
Q 9.28125 7.765625 9.28125 18.015625 
L 9.28125 47.703125 
L 2.6875 47.703125 
L 2.6875 54.6875 
L 9.28125 54.6875 
L 9.28125 70.21875 
z
" id="DejaVuSans-116"/>
      <path d="M 52 44.1875 
Q 55.375 50.25 60.0625 53.125 
Q 64.75 56 71.09375 56 
Q 79.640625 56 84.28125 50.015625 
Q 88.921875 44.046875 88.921875 33.015625 
L 88.921875 0 
L 79.890625 0 
L 79.890625 32.71875 
Q 79.890625 40.578125 77.09375 44.375 
Q 74.3125 48.1875 68.609375 48.1875 
Q 61.625 48.1875 57.5625 43.546875 
Q 53.515625 38.921875 53.515625 30.90625 
L 53.515625 0 
L 44.484375 0 
L 44.484375 32.71875 
Q 44.484375 40.625 41.703125 44.40625 
Q 38.921875 48.1875 33.109375 48.1875 
Q 26.21875 48.1875 22.15625 43.53125 
Q 18.109375 38.875 18.109375 30.90625 
L 18.109375 0 
L 9.078125 0 
L 9.078125 54.6875 
L 18.109375 54.6875 
L 18.109375 46.1875 
Q 21.1875 51.21875 25.484375 53.609375 
Q 29.78125 56 35.6875 56 
Q 41.65625 56 45.828125 52.96875 
Q 50 49.953125 52 44.1875 
z
" id="DejaVuSans-109"/>
      <path d="M 34.28125 27.484375 
Q 23.390625 27.484375 19.1875 25 
Q 14.984375 22.515625 14.984375 16.5 
Q 14.984375 11.71875 18.140625 8.90625 
Q 21.296875 6.109375 26.703125 6.109375 
Q 34.1875 6.109375 38.703125 11.40625 
Q 43.21875 16.703125 43.21875 25.484375 
L 43.21875 27.484375 
z
M 52.203125 31.203125 
L 52.203125 0 
L 43.21875 0 
L 43.21875 8.296875 
Q 40.140625 3.328125 35.546875 0.953125 
Q 30.953125 -1.421875 24.3125 -1.421875 
Q 15.921875 -1.421875 10.953125 3.296875 
Q 6 8.015625 6 15.921875 
Q 6 25.140625 12.171875 29.828125 
Q 18.359375 34.515625 30.609375 34.515625 
L 43.21875 34.515625 
L 43.21875 35.40625 
Q 43.21875 41.609375 39.140625 45 
Q 35.0625 48.390625 27.6875 48.390625 
Q 23 48.390625 18.546875 47.265625 
Q 14.109375 46.140625 10.015625 43.890625 
L 10.015625 52.203125 
Q 14.9375 54.109375 19.578125 55.046875 
Q 24.21875 56 28.609375 56 
Q 40.484375 56 46.34375 49.84375 
Q 52.203125 43.703125 52.203125 31.203125 
z
" id="DejaVuSans-97"/>
      <path d="M 54.890625 54.6875 
L 35.109375 28.078125 
L 55.90625 0 
L 45.3125 0 
L 29.390625 21.484375 
L 13.484375 0 
L 2.875 0 
L 24.125 28.609375 
L 4.6875 54.6875 
L 15.28125 54.6875 
L 29.78125 35.203125 
L 44.28125 54.6875 
z
" id="DejaVuSans-120"/>
      <path d="M 31 75.875 
Q 24.46875 64.65625 21.28125 53.65625 
Q 18.109375 42.671875 18.109375 31.390625 
Q 18.109375 20.125 21.3125 9.0625 
Q 24.515625 -2 31 -13.1875 
L 23.1875 -13.1875 
Q 15.875 -1.703125 12.234375 9.375 
Q 8.59375 20.453125 8.59375 31.390625 
Q 8.59375 42.28125 12.203125 53.3125 
Q 15.828125 64.359375 23.1875 75.875 
z
" id="DejaVuSans-40"/>
      <path d="M -47.015625 63.53125 
L -47.015625 68.40625 
L -10.84375 68.40625 
L -17.28125 75.984375 
L -11.140625 75.984375 
L -2.59375 65.96875 
L -11.140625 55.953125 
L -17.28125 55.953125 
L -10.84375 63.53125 
z
" id="DejaVuSans-8407"/>
      <path d="M 60.015625 54.6875 
L 34.90625 27.875 
L 50.296875 0 
L 39.984375 0 
L 28.421875 21.6875 
L 8.296875 0 
L -2.59375 0 
L 24.3125 28.8125 
L 10.015625 54.6875 
L 20.3125 54.6875 
L 30.8125 34.90625 
L 49.125 54.6875 
z
" id="DejaVuSans-Oblique-120"/>
      <path d="M 11.71875 12.40625 
L 22.015625 12.40625 
L 22.015625 4 
L 14.015625 -11.625 
L 7.71875 -11.625 
L 11.71875 4 
z
" id="DejaVuSans-44"/>
      <path d="M 42.28125 54.6875 
L 40.921875 47.703125 
L 23 47.703125 
L 17.1875 18.015625 
Q 16.890625 16.359375 16.75 15.234375 
Q 16.609375 14.109375 16.609375 13.484375 
Q 16.609375 10.359375 18.484375 8.9375 
Q 20.359375 7.515625 24.515625 7.515625 
L 33.59375 7.515625 
L 32.078125 0 
L 23.484375 0 
Q 15.484375 0 11.546875 3.125 
Q 7.625 6.25 7.625 12.59375 
Q 7.625 13.71875 7.765625 15.0625 
Q 7.90625 16.40625 8.203125 18.015625 
L 14.015625 47.703125 
L 6.390625 47.703125 
L 7.8125 54.6875 
L 15.28125 54.6875 
L 18.3125 70.21875 
L 27.296875 70.21875 
L 24.3125 54.6875 
z
" id="DejaVuSans-Oblique-116"/>
      <path d="M 10.59375 45.40625 
L 73.1875 45.40625 
L 73.1875 37.203125 
L 10.59375 37.203125 
z
M 10.59375 25.484375 
L 73.1875 25.484375 
L 73.1875 17.1875 
L 10.59375 17.1875 
z
" id="DejaVuSans-61"/>
      <path d="M 8.015625 75.875 
L 15.828125 75.875 
Q 23.140625 64.359375 26.78125 53.3125 
Q 30.421875 42.28125 30.421875 31.390625 
Q 30.421875 20.453125 26.78125 9.375 
Q 23.140625 -1.703125 15.828125 -13.1875 
L 8.015625 -13.1875 
Q 14.5 -2 17.703125 9.0625 
Q 20.90625 20.125 20.90625 31.390625 
Q 20.90625 42.671875 17.703125 53.65625 
Q 14.5 64.65625 8.015625 75.875 
z
" id="DejaVuSans-41"/>
     </defs>
     <g style="fill:#262626;" transform="translate(141.5 73.264344)scale(0.11 -0.11)">
      <use transform="translate(0 0.78125)" xlink:href="#DejaVuSans-115"/>
      <use transform="translate(52.099609 0.78125)" xlink:href="#DejaVuSans-111"/>
      <use transform="translate(113.28125 0.78125)" xlink:href="#DejaVuSans-102"/>
      <use transform="translate(148.486328 0.78125)" xlink:href="#DejaVuSans-116"/>
      <use transform="translate(187.695312 0.78125)" xlink:href="#DejaVuSans-109"/>
      <use transform="translate(285.107422 0.78125)" xlink:href="#DejaVuSans-97"/>
      <use transform="translate(346.386719 0.78125)" xlink:href="#DejaVuSans-120"/>
      <use transform="translate(405.566406 0.78125)" xlink:href="#DejaVuSans-40"/>
      <use transform="translate(508.244141 12.015625)" xlink:href="#DejaVuSans-8407"/>
      <use transform="translate(444.580078 0.78125)" xlink:href="#DejaVuSans-Oblique-120"/>
      <use transform="translate(507.173828 0.78125)" xlink:href="#DejaVuSans-44"/>
      <use transform="translate(558.443359 0.78125)" xlink:href="#DejaVuSans-Oblique-116"/>
      <use transform="translate(617.134766 0.78125)" xlink:href="#DejaVuSans-61"/>
      <use transform="translate(720.40625 0.78125)" xlink:href="#DejaVuSans-48"/>
      <use transform="translate(784.029297 0.78125)" xlink:href="#DejaVuSans-46"/>
      <use transform="translate(815.816406 0.78125)" xlink:href="#DejaVuSans-54"/>
      <use transform="translate(879.439453 0.78125)" xlink:href="#DejaVuSans-41"/>
     </g>
    </g>
    <g id="line2d_22">
     <path d="M 110.7 86.134344 
L 132.7 86.134344 
" style="fill:none;stroke:#dd8452;stroke-linecap:round;stroke-width:1.5;"/>
    </g>
    <g id="line2d_23"/>
    <g id="text_16">
     <!-- $\mathrm{softmax}(\vec x, t=0.8)$ -->
     <g style="fill:#262626;" transform="translate(141.5 89.984344)scale(0.11 -0.11)">
      <use transform="translate(0 0.78125)" xlink:href="#DejaVuSans-115"/>
      <use transform="translate(52.099609 0.78125)" xlink:href="#DejaVuSans-111"/>
      <use transform="translate(113.28125 0.78125)" xlink:href="#DejaVuSans-102"/>
      <use transform="translate(148.486328 0.78125)" xlink:href="#DejaVuSans-116"/>
      <use transform="translate(187.695312 0.78125)" xlink:href="#DejaVuSans-109"/>
      <use transform="translate(285.107422 0.78125)" xlink:href="#DejaVuSans-97"/>
      <use transform="translate(346.386719 0.78125)" xlink:href="#DejaVuSans-120"/>
      <use transform="translate(405.566406 0.78125)" xlink:href="#DejaVuSans-40"/>
      <use transform="translate(508.244141 12.015625)" xlink:href="#DejaVuSans-8407"/>
      <use transform="translate(444.580078 0.78125)" xlink:href="#DejaVuSans-Oblique-120"/>
      <use transform="translate(507.173828 0.78125)" xlink:href="#DejaVuSans-44"/>
      <use transform="translate(558.443359 0.78125)" xlink:href="#DejaVuSans-Oblique-116"/>
      <use transform="translate(617.134766 0.78125)" xlink:href="#DejaVuSans-61"/>
      <use transform="translate(720.40625 0.78125)" xlink:href="#DejaVuSans-48"/>
      <use transform="translate(784.029297 0.78125)" xlink:href="#DejaVuSans-46"/>
      <use transform="translate(813.191406 0.78125)" xlink:href="#DejaVuSans-56"/>
      <use transform="translate(876.814453 0.78125)" xlink:href="#DejaVuSans-41"/>
     </g>
    </g>
    <g id="line2d_24">
     <path d="M 110.7 102.854344 
L 132.7 102.854344 
" style="fill:none;stroke:#55a868;stroke-linecap:round;stroke-width:1.5;"/>
    </g>
    <g id="line2d_25"/>
    <g id="text_17">
     <!-- $\mathrm{softmax}(\vec x, t=1.0)$ -->
     <g style="fill:#262626;" transform="translate(141.5 106.704344)scale(0.11 -0.11)">
      <use transform="translate(0 0.78125)" xlink:href="#DejaVuSans-115"/>
      <use transform="translate(52.099609 0.78125)" xlink:href="#DejaVuSans-111"/>
      <use transform="translate(113.28125 0.78125)" xlink:href="#DejaVuSans-102"/>
      <use transform="translate(148.486328 0.78125)" xlink:href="#DejaVuSans-116"/>
      <use transform="translate(187.695312 0.78125)" xlink:href="#DejaVuSans-109"/>
      <use transform="translate(285.107422 0.78125)" xlink:href="#DejaVuSans-97"/>
      <use transform="translate(346.386719 0.78125)" xlink:href="#DejaVuSans-120"/>
      <use transform="translate(405.566406 0.78125)" xlink:href="#DejaVuSans-40"/>
      <use transform="translate(508.244141 12.015625)" xlink:href="#DejaVuSans-8407"/>
      <use transform="translate(444.580078 0.78125)" xlink:href="#DejaVuSans-Oblique-120"/>
      <use transform="translate(507.173828 0.78125)" xlink:href="#DejaVuSans-44"/>
      <use transform="translate(558.443359 0.78125)" xlink:href="#DejaVuSans-Oblique-116"/>
      <use transform="translate(617.134766 0.78125)" xlink:href="#DejaVuSans-61"/>
      <use transform="translate(720.40625 0.78125)" xlink:href="#DejaVuSans-49"/>
      <use transform="translate(784.029297 0.78125)" xlink:href="#DejaVuSans-46"/>
      <use transform="translate(815.816406 0.78125)" xlink:href="#DejaVuSans-48"/>
      <use transform="translate(879.439453 0.78125)" xlink:href="#DejaVuSans-41"/>
     </g>
    </g>
    <g id="line2d_26">
     <path d="M 110.7 119.574344 
L 132.7 119.574344 
" style="fill:none;stroke:#c44e52;stroke-linecap:round;stroke-width:1.5;"/>
    </g>
    <g id="line2d_27"/>
    <g id="text_18">
     <!-- $\mathrm{softmax}(\vec x, t=1.5)$ -->
     <g style="fill:#262626;" transform="translate(141.5 123.424344)scale(0.11 -0.11)">
      <use transform="translate(0 0.78125)" xlink:href="#DejaVuSans-115"/>
      <use transform="translate(52.099609 0.78125)" xlink:href="#DejaVuSans-111"/>
      <use transform="translate(113.28125 0.78125)" xlink:href="#DejaVuSans-102"/>
      <use transform="translate(148.486328 0.78125)" xlink:href="#DejaVuSans-116"/>
      <use transform="translate(187.695312 0.78125)" xlink:href="#DejaVuSans-109"/>
      <use transform="translate(285.107422 0.78125)" xlink:href="#DejaVuSans-97"/>
      <use transform="translate(346.386719 0.78125)" xlink:href="#DejaVuSans-120"/>
      <use transform="translate(405.566406 0.78125)" xlink:href="#DejaVuSans-40"/>
      <use transform="translate(508.244141 12.015625)" xlink:href="#DejaVuSans-8407"/>
      <use transform="translate(444.580078 0.78125)" xlink:href="#DejaVuSans-Oblique-120"/>
      <use transform="translate(507.173828 0.78125)" xlink:href="#DejaVuSans-44"/>
      <use transform="translate(558.443359 0.78125)" xlink:href="#DejaVuSans-Oblique-116"/>
      <use transform="translate(617.134766 0.78125)" xlink:href="#DejaVuSans-61"/>
      <use transform="translate(720.40625 0.78125)" xlink:href="#DejaVuSans-49"/>
      <use transform="translate(784.029297 0.78125)" xlink:href="#DejaVuSans-46"/>
      <use transform="translate(815.816406 0.78125)" xlink:href="#DejaVuSans-53"/>
      <use transform="translate(879.439453 0.78125)" xlink:href="#DejaVuSans-41"/>
     </g>
    </g>
    <g id="line2d_28">
     <path d="M 110.7 136.294344 
L 132.7 136.294344 
" style="fill:none;stroke:#8172b3;stroke-linecap:round;stroke-width:1.5;"/>
    </g>
    <g id="line2d_29"/>
    <g id="text_19">
     <!-- $\mathrm{softmax}(\vec x, t=2.0)$ -->
     <g style="fill:#262626;" transform="translate(141.5 140.144344)scale(0.11 -0.11)">
      <use transform="translate(0 0.78125)" xlink:href="#DejaVuSans-115"/>
      <use transform="translate(52.099609 0.78125)" xlink:href="#DejaVuSans-111"/>
      <use transform="translate(113.28125 0.78125)" xlink:href="#DejaVuSans-102"/>
      <use transform="translate(148.486328 0.78125)" xlink:href="#DejaVuSans-116"/>
      <use transform="translate(187.695312 0.78125)" xlink:href="#DejaVuSans-109"/>
      <use transform="translate(285.107422 0.78125)" xlink:href="#DejaVuSans-97"/>
      <use transform="translate(346.386719 0.78125)" xlink:href="#DejaVuSans-120"/>
      <use transform="translate(405.566406 0.78125)" xlink:href="#DejaVuSans-40"/>
      <use transform="translate(508.244141 12.015625)" xlink:href="#DejaVuSans-8407"/>
      <use transform="translate(444.580078 0.78125)" xlink:href="#DejaVuSans-Oblique-120"/>
      <use transform="translate(507.173828 0.78125)" xlink:href="#DejaVuSans-44"/>
      <use transform="translate(558.443359 0.78125)" xlink:href="#DejaVuSans-Oblique-116"/>
      <use transform="translate(617.134766 0.78125)" xlink:href="#DejaVuSans-61"/>
      <use transform="translate(720.40625 0.78125)" xlink:href="#DejaVuSans-50"/>
      <use transform="translate(784.029297 0.78125)" xlink:href="#DejaVuSans-46"/>
      <use transform="translate(815.816406 0.78125)" xlink:href="#DejaVuSans-48"/>
      <use transform="translate(879.439453 0.78125)" xlink:href="#DejaVuSans-41"/>
     </g>
    </g>
   </g>
  </g>
 </g>
 <defs>
  <clipPath id="p84065e16c6">
   <rect height="342.468" width="624.96" x="100.8" y="54.432"/>
  </clipPath>
 </defs>
</svg>
