<?xml version="1.0" encoding="UTF-8" standalone="no"?>
<!DOCTYPE svg PUBLIC "-//W3C//DTD SVG 1.1//EN"
 "http://www.w3.org/Graphics/SVG/1.1/DTD/svg11.dtd">
<!-- Generated by graphviz version 2.43.0 (0)
 -->
<!-- Title: example07 Pages: 1 -->
<svg width="180pt" height="334pt"
 viewBox="0.00 0.00 180.00 334.09" xmlns="http://www.w3.org/2000/svg" xmlns:xlink="http://www.w3.org/1999/xlink">
<g id="graph0" class="graph" transform="scale(1 1) rotate(0) translate(4 330.09)">
<title>example07</title>
<polygon fill="white" stroke="transparent" points="-4,4 -4,-330.09 176,-330.09 176,4 -4,4"/>
<!-- NODE_2 -->
<g id="node1" class="node">
<title>NODE_2</title>
<polygon fill="none" stroke="black" points="77,-169.5 0,-169.5 0,-133.5 77,-133.5 77,-169.5"/>
<text text-anchor="middle" x="38.5" y="-147.8" font-family="Times,serif" font-size="14.00">NODE_2</text>
</g>
<!-- NODE_3 -->
<g id="node3" class="node">
<title>NODE_3</title>
<polygon fill="none" stroke="black" points="77,-77 0,-77 0,0 77,0 77,-77"/>
<text text-anchor="middle" x="38.5" y="-34.8" font-family="Times,serif" font-size="14.00">NODE_3</text>
</g>
<!-- NODE_2&#45;&gt;NODE_3 -->
<g id="edge2" class="edge">
<title>NODE_2&#45;&gt;NODE_3</title>
<path fill="none" stroke="black" d="M38.5,-133.16C38.5,-120.95 38.5,-103.98 38.5,-87.83"/>
<polygon fill="black" stroke="black" points="42,-87.39 38.5,-77.39 35,-87.39 42,-87.39"/>
</g>
<!-- NODE_1 -->
<g id="node2" class="node">
<title>NODE_1</title>
<ellipse fill="none" stroke="black" cx="85.5" cy="-276.05" rx="50.09" ry="50.09"/>
<text text-anchor="middle" x="85.5" y="-272.35" font-family="Times,serif" font-size="14.00">NODE_1</text>
</g>
<!-- NODE_1&#45;&gt;NODE_2 -->
<g id="edge1" class="edge">
<title>NODE_1&#45;&gt;NODE_2</title>
<path fill="none" stroke="black" d="M67.87,-229.07C61.39,-212.18 54.28,-193.64 48.68,-179.03"/>
<polygon fill="black" stroke="black" points="51.91,-177.7 45.06,-169.62 45.38,-180.21 51.91,-177.7"/>
</g>
<!-- NODE_4 -->
<g id="node4" class="node">
<title>NODE_4</title>
<polygon fill="none" stroke="black" points="172,-190 95,-190 95,-113 172,-113 172,-190"/>
<text text-anchor="middle" x="133.5" y="-147.8" font-family="Times,serif" font-size="14.00">NODE_4</text>
</g>
<!-- NODE_1&#45;&gt;NODE_4 -->
<g id="edge3" class="edge">
<title>NODE_1&#45;&gt;NODE_4</title>
<path fill="none" stroke="black" d="M103.51,-229.07C107.26,-219.49 111.22,-209.38 114.99,-199.76"/>
<polygon fill="black" stroke="black" points="118.29,-200.93 118.68,-190.34 111.77,-198.37 118.29,-200.93"/>
</g>
</g>
</svg>
