<?xml version="1.0" encoding="UTF-8" standalone="no"?>
<!DOCTYPE svg PUBLIC "-//W3C//DTD SVG 1.1//EN"
 "http://www.w3.org/Graphics/SVG/1.1/DTD/svg11.dtd">
<!-- Generated by graphviz version 2.43.0 (0)
 -->
<!-- Title: example08 Pages: 1 -->
<svg width="435pt" height="301pt"
 viewBox="0.00 0.00 434.88 300.69" xmlns="http://www.w3.org/2000/svg" xmlns:xlink="http://www.w3.org/1999/xlink">
<g id="graph0" class="graph" transform="scale(1 1) rotate(0) translate(4 296.69)">
<title>example08</title>
<polygon fill="white" stroke="transparent" points="-4,4 -4,-296.69 430.88,-296.69 430.88,4 -4,4"/>
<!-- START -->
<g id="node1" class="node">
<title>START</title>
<ellipse fill="black" stroke="black" cx="1.8" cy="-86.35" rx="1.8" ry="1.8"/>
</g>
<!-- INITIAL -->
<g id="node2" class="node">
<title>INITIAL</title>
<ellipse fill="none" stroke="black" cx="161.4" cy="-86.35" rx="46.61" ry="46.61"/>
<ellipse fill="none" stroke="black" cx="161.4" cy="-86.35" rx="50.59" ry="50.59"/>
<text text-anchor="middle" x="161.4" y="-82.65" font-family="Times,serif" font-size="14.00">INITIAL</text>
</g>
<!-- START&#45;&gt;INITIAL -->
<g id="edge1" class="edge">
<title>START&#45;&gt;INITIAL</title>
<path fill="none" stroke="black" d="M3.81,-86.35C11.3,-86.35 59.21,-86.35 100.09,-86.35"/>
<polygon fill="black" stroke="black" points="100.3,-89.85 110.3,-86.35 100.3,-82.85 100.3,-89.85"/>
<text text-anchor="middle" x="57.1" y="-90.15" font-family="Times,serif" font-size="14.00">startup</text>
</g>
<!-- STATE_1 -->
<g id="node3" class="node">
<title>STATE_1</title>
<ellipse fill="none" stroke="black" cx="375.54" cy="-190.35" rx="51.19" ry="51.19"/>
<text text-anchor="middle" x="375.54" y="-186.65" font-family="Times,serif" font-size="14.00">STATE_1</text>
</g>
<!-- INITIAL&#45;&gt;STATE_1 -->
<g id="edge2" class="edge">
<title>INITIAL&#45;&gt;STATE_1</title>
<path fill="none" stroke="black" d="M207.39,-108.4C240.21,-124.49 284.87,-146.39 319.77,-163.5"/>
<polygon fill="black" stroke="black" points="318.36,-166.7 328.88,-167.96 321.44,-160.42 318.36,-166.7"/>
<text text-anchor="middle" x="268.19" y="-169.15" font-family="Times,serif" font-size="14.00">event a</text>
<text text-anchor="middle" x="268.19" y="-154.15" font-family="Times,serif" font-size="14.00">action 1</text>
</g>
<!-- STATE_2 -->
<g id="node4" class="node">
<title>STATE_2</title>
<ellipse fill="none" stroke="black" cx="375.54" cy="-51.35" rx="51.19" ry="51.19"/>
<text text-anchor="middle" x="375.54" y="-47.65" font-family="Times,serif" font-size="14.00">STATE_2</text>
</g>
<!-- INITIAL&#45;&gt;STATE_2 -->
<g id="edge3" class="edge">
<title>INITIAL&#45;&gt;STATE_2</title>
<path fill="none" stroke="black" d="M211.6,-78.23C242.19,-73.18 281.75,-66.65 314.22,-61.3"/>
<polygon fill="black" stroke="black" points="315.2,-64.68 324.5,-59.6 314.06,-57.78 315.2,-64.68"/>
<text text-anchor="middle" x="268.19" y="-92.15" font-family="Times,serif" font-size="14.00">event b</text>
<text text-anchor="middle" x="268.19" y="-77.15" font-family="Times,serif" font-size="14.00">action 2</text>
</g>
<!-- STATE_1&#45;&gt;STATE_1 -->
<g id="edge4" class="edge">
<title>STATE_1&#45;&gt;STATE_1</title>
<path fill="none" stroke="black" d="M355.97,-237.96C354.11,-259.27 360.63,-277.69 375.54,-277.69 388,-277.69 394.6,-264.82 395.34,-248.15"/>
<polygon fill="black" stroke="black" points="398.84,-247.88 395.1,-237.96 391.84,-248.04 398.84,-247.88"/>
<text text-anchor="middle" x="375.54" y="-281.49" font-family="Times,serif" font-size="14.00">event c</text>
</g>
</g>
</svg>
