<?xml version="1.0" encoding="UTF-8" standalone="no"?>
<!DOCTYPE svg PUBLIC "-//W3C//DTD SVG 1.1//EN"
 "http://www.w3.org/Graphics/SVG/1.1/DTD/svg11.dtd">
<!-- Generated by graphviz version 2.43.0 (0)
 -->
<!-- Title: example09 Pages: 1 -->
<svg width="565pt" height="151pt"
 viewBox="0.00 0.00 565.26 150.69" xmlns="http://www.w3.org/2000/svg" xmlns:xlink="http://www.w3.org/1999/xlink">
<g id="graph0" class="graph" transform="scale(1 1) rotate(0) translate(4 146.69)">
<title>example09</title>
<polygon fill="white" stroke="transparent" points="-4,4 -4,-146.69 561.26,-146.69 561.26,4 -4,4"/>
<!-- START -->
<g id="node1" class="node">
<title>START</title>
<ellipse fill="black" stroke="black" cx="1.8" cy="-51.35" rx="1.8" ry="1.8"/>
</g>
<!-- INITIAL -->
<g id="node2" class="node">
<title>INITIAL</title>
<ellipse fill="none" stroke="black" cx="90.4" cy="-51.35" rx="46.61" ry="46.61"/>
<ellipse fill="none" stroke="black" cx="90.4" cy="-51.35" rx="50.59" ry="50.59"/>
<text text-anchor="middle" x="90.4" y="-47.65" font-family="Times,serif" font-size="14.00">INITIAL</text>
</g>
<!-- START&#45;&gt;INITIAL -->
<g id="edge1" class="edge">
<title>START&#45;&gt;INITIAL</title>
<path fill="none" stroke="black" d="M3.77,-51.35C6.85,-51.35 16.91,-51.35 29.1,-51.35"/>
<polygon fill="black" stroke="black" points="29.24,-54.85 39.24,-51.35 29.24,-47.85 29.24,-54.85"/>
</g>
<!-- STATE_1 -->
<g id="node3" class="node">
<title>STATE_1</title>
<ellipse fill="none" stroke="black" cx="228.54" cy="-51.35" rx="51.19" ry="51.19"/>
<text text-anchor="middle" x="228.54" y="-47.65" font-family="Times,serif" font-size="14.00">STATE_1</text>
</g>
<!-- INITIAL&#45;&gt;STATE_1 -->
<g id="edge2" class="edge">
<title>INITIAL&#45;&gt;STATE_1</title>
<path fill="none" stroke="black" d="M141.32,-51.35C149.72,-51.35 158.51,-51.35 167.15,-51.35"/>
<polygon fill="black" stroke="black" points="167.17,-54.85 177.17,-51.35 167.17,-47.85 167.17,-54.85"/>
</g>
<!-- STATE_2 -->
<g id="node4" class="node">
<title>STATE_2</title>
<ellipse fill="none" stroke="black" cx="367.23" cy="-91.35" rx="51.19" ry="51.19"/>
<text text-anchor="middle" x="367.23" y="-87.65" font-family="Times,serif" font-size="14.00">STATE_2</text>
</g>
<!-- STATE_1&#45;&gt;STATE_2 -->
<g id="edge3" class="edge">
<title>STATE_1&#45;&gt;STATE_2</title>
<path fill="none" stroke="blue" d="M278.11,-65.56C287.78,-68.39 298.03,-71.39 307.98,-74.3"/>
<polygon fill="blue" stroke="blue" points="307.23,-77.73 317.81,-77.18 309.19,-71.01 307.23,-77.73"/>
</g>
<!-- STATE_3 -->
<g id="node5" class="node">
<title>STATE_3</title>
<ellipse fill="none" stroke="black" cx="505.92" cy="-51.35" rx="51.19" ry="51.19"/>
<text text-anchor="middle" x="505.92" y="-47.65" font-family="Times,serif" font-size="14.00">STATE_3</text>
</g>
<!-- STATE_1&#45;&gt;STATE_3 -->
<g id="edge4" class="edge">
<title>STATE_1&#45;&gt;STATE_3</title>
<path fill="none" stroke="black" stroke-dasharray="5,2" d="M278.51,-37.97C290.63,-35.22 303.65,-32.74 315.88,-31.35 361.23,-26.16 373.23,-26.16 418.57,-31.35 427.56,-32.37 436.96,-33.98 446.13,-35.85"/>
<polygon fill="black" stroke="black" points="445.43,-39.28 455.94,-37.97 446.9,-32.44 445.43,-39.28"/>
</g>
<!-- STATE_2&#45;&gt;STATE_3 -->
<g id="edge5" class="edge">
<title>STATE_2&#45;&gt;STATE_3</title>
<path fill="none" stroke="black" d="M416.24,-75.21C425.91,-72.38 436.16,-69.38 446.11,-66.47"/>
<path fill="none" stroke="red" d="M416.8,-77.13C426.47,-74.3 436.72,-71.3 446.67,-68.39"/>
<path fill="none" stroke="black" d="M417.37,-79.05C427.04,-76.22 437.28,-73.22 447.24,-70.31"/>
<polygon fill="black" stroke="black" points="447.88,-71.68 456.5,-65.51 445.92,-64.96 447.88,-71.68"/>
</g>
<!-- STATE_3&#45;&gt;STATE_3 -->
<g id="edge6" class="edge">
<title>STATE_3&#45;&gt;STATE_3</title>
<path fill="none" stroke="black" d="M480.07,-96.03C480.59,-109.84 489.21,-120.69 505.92,-120.69 518.32,-120.69 526.27,-114.72 529.75,-105.99"/>
<polygon fill="black" stroke="black" points="533.21,-106.53 531.77,-96.03 526.35,-105.14 533.21,-106.53"/>
</g>
</g>
</svg>
