<?xml version="1.0" encoding="UTF-8" standalone="no"?>
<!DOCTYPE svg PUBLIC "-//W3C//DTD SVG 1.1//EN"
 "http://www.w3.org/Graphics/SVG/1.1/DTD/svg11.dtd">
<!-- Generated by graphviz version 2.43.0 (0)
 -->
<!-- Title: example05 Pages: 1 -->
<svg width="226pt" height="134pt"
 viewBox="0.00 0.00 226.09 134.00" xmlns="http://www.w3.org/2000/svg" xmlns:xlink="http://www.w3.org/1999/xlink">
<g id="graph0" class="graph" transform="scale(1 1) rotate(0) translate(4 130)">
<title>example05</title>
<polygon fill="white" stroke="transparent" points="-4,4 -4,-130 222.09,-130 222.09,4 -4,4"/>
<!-- NODE_1 -->
<g id="node1" class="node">
<title>NODE_1</title>
<ellipse fill="none" stroke="black" cx="50.05" cy="-108" rx="50.09" ry="18"/>
<text text-anchor="middle" x="50.05" y="-104.3" font-family="Times,serif" font-size="14.00">NODE_1</text>
</g>
<!-- NODE_3 -->
<g id="node2" class="node">
<title>NODE_3</title>
<ellipse fill="none" stroke="black" cx="109.05" cy="-18" rx="50.09" ry="18"/>
<text text-anchor="middle" x="109.05" y="-14.3" font-family="Times,serif" font-size="14.00">NODE_3</text>
</g>
<!-- NODE_1&#45;&gt;NODE_3 -->
<g id="edge1" class="edge">
<title>NODE_1&#45;&gt;NODE_3</title>
<path fill="none" stroke="black" d="M61.14,-90.45C69.82,-77.5 82.04,-59.28 91.97,-44.47"/>
<polygon fill="black" stroke="black" points="95.14,-46.03 97.8,-35.78 89.32,-42.13 95.14,-46.03"/>
</g>
<!-- NODE_2 -->
<g id="node3" class="node">
<title>NODE_2</title>
<ellipse fill="none" stroke="black" cx="168.05" cy="-108" rx="50.09" ry="18"/>
<text text-anchor="middle" x="168.05" y="-104.3" font-family="Times,serif" font-size="14.00">NODE_2</text>
</g>
<!-- NODE_2&#45;&gt;NODE_3 -->
<g id="edge2" class="edge">
<title>NODE_2&#45;&gt;NODE_3</title>
<path fill="none" stroke="black" d="M156.95,-90.45C148.27,-77.5 136.05,-59.28 126.12,-44.47"/>
<polygon fill="black" stroke="black" points="128.77,-42.13 120.29,-35.78 122.96,-46.03 128.77,-42.13"/>
</g>
</g>
</svg>
