<?xml version="1.0" encoding="utf-8" standalone="no"?>
<!DOCTYPE svg PUBLIC "-//W3C//DTD SVG 1.1//EN"
  "http://www.w3.org/Graphics/SVG/1.1/DTD/svg11.dtd">
<!-- Created with matplotlib (https://matplotlib.org/) -->
<svg height="453.6pt" version="1.1" viewBox="0 0 806.4 453.6" width="806.4pt" xmlns="http://www.w3.org/2000/svg" xmlns:xlink="http://www.w3.org/1999/xlink">
 <defs>
  <style type="text/css">
*{stroke-linecap:butt;stroke-linejoin:round;}
  </style>
 </defs>
 <g id="figure_1">
  <g id="patch_1">
   <path d="M 0 453.6 
L 806.4 453.6 
L 806.4 0 
L 0 0 
z
" style="fill:#ffffff;"/>
  </g>
  <g id="axes_1">
   <g id="patch_2">
    <path d="M 100.8 396.9 
L 725.76 396.9 
L 725.76 54.432 
L 100.8 54.432 
z
" style="fill:#ffffff;"/>
   </g>
   <g id="matplotlib.axis_1">
    <g id="xtick_1">
     <g id="line2d_1">
      <path clip-path="url(#pb4ea2908ce)" d="M 129.207273 396.9 
L 129.207273 54.432 
" style="fill:none;stroke:#cccccc;stroke-linecap:round;"/>
     </g>
     <g id="text_1">
      <!-- 0.0 -->
      <defs>
       <path d="M 31.78125 66.40625 
Q 24.171875 66.40625 20.328125 58.90625 
Q 16.5 51.421875 16.5 36.375 
Q 16.5 21.390625 20.328125 13.890625 
Q 24.171875 6.390625 31.78125 6.390625 
Q 39.453125 6.390625 43.28125 13.890625 
Q 47.125 21.390625 47.125 36.375 
Q 47.125 51.421875 43.28125 58.90625 
Q 39.453125 66.40625 31.78125 66.40625 
z
M 31.78125 74.21875 
Q 44.046875 74.21875 50.515625 64.515625 
Q 56.984375 54.828125 56.984375 36.375 
Q 56.984375 17.96875 50.515625 8.265625 
Q 44.046875 -1.421875 31.78125 -1.421875 
Q 19.53125 -1.421875 13.0625 8.265625 
Q 6.59375 17.96875 6.59375 36.375 
Q 6.59375 54.828125 13.0625 64.515625 
Q 19.53125 74.21875 31.78125 74.21875 
z
" id="DejaVuSans-48"/>
       <path d="M 10.6875 12.40625 
L 21 12.40625 
L 21 0 
L 10.6875 0 
z
" id="DejaVuSans-46"/>
      </defs>
      <g style="fill:#262626;" transform="translate(120.460554 414.758281)scale(0.11 -0.11)">
       <use xlink:href="#DejaVuSans-48"/>
       <use x="63.623047" xlink:href="#DejaVuSans-46"/>
       <use x="95.410156" xlink:href="#DejaVuSans-48"/>
      </g>
     </g>
    </g>
    <g id="xtick_2">
     <g id="line2d_2">
      <path clip-path="url(#pb4ea2908ce)" d="M 242.836364 396.9 
L 242.836364 54.432 
" style="fill:none;stroke:#cccccc;stroke-linecap:round;"/>
     </g>
     <g id="text_2">
      <!-- 0.2 -->
      <defs>
       <path d="M 19.1875 8.296875 
L 53.609375 8.296875 
L 53.609375 0 
L 7.328125 0 
L 7.328125 8.296875 
Q 12.9375 14.109375 22.625 23.890625 
Q 32.328125 33.6875 34.8125 36.53125 
Q 39.546875 41.84375 41.421875 45.53125 
Q 43.3125 49.21875 43.3125 52.78125 
Q 43.3125 58.59375 39.234375 62.25 
Q 35.15625 65.921875 28.609375 65.921875 
Q 23.96875 65.921875 18.8125 64.3125 
Q 13.671875 62.703125 7.8125 59.421875 
L 7.8125 69.390625 
Q 13.765625 71.78125 18.9375 73 
Q 24.125 74.21875 28.421875 74.21875 
Q 39.75 74.21875 46.484375 68.546875 
Q 53.21875 62.890625 53.21875 53.421875 
Q 53.21875 48.921875 51.53125 44.890625 
Q 49.859375 40.875 45.40625 35.40625 
Q 44.1875 33.984375 37.640625 27.21875 
Q 31.109375 20.453125 19.1875 8.296875 
z
" id="DejaVuSans-50"/>
      </defs>
      <g style="fill:#262626;" transform="translate(234.089645 414.758281)scale(0.11 -0.11)">
       <use xlink:href="#DejaVuSans-48"/>
       <use x="63.623047" xlink:href="#DejaVuSans-46"/>
       <use x="95.410156" xlink:href="#DejaVuSans-50"/>
      </g>
     </g>
    </g>
    <g id="xtick_3">
     <g id="line2d_3">
      <path clip-path="url(#pb4ea2908ce)" d="M 356.465455 396.9 
L 356.465455 54.432 
" style="fill:none;stroke:#cccccc;stroke-linecap:round;"/>
     </g>
     <g id="text_3">
      <!-- 0.4 -->
      <defs>
       <path d="M 37.796875 64.3125 
L 12.890625 25.390625 
L 37.796875 25.390625 
z
M 35.203125 72.90625 
L 47.609375 72.90625 
L 47.609375 25.390625 
L 58.015625 25.390625 
L 58.015625 17.1875 
L 47.609375 17.1875 
L 47.609375 0 
L 37.796875 0 
L 37.796875 17.1875 
L 4.890625 17.1875 
L 4.890625 26.703125 
z
" id="DejaVuSans-52"/>
      </defs>
      <g style="fill:#262626;" transform="translate(347.718736 414.758281)scale(0.11 -0.11)">
       <use xlink:href="#DejaVuSans-48"/>
       <use x="63.623047" xlink:href="#DejaVuSans-46"/>
       <use x="95.410156" xlink:href="#DejaVuSans-52"/>
      </g>
     </g>
    </g>
    <g id="xtick_4">
     <g id="line2d_4">
      <path clip-path="url(#pb4ea2908ce)" d="M 470.094545 396.9 
L 470.094545 54.432 
" style="fill:none;stroke:#cccccc;stroke-linecap:round;"/>
     </g>
     <g id="text_4">
      <!-- 0.6 -->
      <defs>
       <path d="M 33.015625 40.375 
Q 26.375 40.375 22.484375 35.828125 
Q 18.609375 31.296875 18.609375 23.390625 
Q 18.609375 15.53125 22.484375 10.953125 
Q 26.375 6.390625 33.015625 6.390625 
Q 39.65625 6.390625 43.53125 10.953125 
Q 47.40625 15.53125 47.40625 23.390625 
Q 47.40625 31.296875 43.53125 35.828125 
Q 39.65625 40.375 33.015625 40.375 
z
M 52.59375 71.296875 
L 52.59375 62.3125 
Q 48.875 64.0625 45.09375 64.984375 
Q 41.3125 65.921875 37.59375 65.921875 
Q 27.828125 65.921875 22.671875 59.328125 
Q 17.53125 52.734375 16.796875 39.40625 
Q 19.671875 43.65625 24.015625 45.921875 
Q 28.375 48.1875 33.59375 48.1875 
Q 44.578125 48.1875 50.953125 41.515625 
Q 57.328125 34.859375 57.328125 23.390625 
Q 57.328125 12.15625 50.6875 5.359375 
Q 44.046875 -1.421875 33.015625 -1.421875 
Q 20.359375 -1.421875 13.671875 8.265625 
Q 6.984375 17.96875 6.984375 36.375 
Q 6.984375 53.65625 15.1875 63.9375 
Q 23.390625 74.21875 37.203125 74.21875 
Q 40.921875 74.21875 44.703125 73.484375 
Q 48.484375 72.75 52.59375 71.296875 
z
" id="DejaVuSans-54"/>
      </defs>
      <g style="fill:#262626;" transform="translate(461.347827 414.758281)scale(0.11 -0.11)">
       <use xlink:href="#DejaVuSans-48"/>
       <use x="63.623047" xlink:href="#DejaVuSans-46"/>
       <use x="95.410156" xlink:href="#DejaVuSans-54"/>
      </g>
     </g>
    </g>
    <g id="xtick_5">
     <g id="line2d_5">
      <path clip-path="url(#pb4ea2908ce)" d="M 583.723636 396.9 
L 583.723636 54.432 
" style="fill:none;stroke:#cccccc;stroke-linecap:round;"/>
     </g>
     <g id="text_5">
      <!-- 0.8 -->
      <defs>
       <path d="M 31.78125 34.625 
Q 24.75 34.625 20.71875 30.859375 
Q 16.703125 27.09375 16.703125 20.515625 
Q 16.703125 13.921875 20.71875 10.15625 
Q 24.75 6.390625 31.78125 6.390625 
Q 38.8125 6.390625 42.859375 10.171875 
Q 46.921875 13.96875 46.921875 20.515625 
Q 46.921875 27.09375 42.890625 30.859375 
Q 38.875 34.625 31.78125 34.625 
z
M 21.921875 38.8125 
Q 15.578125 40.375 12.03125 44.71875 
Q 8.5 49.078125 8.5 55.328125 
Q 8.5 64.0625 14.71875 69.140625 
Q 20.953125 74.21875 31.78125 74.21875 
Q 42.671875 74.21875 48.875 69.140625 
Q 55.078125 64.0625 55.078125 55.328125 
Q 55.078125 49.078125 51.53125 44.71875 
Q 48 40.375 41.703125 38.8125 
Q 48.828125 37.15625 52.796875 32.3125 
Q 56.78125 27.484375 56.78125 20.515625 
Q 56.78125 9.90625 50.3125 4.234375 
Q 43.84375 -1.421875 31.78125 -1.421875 
Q 19.734375 -1.421875 13.25 4.234375 
Q 6.78125 9.90625 6.78125 20.515625 
Q 6.78125 27.484375 10.78125 32.3125 
Q 14.796875 37.15625 21.921875 38.8125 
z
M 18.3125 54.390625 
Q 18.3125 48.734375 21.84375 45.5625 
Q 25.390625 42.390625 31.78125 42.390625 
Q 38.140625 42.390625 41.71875 45.5625 
Q 45.3125 48.734375 45.3125 54.390625 
Q 45.3125 60.0625 41.71875 63.234375 
Q 38.140625 66.40625 31.78125 66.40625 
Q 25.390625 66.40625 21.84375 63.234375 
Q 18.3125 60.0625 18.3125 54.390625 
z
" id="DejaVuSans-56"/>
      </defs>
      <g style="fill:#262626;" transform="translate(574.976918 414.758281)scale(0.11 -0.11)">
       <use xlink:href="#DejaVuSans-48"/>
       <use x="63.623047" xlink:href="#DejaVuSans-46"/>
       <use x="95.410156" xlink:href="#DejaVuSans-56"/>
      </g>
     </g>
    </g>
    <g id="xtick_6">
     <g id="line2d_6">
      <path clip-path="url(#pb4ea2908ce)" d="M 697.352727 396.9 
L 697.352727 54.432 
" style="fill:none;stroke:#cccccc;stroke-linecap:round;"/>
     </g>
     <g id="text_6">
      <!-- 1.0 -->
      <defs>
       <path d="M 12.40625 8.296875 
L 28.515625 8.296875 
L 28.515625 63.921875 
L 10.984375 60.40625 
L 10.984375 69.390625 
L 28.421875 72.90625 
L 38.28125 72.90625 
L 38.28125 8.296875 
L 54.390625 8.296875 
L 54.390625 0 
L 12.40625 0 
z
" id="DejaVuSans-49"/>
      </defs>
      <g style="fill:#262626;" transform="translate(688.606009 414.758281)scale(0.11 -0.11)">
       <use xlink:href="#DejaVuSans-49"/>
       <use x="63.623047" xlink:href="#DejaVuSans-46"/>
       <use x="95.410156" xlink:href="#DejaVuSans-48"/>
      </g>
     </g>
    </g>
   </g>
   <g id="matplotlib.axis_2">
    <g id="ytick_1">
     <g id="line2d_7">
      <path clip-path="url(#pb4ea2908ce)" d="M 100.8 379.099502 
L 725.76 379.099502 
" style="fill:none;stroke:#cccccc;stroke-linecap:round;"/>
     </g>
     <g id="text_7">
      <!-- 0.0005 -->
      <defs>
       <path d="M 10.796875 72.90625 
L 49.515625 72.90625 
L 49.515625 64.59375 
L 19.828125 64.59375 
L 19.828125 46.734375 
Q 21.96875 47.46875 24.109375 47.828125 
Q 26.265625 48.1875 28.421875 48.1875 
Q 40.625 48.1875 47.75 41.5 
Q 54.890625 34.8125 54.890625 23.390625 
Q 54.890625 11.625 47.5625 5.09375 
Q 40.234375 -1.421875 26.90625 -1.421875 
Q 22.3125 -1.421875 17.546875 -0.640625 
Q 12.796875 0.140625 7.71875 1.703125 
L 7.71875 11.625 
Q 12.109375 9.234375 16.796875 8.0625 
Q 21.484375 6.890625 26.703125 6.890625 
Q 35.15625 6.890625 40.078125 11.328125 
Q 45.015625 15.765625 45.015625 23.390625 
Q 45.015625 31 40.078125 35.4375 
Q 35.15625 39.890625 26.703125 39.890625 
Q 22.75 39.890625 18.8125 39.015625 
Q 14.890625 38.140625 10.796875 36.28125 
z
" id="DejaVuSans-53"/>
      </defs>
      <g style="fill:#262626;" transform="translate(52.810312 383.278643)scale(0.11 -0.11)">
       <use xlink:href="#DejaVuSans-48"/>
       <use x="63.623047" xlink:href="#DejaVuSans-46"/>
       <use x="95.410156" xlink:href="#DejaVuSans-48"/>
       <use x="159.033203" xlink:href="#DejaVuSans-48"/>
       <use x="222.65625" xlink:href="#DejaVuSans-48"/>
       <use x="286.279297" xlink:href="#DejaVuSans-53"/>
      </g>
     </g>
    </g>
    <g id="ytick_2">
     <g id="line2d_8">
      <path clip-path="url(#pb4ea2908ce)" d="M 100.8 330.330003 
L 725.76 330.330003 
" style="fill:none;stroke:#cccccc;stroke-linecap:round;"/>
     </g>
     <g id="text_8">
      <!-- 0.0010 -->
      <g style="fill:#262626;" transform="translate(52.810312 334.509144)scale(0.11 -0.11)">
       <use xlink:href="#DejaVuSans-48"/>
       <use x="63.623047" xlink:href="#DejaVuSans-46"/>
       <use x="95.410156" xlink:href="#DejaVuSans-48"/>
       <use x="159.033203" xlink:href="#DejaVuSans-48"/>
       <use x="222.65625" xlink:href="#DejaVuSans-49"/>
       <use x="286.279297" xlink:href="#DejaVuSans-48"/>
      </g>
     </g>
    </g>
    <g id="ytick_3">
     <g id="line2d_9">
      <path clip-path="url(#pb4ea2908ce)" d="M 100.8 281.560505 
L 725.76 281.560505 
" style="fill:none;stroke:#cccccc;stroke-linecap:round;"/>
     </g>
     <g id="text_9">
      <!-- 0.0015 -->
      <g style="fill:#262626;" transform="translate(52.810312 285.739645)scale(0.11 -0.11)">
       <use xlink:href="#DejaVuSans-48"/>
       <use x="63.623047" xlink:href="#DejaVuSans-46"/>
       <use x="95.410156" xlink:href="#DejaVuSans-48"/>
       <use x="159.033203" xlink:href="#DejaVuSans-48"/>
       <use x="222.65625" xlink:href="#DejaVuSans-49"/>
       <use x="286.279297" xlink:href="#DejaVuSans-53"/>
      </g>
     </g>
    </g>
    <g id="ytick_4">
     <g id="line2d_10">
      <path clip-path="url(#pb4ea2908ce)" d="M 100.8 232.791006 
L 725.76 232.791006 
" style="fill:none;stroke:#cccccc;stroke-linecap:round;"/>
     </g>
     <g id="text_10">
      <!-- 0.0020 -->
      <g style="fill:#262626;" transform="translate(52.810312 236.970147)scale(0.11 -0.11)">
       <use xlink:href="#DejaVuSans-48"/>
       <use x="63.623047" xlink:href="#DejaVuSans-46"/>
       <use x="95.410156" xlink:href="#DejaVuSans-48"/>
       <use x="159.033203" xlink:href="#DejaVuSans-48"/>
       <use x="222.65625" xlink:href="#DejaVuSans-50"/>
       <use x="286.279297" xlink:href="#DejaVuSans-48"/>
      </g>
     </g>
    </g>
    <g id="ytick_5">
     <g id="line2d_11">
      <path clip-path="url(#pb4ea2908ce)" d="M 100.8 184.021507 
L 725.76 184.021507 
" style="fill:none;stroke:#cccccc;stroke-linecap:round;"/>
     </g>
     <g id="text_11">
      <!-- 0.0025 -->
      <g style="fill:#262626;" transform="translate(52.810312 188.200648)scale(0.11 -0.11)">
       <use xlink:href="#DejaVuSans-48"/>
       <use x="63.623047" xlink:href="#DejaVuSans-46"/>
       <use x="95.410156" xlink:href="#DejaVuSans-48"/>
       <use x="159.033203" xlink:href="#DejaVuSans-48"/>
       <use x="222.65625" xlink:href="#DejaVuSans-50"/>
       <use x="286.279297" xlink:href="#DejaVuSans-53"/>
      </g>
     </g>
    </g>
    <g id="ytick_6">
     <g id="line2d_12">
      <path clip-path="url(#pb4ea2908ce)" d="M 100.8 135.252009 
L 725.76 135.252009 
" style="fill:none;stroke:#cccccc;stroke-linecap:round;"/>
     </g>
     <g id="text_12">
      <!-- 0.0030 -->
      <defs>
       <path d="M 40.578125 39.3125 
Q 47.65625 37.796875 51.625 33 
Q 55.609375 28.21875 55.609375 21.1875 
Q 55.609375 10.40625 48.1875 4.484375 
Q 40.765625 -1.421875 27.09375 -1.421875 
Q 22.515625 -1.421875 17.65625 -0.515625 
Q 12.796875 0.390625 7.625 2.203125 
L 7.625 11.71875 
Q 11.71875 9.328125 16.59375 8.109375 
Q 21.484375 6.890625 26.8125 6.890625 
Q 36.078125 6.890625 40.9375 10.546875 
Q 45.796875 14.203125 45.796875 21.1875 
Q 45.796875 27.640625 41.28125 31.265625 
Q 36.765625 34.90625 28.71875 34.90625 
L 20.21875 34.90625 
L 20.21875 43.015625 
L 29.109375 43.015625 
Q 36.375 43.015625 40.234375 45.921875 
Q 44.09375 48.828125 44.09375 54.296875 
Q 44.09375 59.90625 40.109375 62.90625 
Q 36.140625 65.921875 28.71875 65.921875 
Q 24.65625 65.921875 20.015625 65.03125 
Q 15.375 64.15625 9.8125 62.3125 
L 9.8125 71.09375 
Q 15.4375 72.65625 20.34375 73.4375 
Q 25.25 74.21875 29.59375 74.21875 
Q 40.828125 74.21875 47.359375 69.109375 
Q 53.90625 64.015625 53.90625 55.328125 
Q 53.90625 49.265625 50.4375 45.09375 
Q 46.96875 40.921875 40.578125 39.3125 
z
" id="DejaVuSans-51"/>
      </defs>
      <g style="fill:#262626;" transform="translate(52.810312 139.431149)scale(0.11 -0.11)">
       <use xlink:href="#DejaVuSans-48"/>
       <use x="63.623047" xlink:href="#DejaVuSans-46"/>
       <use x="95.410156" xlink:href="#DejaVuSans-48"/>
       <use x="159.033203" xlink:href="#DejaVuSans-48"/>
       <use x="222.65625" xlink:href="#DejaVuSans-51"/>
       <use x="286.279297" xlink:href="#DejaVuSans-48"/>
      </g>
     </g>
    </g>
    <g id="ytick_7">
     <g id="line2d_13">
      <path clip-path="url(#pb4ea2908ce)" d="M 100.8 86.48251 
L 725.76 86.48251 
" style="fill:none;stroke:#cccccc;stroke-linecap:round;"/>
     </g>
     <g id="text_13">
      <!-- 0.0035 -->
      <g style="fill:#262626;" transform="translate(52.810312 90.661651)scale(0.11 -0.11)">
       <use xlink:href="#DejaVuSans-48"/>
       <use x="63.623047" xlink:href="#DejaVuSans-46"/>
       <use x="95.410156" xlink:href="#DejaVuSans-48"/>
       <use x="159.033203" xlink:href="#DejaVuSans-48"/>
       <use x="222.65625" xlink:href="#DejaVuSans-51"/>
       <use x="286.279297" xlink:href="#DejaVuSans-53"/>
      </g>
     </g>
    </g>
   </g>
   <g id="line2d_14">
    <path clip-path="url(#pb4ea2908ce)" d="M 129.207273 363.385989 
L 130.345841 363.645374 
L 131.484409 362.592982 
L 132.622977 363.127463 
L 133.761545 361.875936 
L 134.900113 362.392676 
L 138.315817 360.926255 
L 139.454385 361.120601 
L 140.592953 360.111025 
L 141.731521 360.067215 
L 142.870089 359.759598 
L 145.147225 358.855767 
L 146.285793 358.900437 
L 147.424361 358.089491 
L 148.562929 358.483741 
L 151.978634 356.507635 
L 153.117202 356.563331 
L 154.25577 356.172975 
L 155.394338 356.352097 
L 156.532906 356.052545 
L 157.671474 354.730687 
L 158.810042 355.587063 
L 159.94861 354.410345 
L 161.087178 354.256669 
L 162.225746 353.181 
L 163.364314 353.309489 
L 164.502882 353.307213 
L 165.64145 352.630174 
L 166.780018 352.597707 
L 167.918586 352.185296 
L 169.057154 351.078698 
L 171.33429 351.409814 
L 172.472858 350.121382 
L 173.611426 350.410259 
L 174.749995 349.704981 
L 175.888563 349.347388 
L 177.027131 349.849339 
L 178.165699 348.810674 
L 180.442835 348.040439 
L 181.581403 348.014146 
L 183.858539 346.725873 
L 184.997107 346.606961 
L 186.135675 346.138589 
L 187.274243 345.395961 
L 189.551379 344.753221 
L 191.828515 344.771719 
L 192.967083 343.363314 
L 194.105651 342.82818 
L 195.244219 342.711479 
L 196.382787 342.466413 
L 197.521355 342.105012 
L 198.659923 341.02621 
L 199.798492 340.398103 
L 200.93706 340.64965 
L 202.075628 340.31231 
L 203.214196 340.149381 
L 205.491332 338.624389 
L 206.6299 337.57577 
L 207.768468 337.83418 
L 210.045604 337.192432 
L 211.184172 336.428413 
L 212.32274 336.682627 
L 213.461308 335.492394 
L 214.599876 335.617308 
L 215.738444 334.666391 
L 216.877012 334.123888 
L 218.01558 334.507591 
L 219.154148 334.223988 
L 220.292716 332.696929 
L 221.431284 333.003293 
L 222.569852 331.785247 
L 223.70842 330.926133 
L 224.846989 331.16826 
L 225.985557 330.490623 
L 227.124125 330.111947 
L 228.262693 329.914922 
L 229.401261 328.847143 
L 230.539829 328.097657 
L 232.816965 327.363256 
L 233.955533 327.9481 
L 235.094101 327.230434 
L 236.232669 327.036992 
L 237.371237 326.627812 
L 238.509805 325.752067 
L 239.648373 325.218593 
L 240.786941 324.030698 
L 241.925509 323.813499 
L 244.202645 322.741707 
L 245.341213 322.889606 
L 246.479781 321.366149 
L 247.618349 322.395396 
L 248.756917 320.81767 
L 249.895486 320.186105 
L 251.034054 319.280746 
L 252.172622 319.391912 
L 253.31119 318.43394 
L 254.449758 318.262654 
L 255.588326 317.64279 
L 257.865462 316.044247 
L 259.00403 316.126059 
L 260.142598 314.885277 
L 261.281166 314.181818 
L 262.419734 314.557934 
L 263.558302 313.936122 
L 264.69687 313.186733 
L 265.835438 312.727389 
L 266.974006 311.940058 
L 268.112574 311.487714 
L 270.38971 311.263898 
L 271.528278 310.058618 
L 272.666846 307.975793 
L 273.805414 308.573652 
L 274.943983 307.597324 
L 276.082551 307.627294 
L 278.359687 307.003067 
L 279.498255 305.401617 
L 281.775391 304.588038 
L 282.913959 303.228299 
L 284.052527 302.59021 
L 285.191095 303.260969 
L 286.329663 301.661021 
L 287.468231 301.149364 
L 288.606799 301.555583 
L 289.745367 300.105672 
L 290.883935 299.884532 
L 292.022503 300.332718 
L 293.161071 298.9365 
L 294.299639 297.112382 
L 295.438207 297.612077 
L 296.576775 297.450162 
L 297.715343 294.830742 
L 298.853911 295.965773 
L 299.99248 294.891536 
L 301.131048 292.93615 
L 302.269616 294.183551 
L 303.408184 292.177237 
L 304.546752 292.737862 
L 305.68532 290.590694 
L 306.823888 290.949192 
L 307.962456 289.233745 
L 309.101024 290.244119 
L 310.239592 288.202986 
L 311.37816 287.48841 
L 312.516728 287.06641 
L 313.655296 286.790543 
L 314.793864 286.899146 
L 315.932432 285.698071 
L 317.071 285.721088 
L 318.209568 283.544575 
L 319.348136 284.027063 
L 320.486704 282.410657 
L 321.625272 281.286868 
L 322.76384 280.471689 
L 323.902408 280.89068 
L 325.040976 279.510356 
L 329.595249 276.920059 
L 330.733817 276.742686 
L 331.872385 276.412503 
L 333.010953 272.736074 
L 335.288089 274.542421 
L 336.426657 273.144443 
L 337.565225 272.696129 
L 338.703793 271.071988 
L 339.842361 270.230031 
L 340.980929 270.105866 
L 342.119497 269.368945 
L 343.258065 268.854256 
L 345.535201 266.531822 
L 346.673769 266.12003 
L 347.812337 264.655614 
L 348.950905 265.00671 
L 350.089473 262.846332 
L 351.228042 262.556007 
L 352.36661 263.148505 
L 353.505178 260.52432 
L 354.643746 259.401569 
L 355.782314 259.248664 
L 359.198018 258.024175 
L 360.336586 256.002508 
L 361.475154 255.411316 
L 362.613722 253.916543 
L 363.75229 253.446088 
L 364.890858 252.537549 
L 366.029426 253.205515 
L 367.167994 251.36081 
L 368.306562 251.052937 
L 370.583698 247.868987 
L 371.722266 247.943051 
L 372.860834 247.348031 
L 373.999402 245.99669 
L 375.13797 244.228353 
L 376.276539 245.604056 
L 377.415107 244.323945 
L 378.553675 242.190354 
L 379.692243 242.05638 
L 380.830811 240.78041 
L 381.969379 240.047814 
L 383.107947 239.548858 
L 384.246515 239.207216 
L 386.523651 236.089983 
L 387.662219 235.976008 
L 388.800787 235.631236 
L 389.939355 234.917061 
L 391.077923 235.486247 
L 392.216491 231.668891 
L 393.355059 230.316741 
L 394.493627 230.14156 
L 395.632195 230.249233 
L 396.770763 228.669478 
L 397.909331 228.176877 
L 399.047899 228.105635 
L 400.186467 228.702216 
L 401.325036 224.833019 
L 402.463604 225.670505 
L 403.602172 221.16936 
L 404.74074 222.801641 
L 405.879308 222.659535 
L 407.017876 220.115543 
L 408.156444 221.842825 
L 409.295012 219.626417 
L 410.43358 217.871351 
L 411.572148 217.794176 
L 412.710716 217.391309 
L 413.849284 215.526848 
L 414.987852 215.280391 
L 416.12642 212.979943 
L 417.264988 212.475764 
L 418.403556 212.31538 
L 419.542124 210.288873 
L 420.680692 210.641935 
L 421.81926 208.238156 
L 422.957828 208.633691 
L 424.096396 205.002295 
L 425.234964 207.481785 
L 426.373533 206.822018 
L 427.512101 205.053381 
L 428.650669 203.807589 
L 429.789237 203.248465 
L 430.927805 199.951168 
L 432.066373 202.226313 
L 433.204941 199.048522 
L 434.343509 197.603558 
L 435.482077 196.495494 
L 436.620645 198.976965 
L 437.759213 195.770094 
L 440.036349 193.225618 
L 441.174917 191.16274 
L 442.313485 193.968901 
L 443.452053 191.302954 
L 444.590621 189.655776 
L 445.729189 189.206562 
L 446.867757 189.879513 
L 448.006325 186.439843 
L 450.283461 185.162556 
L 451.42203 182.844008 
L 452.560598 181.801644 
L 453.699166 181.478408 
L 454.837734 182.229918 
L 455.976302 180.861472 
L 457.11487 176.356847 
L 458.253438 179.157351 
L 459.392006 175.530968 
L 460.530574 176.338225 
L 461.669142 178.129633 
L 462.80771 174.568294 
L 463.946278 172.344442 
L 465.084846 174.640502 
L 466.223414 171.215718 
L 467.361982 168.525929 
L 468.50055 168.445438 
L 469.639118 169.811668 
L 470.777686 167.415047 
L 471.916254 168.123951 
L 473.054822 164.689396 
L 474.19339 163.891887 
L 475.331958 163.460878 
L 476.470527 161.874974 
L 477.609095 161.722623 
L 478.747663 158.39232 
L 479.886231 160.274711 
L 481.024799 159.379913 
L 482.163367 159.42696 
L 483.301935 157.552683 
L 484.440503 156.721254 
L 485.579071 156.507598 
L 486.717639 153.964067 
L 488.994775 152.548572 
L 490.133343 149.923794 
L 491.271911 150.251381 
L 492.410479 147.528202 
L 493.549047 150.465073 
L 494.687615 148.180188 
L 495.826183 146.362848 
L 496.964751 146.51775 
L 498.103319 143.974236 
L 499.241887 146.190963 
L 500.380455 139.744896 
L 501.519024 144.10643 
L 502.657592 137.371089 
L 503.79616 140.213201 
L 504.934728 142.632039 
L 506.073296 138.14634 
L 507.211864 135.738245 
L 508.350432 136.578731 
L 509.489 135.461276 
L 510.627568 133.678728 
L 511.766136 133.84732 
L 512.904704 132.719629 
L 514.043272 132.36856 
L 515.18184 130.532821 
L 516.320408 131.917953 
L 517.458976 133.015753 
L 518.597544 128.186077 
L 519.736112 127.976388 
L 520.87468 127.335491 
L 522.013248 127.292032 
L 524.290384 123.735517 
L 525.428952 123.138028 
L 526.56752 125.098452 
L 527.706089 122.329244 
L 528.844657 123.470654 
L 529.983225 124.297329 
L 531.121793 120.143888 
L 532.260361 121.277383 
L 533.398929 118.620714 
L 534.537497 120.398223 
L 535.676065 119.977961 
L 536.814633 121.22964 
L 537.953201 116.682476 
L 539.091769 115.874295 
L 540.230337 114.366835 
L 541.368905 116.438918 
L 542.507473 115.504505 
L 543.646041 114.067962 
L 544.784609 114.19769 
L 545.923177 111.433505 
L 547.061745 109.90276 
L 548.200313 113.158622 
L 549.338881 110.207036 
L 550.477449 114.340658 
L 551.616017 110.760035 
L 552.754586 111.031847 
L 553.893154 109.977942 
L 555.031722 109.116896 
L 556.17029 110.896677 
L 557.308858 109.960808 
L 558.447426 107.433066 
L 559.585994 103.987107 
L 560.724562 108.462563 
L 561.86313 109.259413 
L 563.001698 109.326405 
L 564.140266 107.818438 
L 565.278834 108.152803 
L 566.417402 105.243899 
L 567.55597 105.069535 
L 568.694538 107.78606 
L 569.833106 105.522705 
L 570.971674 104.3577 
L 572.110242 106.30809 
L 573.24881 105.958108 
L 574.387378 105.209143 
L 575.525946 103.04361 
L 576.664514 105.482184 
L 577.803083 105.071454 
L 578.941651 106.88559 
L 581.218787 104.902142 
L 583.495923 107.333677 
L 584.634491 104.550987 
L 585.773059 107.393176 
L 586.911627 108.848631 
L 588.050195 109.871212 
L 589.188763 106.91723 
L 590.327331 108.095478 
L 591.465899 110.01432 
L 592.604467 110.474871 
L 593.743035 108.891772 
L 594.881603 110.949932 
L 596.020171 110.749871 
L 597.158739 109.283047 
L 598.297307 110.475244 
L 599.435875 111.994126 
L 600.574443 112.306656 
L 601.713011 113.837239 
L 602.85158 114.313869 
L 603.990148 113.954218 
L 605.128716 113.737168 
L 606.267284 116.319196 
L 607.405852 117.908466 
L 608.54442 119.2058 
L 609.682988 118.686626 
L 610.821556 117.670701 
L 611.960124 121.568229 
L 613.098692 118.841656 
L 614.23726 127.65747 
L 615.375828 124.762195 
L 616.514396 124.231511 
L 617.652964 128.238103 
L 618.791532 127.026666 
L 619.9301 125.344308 
L 621.068668 129.82992 
L 622.207236 128.617323 
L 623.345804 131.1754 
L 624.484372 133.266209 
L 625.62294 135.758734 
L 626.761508 137.839856 
L 627.900077 137.219939 
L 629.038645 141.122878 
L 630.177213 141.060473 
L 631.315781 143.644525 
L 632.454349 146.727723 
L 633.592917 149.036737 
L 634.731485 147.93331 
L 635.870053 149.903486 
L 637.008621 153.788948 
L 638.147189 153.68469 
L 639.285757 155.670419 
L 640.424325 161.928954 
L 641.562893 162.197632 
L 642.701461 162.63708 
L 643.840029 165.199138 
L 644.978597 169.002175 
L 647.255733 173.44528 
L 648.394301 174.451654 
L 649.532869 178.033055 
L 650.671437 179.332258 
L 651.810005 181.609672 
L 652.948574 184.488178 
L 654.087142 188.616911 
L 655.22571 189.634919 
L 656.364278 192.053559 
L 657.502846 193.927553 
L 658.641414 199.284345 
L 659.779982 202.853081 
L 660.91855 205.497942 
L 662.057118 205.589444 
L 663.195686 212.098484 
L 664.334254 214.518916 
L 665.472822 217.3498 
L 666.61139 221.885468 
L 667.749958 225.477344 
L 668.888526 226.677186 
L 670.027094 232.343784 
L 672.30423 237.9683 
L 673.442798 242.556749 
L 674.581366 247.954257 
L 675.719934 250.225731 
L 676.858502 253.247049 
L 677.997071 258.901881 
L 679.135639 262.505368 
L 681.412775 272.208035 
L 682.551343 275.395778 
L 683.689911 280.393198 
L 684.828479 283.883776 
L 685.967047 290.349134 
L 688.244183 299.233627 
L 689.382751 305.295119 
L 690.521319 310.01985 
L 692.798455 321.149399 
L 693.937023 328.410831 
L 695.075591 336.41635 
L 696.214159 345.401885 
L 697.352727 363.613345 
L 697.352727 363.613345 
" style="fill:none;stroke:#4c72b0;stroke-linecap:round;stroke-width:1.5;"/>
   </g>
   <g id="line2d_15">
    <path clip-path="url(#pb4ea2908ce)" d="M 129.207273 381.333273 
L 130.345841 380.134525 
L 131.484409 379.55879 
L 132.622977 380.119062 
L 134.900113 379.328238 
L 136.038681 379.358574 
L 137.177249 378.646881 
L 138.315817 378.704795 
L 139.454385 378.304242 
L 140.592953 378.101684 
L 141.731521 377.736449 
L 142.870089 377.162646 
L 144.008657 377.180894 
L 145.147225 376.580158 
L 146.285793 375.662399 
L 147.424361 376.593184 
L 148.562929 375.486456 
L 150.840066 375.555878 
L 151.978634 375.058244 
L 153.117202 374.915885 
L 154.25577 373.474043 
L 155.394338 374.28492 
L 156.532906 372.576542 
L 157.671474 372.838457 
L 158.810042 372.200237 
L 159.94861 371.72784 
L 161.087178 371.676183 
L 162.225746 371.046931 
L 163.364314 371.485137 
L 164.502882 370.667444 
L 165.64145 370.074239 
L 166.780018 369.799127 
L 167.918586 369.669661 
L 169.057154 370.22372 
L 170.195722 369.263498 
L 171.33429 369.28795 
L 172.472858 368.205058 
L 173.611426 368.292261 
L 174.749995 367.530453 
L 175.888563 367.679305 
L 178.165699 366.691537 
L 179.304267 365.990272 
L 181.581403 365.428205 
L 182.719971 364.935263 
L 183.858539 365.61192 
L 184.997107 365.139817 
L 186.135675 363.493756 
L 187.274243 363.721208 
L 188.412811 363.138557 
L 189.551379 363.356118 
L 190.689947 362.465853 
L 191.828515 361.192187 
L 192.967083 361.902607 
L 194.105651 360.637759 
L 195.244219 360.806144 
L 196.382787 359.983317 
L 197.521355 360.239489 
L 198.659923 359.577059 
L 200.93706 358.799007 
L 202.075628 357.459628 
L 204.352764 357.420504 
L 205.491332 356.463138 
L 206.6299 356.82084 
L 207.768468 356.702731 
L 208.907036 354.907085 
L 210.045604 355.248102 
L 211.184172 353.769677 
L 212.32274 354.384276 
L 214.599876 353.554302 
L 215.738444 352.356198 
L 216.877012 352.326216 
L 218.01558 351.580604 
L 219.154148 351.013999 
L 220.292716 350.808924 
L 221.431284 350.489353 
L 222.569852 349.720142 
L 223.70842 348.533711 
L 224.846989 348.288835 
L 225.985557 347.775105 
L 227.124125 348.021399 
L 228.262693 347.567157 
L 230.539829 346.237891 
L 231.678397 346.422485 
L 232.816965 345.511626 
L 233.955533 346.128192 
L 235.094101 343.783322 
L 236.232669 344.981755 
L 237.371237 343.75066 
L 238.509805 342.21601 
L 239.648373 342.270842 
L 241.925509 341.843471 
L 243.064077 340.832971 
L 244.202645 341.087566 
L 246.479781 338.277574 
L 247.618349 338.46881 
L 248.756917 337.574808 
L 249.895486 338.217012 
L 251.034054 338.292116 
L 252.172622 336.789043 
L 253.31119 335.691182 
L 255.588326 335.46472 
L 256.726894 335.008751 
L 257.865462 332.677933 
L 259.00403 333.2924 
L 260.142598 331.411351 
L 261.281166 331.21369 
L 262.419734 331.669464 
L 263.558302 330.917486 
L 264.69687 331.651274 
L 265.835438 329.252805 
L 266.974006 329.011188 
L 268.112574 328.271865 
L 269.251142 328.688491 
L 270.38971 327.429256 
L 271.528278 327.673823 
L 273.805414 325.117817 
L 274.943983 325.104457 
L 276.082551 324.945908 
L 277.221119 323.214117 
L 278.359687 322.844501 
L 279.498255 322.640211 
L 280.636823 320.892926 
L 281.775391 320.899789 
L 282.913959 319.904188 
L 284.052527 320.452712 
L 285.191095 318.414843 
L 286.329663 318.519059 
L 287.468231 319.236551 
L 289.745367 316.033507 
L 290.883935 315.50467 
L 293.161071 314.120556 
L 294.299639 314.669879 
L 296.576775 312.141952 
L 297.715343 311.418343 
L 298.853911 310.159666 
L 299.99248 310.509834 
L 301.131048 309.921056 
L 302.269616 308.003231 
L 303.408184 308.025925 
L 304.546752 307.362688 
L 305.68532 307.19518 
L 306.823888 305.435772 
L 307.962456 304.40045 
L 309.101024 304.767792 
L 310.239592 304.752785 
L 311.37816 303.193634 
L 312.516728 302.904725 
L 313.655296 300.976724 
L 314.793864 301.149232 
L 315.932432 299.701977 
L 317.071 299.710887 
L 318.209568 299.496437 
L 319.348136 298.763264 
L 320.486704 297.660079 
L 321.625272 295.654785 
L 322.76384 295.293255 
L 323.902408 293.647192 
L 325.040976 293.59208 
L 326.179545 293.359262 
L 327.318113 292.865599 
L 328.456681 291.166996 
L 329.595249 291.780463 
L 330.733817 290.108229 
L 331.872385 289.846321 
L 333.010953 287.79359 
L 334.149521 288.112537 
L 335.288089 284.357111 
L 336.426657 285.565955 
L 337.565225 284.59932 
L 338.703793 284.713518 
L 339.842361 281.79179 
L 342.119497 280.667071 
L 343.258065 281.362813 
L 344.396633 279.193232 
L 346.673769 278.883156 
L 347.812337 276.744841 
L 348.950905 275.362954 
L 350.089473 273.555841 
L 351.228042 275.993046 
L 352.36661 273.144048 
L 353.505178 273.023826 
L 354.643746 271.495333 
L 355.782314 271.046685 
L 356.920882 267.917562 
L 358.05945 268.048857 
L 359.198018 267.088068 
L 360.336586 267.711533 
L 361.475154 267.125502 
L 362.613722 265.166359 
L 363.75229 262.152419 
L 364.890858 263.237599 
L 366.029426 262.038763 
L 367.167994 260.335666 
L 368.306562 260.433183 
L 369.44513 260.675183 
L 370.583698 257.450312 
L 371.722266 255.348294 
L 372.860834 255.694975 
L 373.999402 255.569727 
L 375.13797 253.978497 
L 376.276539 253.03414 
L 377.415107 250.392016 
L 378.553675 251.043753 
L 379.692243 250.399058 
L 380.830811 248.891425 
L 381.969379 249.477548 
L 383.107947 245.589652 
L 384.246515 245.546895 
L 385.385083 244.636189 
L 386.523651 243.312789 
L 387.662219 245.039385 
L 388.800787 241.524516 
L 389.939355 241.749195 
L 391.077923 240.396831 
L 392.216491 235.899788 
L 393.355059 235.364499 
L 394.493627 236.006106 
L 395.632195 233.842684 
L 396.770763 233.974831 
L 397.909331 232.706657 
L 399.047899 230.039943 
L 400.186467 233.135591 
L 401.325036 228.942853 
L 402.463604 231.202661 
L 403.602172 226.788811 
L 405.879308 225.10343 
L 407.017876 224.559741 
L 408.156444 224.296576 
L 409.295012 221.074727 
L 410.43358 219.560834 
L 411.572148 219.321487 
L 412.710716 219.779655 
L 413.849284 217.200881 
L 414.987852 217.769649 
L 416.12642 213.812216 
L 417.264988 212.599872 
L 418.403556 214.206255 
L 419.542124 211.440821 
L 420.680692 210.464753 
L 421.81926 208.120835 
L 422.957828 208.140662 
L 424.096396 205.231089 
L 425.234964 204.179581 
L 426.373533 202.636615 
L 427.512101 202.900021 
L 428.650669 201.811796 
L 429.789237 198.365392 
L 430.927805 200.0316 
L 432.066373 199.542856 
L 433.204941 199.296212 
L 435.482077 193.661116 
L 436.620645 191.194559 
L 437.759213 190.78617 
L 438.897781 191.03859 
L 440.036349 191.531485 
L 441.174917 189.004517 
L 442.313485 187.133809 
L 443.452053 186.936366 
L 444.590621 185.429914 
L 445.729189 185.46029 
L 446.867757 180.472266 
L 449.144893 179.745842 
L 450.283461 178.473548 
L 451.42203 177.661497 
L 452.560598 175.251842 
L 453.699166 173.551349 
L 454.837734 172.760108 
L 455.976302 171.816033 
L 457.11487 168.829989 
L 458.253438 170.175383 
L 459.392006 169.745468 
L 460.530574 168.726414 
L 461.669142 164.235665 
L 462.80771 166.436923 
L 463.946278 168.279933 
L 465.084846 162.059332 
L 466.223414 160.213916 
L 467.361982 159.964361 
L 468.50055 157.074454 
L 469.639118 156.544408 
L 470.777686 159.147994 
L 473.054822 152.759473 
L 474.19339 152.464451 
L 475.331958 152.875446 
L 476.470527 149.375893 
L 477.609095 146.504806 
L 478.747663 150.373146 
L 479.886231 146.79793 
L 481.024799 144.869555 
L 482.163367 142.091788 
L 483.301935 144.476589 
L 484.440503 140.474471 
L 485.579071 139.067952 
L 486.717639 136.835947 
L 487.856207 138.885077 
L 488.994775 134.676901 
L 490.133343 137.32897 
L 491.271911 128.152265 
L 492.410479 129.548224 
L 493.549047 132.349425 
L 494.687615 130.642016 
L 495.826183 128.352098 
L 496.964751 131.300427 
L 498.103319 126.206327 
L 499.241887 125.894283 
L 500.380455 128.386235 
L 501.519024 124.806183 
L 502.657592 119.2405 
L 503.79616 120.364125 
L 504.934728 117.707355 
L 506.073296 119.259605 
L 507.211864 118.258718 
L 508.350432 114.410269 
L 509.489 113.467568 
L 510.627568 110.28307 
L 511.766136 115.201716 
L 512.904704 108.412191 
L 514.043272 109.391464 
L 516.320408 106.440644 
L 517.458976 103.331469 
L 518.597544 107.471697 
L 519.736112 104.96258 
L 520.87468 104.112048 
L 522.013248 100.154221 
L 523.151816 103.913693 
L 524.290384 99.954547 
L 525.428952 99.880462 
L 526.56752 99.448619 
L 527.706089 99.639819 
L 528.844657 99.227408 
L 529.983225 93.895069 
L 531.121793 94.646519 
L 532.260361 93.093814 
L 533.398929 90.968705 
L 534.537497 95.011737 
L 535.676065 89.98841 
L 536.814633 90.849756 
L 537.953201 89.021528 
L 539.091769 90.193311 
L 540.230337 89.886526 
L 541.368905 85.823442 
L 542.507473 86.894506 
L 543.646041 85.170181 
L 544.784609 86.276067 
L 545.923177 86.519342 
L 547.061745 87.335816 
L 548.200313 78.60715 
L 549.338881 84.61455 
L 550.477449 83.645709 
L 551.616017 80.979145 
L 552.754586 80.777667 
L 553.893154 78.904235 
L 555.031722 79.547353 
L 556.17029 79.190337 
L 557.308858 78.42445 
L 558.447426 77.900532 
L 559.585994 75.842306 
L 560.724562 76.777351 
L 561.86313 79.35066 
L 563.001698 79.49232 
L 564.140266 77.509182 
L 565.278834 72.385833 
L 566.417402 74.224048 
L 567.55597 77.707478 
L 568.694538 75.623708 
L 569.833106 74.334992 
L 570.971674 79.289435 
L 572.110242 73.919237 
L 573.24881 74.380819 
L 574.387378 77.541172 
L 575.525946 73.284093 
L 576.664514 77.254932 
L 577.803083 77.957939 
L 578.941651 75.128054 
L 580.080219 73.878469 
L 581.218787 79.307442 
L 582.357355 76.279036 
L 583.495923 75.259156 
L 584.634491 79.489445 
L 585.773059 74.259432 
L 586.911627 73.027445 
L 588.050195 73.869789 
L 589.188763 77.650915 
L 590.327331 77.720055 
L 591.465899 77.946226 
L 592.604467 78.024494 
L 593.743035 80.8824 
L 594.881603 77.123305 
L 596.020171 80.241699 
L 597.158739 79.987501 
L 598.297307 83.740747 
L 599.435875 82.468851 
L 600.574443 86.514881 
L 601.713011 80.910325 
L 602.85158 79.983823 
L 603.990148 86.091383 
L 605.128716 89.595658 
L 606.267284 89.266042 
L 607.405852 87.402508 
L 608.54442 91.146449 
L 609.682988 89.540311 
L 610.821556 93.00074 
L 611.960124 97.651389 
L 613.098692 98.764377 
L 614.23726 94.726511 
L 615.375828 96.595503 
L 616.514396 102.516613 
L 617.652964 103.756773 
L 619.9301 108.358895 
L 621.068668 105.048577 
L 622.207236 110.172127 
L 623.345804 111.51844 
L 624.484372 109.757967 
L 625.62294 112.408911 
L 626.761508 115.952302 
L 627.900077 119.051 
L 629.038645 119.081029 
L 630.177213 119.974142 
L 631.315781 124.01993 
L 632.454349 125.748756 
L 633.592917 132.601236 
L 634.731485 135.3731 
L 635.870053 138.463069 
L 637.008621 134.973203 
L 638.147189 140.601045 
L 639.285757 139.81089 
L 640.424325 140.230089 
L 641.562893 149.661206 
L 642.701461 151.094057 
L 643.840029 153.407523 
L 644.978597 156.091864 
L 646.117165 161.458486 
L 647.255733 162.98145 
L 648.394301 163.975153 
L 649.532869 165.997655 
L 650.671437 172.294018 
L 651.810005 175.905446 
L 652.948574 177.331967 
L 655.22571 186.116918 
L 657.502846 193.562037 
L 658.641414 197.828283 
L 659.779982 201.080127 
L 660.91855 205.942339 
L 662.057118 209.173912 
L 663.195686 211.162041 
L 664.334254 216.582409 
L 665.472822 219.309937 
L 666.61139 223.467448 
L 667.749958 228.248888 
L 668.888526 231.572978 
L 671.165662 241.698064 
L 672.30423 245.042073 
L 673.442798 251.370612 
L 674.581366 255.285102 
L 675.719934 259.928876 
L 676.858502 263.717286 
L 677.997071 268.285543 
L 680.274207 280.33576 
L 681.412775 285.120128 
L 682.551343 288.582328 
L 683.689911 295.601072 
L 684.828479 300.611781 
L 685.967047 304.1228 
L 687.105615 310.513565 
L 688.244183 316.020676 
L 689.382751 320.766472 
L 690.521319 327.522247 
L 691.659887 333.254791 
L 693.937023 347.252114 
L 695.075591 354.059584 
L 696.214159 362.826002 
L 697.352727 380.410912 
L 697.352727 380.410912 
" style="fill:none;stroke:#dd8452;stroke-linecap:round;stroke-width:1.5;"/>
   </g>
   <g id="line2d_16">
    <path clip-path="url(#pb4ea2908ce)" d="M 129.207273 380.448099 
L 130.345841 380.68642 
L 131.484409 379.718009 
L 132.622977 380.21033 
L 133.761545 379.05594 
L 134.900113 379.533244 
L 138.315817 378.176304 
L 139.454385 378.356572 
L 140.592953 377.418707 
L 141.731521 377.37793 
L 142.870089 377.091421 
L 145.147225 376.247737 
L 146.285793 376.289499 
L 147.424361 375.530286 
L 148.562929 375.899662 
L 151.978634 374.043002 
L 153.117202 374.095509 
L 154.25577 373.727285 
L 155.394338 373.896314 
L 156.532906 373.613582 
L 157.671474 372.362438 
L 158.810042 373.173652 
L 159.94861 372.058377 
L 161.087178 371.912393 
L 162.225746 370.888442 
L 163.364314 371.010948 
L 164.502882 371.008779 
L 165.64145 370.362667 
L 166.780018 370.331646 
L 167.918586 369.937319 
L 169.057154 368.876591 
L 171.33429 369.194385 
L 172.472858 367.955868 
L 173.611426 368.234003 
L 174.749995 367.554496 
L 175.888563 367.209382 
L 177.027131 367.693704 
L 178.165699 366.690661 
L 180.442835 365.94471 
L 181.581403 365.919214 
L 183.858539 364.667434 
L 184.997107 364.551639 
L 186.135675 364.095131 
L 187.274243 363.369974 
L 189.551379 362.741035 
L 191.828515 362.759153 
L 192.967083 361.376819 
L 194.105651 360.850074 
L 195.244219 360.735093 
L 196.382787 360.493509 
L 197.521355 360.136927 
L 198.659923 359.070277 
L 199.798492 358.447717 
L 200.93706 358.697177 
L 202.075628 358.362594 
L 203.214196 358.200881 
L 205.491332 356.683644 
L 206.6299 355.636582 
L 207.768468 355.894892 
L 210.045604 355.253053 
L 211.184172 354.487444 
L 212.32274 354.742365 
L 213.461308 353.547294 
L 214.599876 353.672898 
L 215.738444 352.715666 
L 216.877012 352.168464 
L 218.01558 352.555574 
L 219.154148 352.269491 
L 220.292716 350.725371 
L 221.431284 351.035658 
L 222.569852 349.80054 
L 223.70842 348.927025 
L 224.846989 349.173408 
L 225.985557 348.483474 
L 227.124125 348.097403 
L 228.262693 347.896382 
L 229.401261 346.805193 
L 230.539829 346.037515 
L 232.816965 345.283887 
L 233.955533 345.884154 
L 235.094101 345.147441 
L 236.232669 344.948639 
L 237.371237 344.527808 
L 238.509805 343.625701 
L 239.648373 343.075217 
L 240.786941 341.846881 
L 241.925509 341.621906 
L 244.202645 340.510028 
L 245.341213 340.663628 
L 246.479781 339.078867 
L 247.618349 340.150157 
L 248.756917 338.506924 
L 249.895486 337.847434 
L 251.034054 336.900355 
L 252.172622 337.01675 
L 253.31119 336.012739 
L 254.449758 335.832989 
L 255.588326 335.181908 
L 257.865462 333.498644 
L 259.00403 333.584938 
L 260.142598 332.274476 
L 261.281166 331.52991 
L 262.419734 331.928148 
L 263.558302 331.269585 
L 264.69687 330.474709 
L 265.835438 329.986841 
L 266.974006 329.149487 
L 268.112574 328.66776 
L 270.38971 328.429232 
L 271.528278 327.142761 
L 272.666846 324.91188 
L 273.805414 325.553236 
L 274.943983 324.505462 
L 276.082551 324.537657 
L 278.359687 323.866674 
L 279.498255 322.141319 
L 281.775391 321.262624 
L 282.913959 319.790821 
L 284.052527 319.098756 
L 285.191095 319.826232 
L 286.329663 318.089391 
L 287.468231 317.53279 
L 288.606799 317.974738 
L 289.745367 316.395681 
L 290.883935 316.154448 
L 292.022503 316.643247 
L 293.161071 315.119099 
L 294.299639 313.121624 
L 295.438207 313.669505 
L 296.576775 313.492035 
L 297.715343 310.613331 
L 298.853911 311.862469 
L 299.99248 310.680304 
L 301.131048 308.522337 
L 302.269616 309.899881 
L 303.408184 307.682685 
L 304.546752 308.303068 
L 305.68532 305.923564 
L 306.823888 306.321504 
L 307.962456 304.41497 
L 309.101024 305.53861 
L 310.239592 303.266548 
L 311.37816 302.469158 
L 312.516728 301.997773 
L 313.655296 301.689431 
L 314.793864 301.810836 
L 315.932432 300.466877 
L 317.071 300.492659 
L 318.209568 298.05009 
L 319.348136 298.592357 
L 320.486704 296.773901 
L 321.625272 295.506654 
L 322.76384 294.585892 
L 323.902408 295.05931 
L 325.040976 293.498408 
L 329.595249 290.559448 
L 330.733817 290.357736 
L 331.872385 289.982088 
L 333.010953 285.785665 
L 335.288089 287.850646 
L 336.426657 286.253032 
L 337.565225 285.739932 
L 338.703793 283.877986 
L 339.842361 282.910848 
L 340.980929 282.768113 
L 342.119497 281.9204 
L 343.258065 281.327746 
L 345.535201 278.647558 
L 346.673769 278.171321 
L 347.812337 276.475272 
L 348.950905 276.882251 
L 350.089473 274.374553 
L 351.228042 274.036925 
L 352.36661 274.725802 
L 353.505178 271.670071 
L 354.643746 270.359009 
L 355.782314 270.18029 
L 359.198018 268.747611 
L 360.336586 266.376567 
L 361.475154 265.681885 
L 362.613722 263.922793 
L 363.75229 263.368365 
L 364.890858 262.296599 
L 366.029426 263.084706 
L 367.167994 260.906384 
L 368.306562 260.542276 
L 370.583698 256.767494 
L 371.722266 256.855493 
L 372.860834 256.148267 
L 373.999402 254.539936 
L 375.13797 252.430792 
L 376.276539 254.072072 
L 377.415107 252.544939 
L 378.553675 249.993713 
L 379.692243 249.83327 
L 380.830811 248.303752 
L 381.969379 247.424402 
L 383.107947 246.825003 
L 384.246515 246.414358 
L 386.523651 242.658961 
L 387.662219 242.521362 
L 388.800787 242.105004 
L 389.939355 241.241947 
L 391.077923 241.929854 
L 392.216491 237.306598 
L 393.355059 235.663566 
L 394.493627 235.450493 
L 395.632195 235.58146 
L 396.770763 233.658133 
L 397.909331 233.057617 
L 399.047899 232.970737 
L 400.186467 233.698029 
L 401.325036 228.971455 
L 402.463604 229.996445 
L 403.602172 224.475152 
L 404.74074 226.480885 
L 405.879308 226.306425 
L 407.017876 223.178124 
L 408.156444 225.303182 
L 409.295012 222.575552 
L 410.43358 220.410514 
L 411.572148 220.315208 
L 412.710716 219.817548 
L 413.849284 217.511292 
L 414.987852 217.206055 
L 416.12642 214.352698 
L 417.264988 213.726317 
L 418.403556 213.526983 
L 419.542124 211.005134 
L 420.680692 211.44492 
L 421.81926 208.447173 
L 422.957828 208.94101 
L 424.096396 204.398782 
L 425.234964 207.502203 
L 426.373533 206.677263 
L 427.512101 204.462811 
L 428.650669 202.900353 
L 429.789237 202.1984 
L 430.927805 198.049939 
L 432.066373 200.914007 
L 433.204941 196.911658 
L 434.343509 195.087148 
L 435.482077 193.686091 
L 436.620645 196.821373 
L 437.759213 192.767971 
L 440.036349 189.541834 
L 441.174917 186.919882 
L 442.313485 190.485149 
L 443.452053 187.098277 
L 444.590621 185.000889 
L 445.729189 184.428263 
L 446.867757 185.28599 
L 448.006325 180.895527 
L 450.283461 179.261174 
L 451.42203 176.288983 
L 452.560598 174.95046 
L 453.699166 174.535096 
L 454.837734 175.500588 
L 455.976302 173.741948 
L 457.11487 167.935724 
L 458.253438 171.548512 
L 459.392006 166.868372 
L 460.530574 167.911666 
L 461.669142 170.223879 
L 462.80771 165.623127 
L 463.946278 162.741992 
L 465.084846 165.71657 
L 466.223414 161.277259 
L 467.361982 157.780263 
L 468.50055 157.675476 
L 469.639118 159.452991 
L 470.777686 156.333352 
L 471.916254 157.256869 
L 473.054822 152.77669 
L 474.19339 151.734286 
L 475.331958 151.170597 
L 476.470527 149.094519 
L 477.609095 148.894916 
L 478.747663 144.524591 
L 479.886231 146.996504 
L 481.024799 145.822016 
L 482.163367 145.883793 
L 483.301935 143.420603 
L 484.440503 142.326564 
L 485.579071 142.045287 
L 486.717639 138.692511 
L 487.856207 137.672752 
L 488.994775 136.823287 
L 490.133343 133.350794 
L 491.271911 133.784629 
L 492.410479 130.174341 
L 493.549047 134.067561 
L 494.687615 131.039521 
L 495.826183 128.626671 
L 496.964751 128.832484 
L 498.103319 125.44943 
L 499.241887 128.398261 
L 500.380455 119.807339 
L 501.519024 125.625445 
L 502.657592 116.631491 
L 503.79616 120.4331 
L 504.934728 123.661152 
L 506.073296 117.669393 
L 507.211864 114.443185 
L 508.350432 115.569971 
L 509.489 114.071692 
L 510.627568 111.678697 
L 511.766136 111.905179 
L 512.904704 110.389645 
L 514.043272 109.917537 
L 515.18184 107.446608 
L 516.320408 109.311368 
L 517.458976 110.787754 
L 518.597544 104.282304 
L 519.736112 103.99926 
L 520.87468 103.133858 
L 522.013248 103.075158 
L 524.290384 98.264253 
L 525.428952 97.454644 
L 526.56752 100.109569 
L 527.706089 96.358092 
L 528.844657 97.905408 
L 529.983225 99.025157 
L 531.121793 93.391556 
L 532.260361 94.930892 
L 533.398929 91.320787 
L 534.537497 93.737078 
L 535.676065 93.1661 
L 536.814633 94.866083 
L 537.953201 88.682047 
L 539.091769 87.580563 
L 540.230337 85.524115 
L 541.368905 88.350172 
L 542.507473 87.076332 
L 543.646041 85.116104 
L 544.784609 85.293216 
L 545.923177 81.515441 
L 547.061745 79.419837 
L 548.200313 83.874108 
L 549.338881 79.836594 
L 550.477449 85.488383 
L 551.616017 80.593765 
L 552.754586 80.965813 
L 553.893154 79.52282 
L 555.031722 78.343 
L 556.17029 80.780806 
L 557.308858 79.49935 
L 558.447426 76.033483 
L 559.585994 71.297606 
L 560.724562 77.445887 
L 561.86313 78.538333 
L 563.001698 78.630146 
L 564.140266 76.562323 
L 565.278834 77.021036 
L 566.417402 73.026317 
L 567.55597 72.786581 
L 568.694538 76.517896 
L 569.833106 73.409586 
L 570.971674 71.807529 
L 572.110242 74.48879 
L 573.24881 74.007958 
L 574.387378 72.978533 
L 575.525946 69.998727 
L 576.664514 73.353887 
L 577.803083 72.789219 
L 578.941651 75.281918 
L 581.218787 72.556399 
L 583.495923 75.897068 
L 584.634491 72.073428 
L 585.773059 75.978733 
L 586.911627 77.975255 
L 588.050195 79.37662 
L 589.188763 75.325362 
L 590.327331 76.9424 
L 591.465899 79.572648 
L 592.604467 80.203357 
L 593.743035 78.034399 
L 594.881603 80.853698 
L 596.020171 80.579852 
L 597.158739 78.570725 
L 598.297307 80.203868 
L 599.435875 82.282304 
L 600.574443 82.70966 
L 601.713011 84.801063 
L 602.85158 85.451815 
L 603.990148 84.9608 
L 605.128716 84.664403 
L 606.267284 88.187014 
L 607.405852 90.351603 
L 608.54442 92.116519 
L 609.682988 91.410448 
L 610.821556 90.027942 
L 611.960124 95.325644 
L 613.098692 91.621318 
L 614.23726 103.568683 
L 615.375828 99.654494 
L 616.514396 98.936033 
L 617.652964 104.352522 
L 618.791532 102.716685 
L 619.9301 100.44222 
L 621.068668 106.499483 
L 622.207236 104.864254 
L 623.345804 108.311963 
L 624.484372 111.12439 
L 625.62294 114.470663 
L 626.761508 117.259157 
L 627.900077 116.429053 
L 629.038645 121.647906 
L 630.177213 121.564599 
L 631.315781 125.010335 
L 632.454349 129.111423 
L 633.592917 132.175388 
L 634.731485 130.711974 
L 635.870053 133.323894 
L 637.008621 138.461389 
L 638.147189 138.323772 
L 639.285757 140.942616 
L 640.424325 149.165234 
L 641.562893 149.517155 
L 642.701461 150.092566 
L 643.840029 153.442548 
L 644.978597 158.400094 
L 647.255733 164.168982 
L 648.394301 165.472169 
L 649.532869 170.09933 
L 650.671437 171.773814 
L 651.810005 174.70379 
L 652.948574 178.397405 
L 654.087142 183.676211 
L 655.22571 184.974308 
L 656.364278 188.052831 
L 657.502846 190.432694 
L 658.641414 197.209151 
L 659.779982 201.70175 
L 660.91855 205.019845 
L 662.057118 205.134463 
L 663.195686 213.257353 
L 664.334254 216.262412 
L 665.472822 219.766258 
L 666.61139 225.355589 
L 667.749958 229.760131 
L 668.888526 231.227107 
L 670.027094 238.125621 
L 672.30423 244.923653 
L 673.442798 250.432351 
L 674.581366 256.868806 
L 675.719934 259.56319 
L 676.858502 263.133686 
L 677.997071 269.77481 
L 679.135639 273.97802 
L 681.412775 285.180882 
L 682.551343 288.824077 
L 683.689911 294.497167 
L 684.828479 298.431365 
L 685.967047 305.655281 
L 688.244183 315.443799 
L 689.382751 322.026379 
L 690.521319 327.101327 
L 692.798455 338.852933 
L 695.075591 354.475343 
L 696.214159 363.375764 
L 697.352727 380.657005 
L 697.352727 380.657005 
" style="fill:none;stroke:#55a868;stroke-linecap:round;stroke-width:1.5;"/>
   </g>
   <g id="patch_3">
    <path d="M 100.8 396.9 
L 100.8 54.432 
" style="fill:none;stroke:#cccccc;stroke-linecap:square;stroke-linejoin:miter;stroke-width:1.25;"/>
   </g>
   <g id="patch_4">
    <path d="M 725.76 396.9 
L 725.76 54.432 
" style="fill:none;stroke:#cccccc;stroke-linecap:square;stroke-linejoin:miter;stroke-width:1.25;"/>
   </g>
   <g id="patch_5">
    <path d="M 100.8 396.9 
L 725.76 396.9 
" style="fill:none;stroke:#cccccc;stroke-linecap:square;stroke-linejoin:miter;stroke-width:1.25;"/>
   </g>
   <g id="patch_6">
    <path d="M 100.8 54.432 
L 725.76 54.432 
" style="fill:none;stroke:#cccccc;stroke-linecap:square;stroke-linejoin:miter;stroke-width:1.25;"/>
   </g>
   <g id="legend_1">
    <g id="patch_7">
     <path d="M 108.5 114.162 
L 293.08 114.162 
Q 295.28 114.162 295.28 111.962 
L 295.28 62.132 
Q 295.28 59.932 293.08 59.932 
L 108.5 59.932 
Q 106.3 59.932 106.3 62.132 
L 106.3 111.962 
Q 106.3 114.162 108.5 114.162 
z
" style="fill:#ffffff;opacity:0.8;stroke:#cccccc;stroke-linejoin:miter;"/>
    </g>
    <g id="line2d_17">
     <path d="M 110.7 69.414344 
L 132.7 69.414344 
" style="fill:none;stroke:#4c72b0;stroke-linecap:round;stroke-width:1.5;"/>
    </g>
    <g id="line2d_18"/>
    <g id="text_14">
     <!-- $\mathrm{softmax}(\vec x)$ -->
     <defs>
      <path d="M 44.28125 53.078125 
L 44.28125 44.578125 
Q 40.484375 46.53125 36.375 47.5 
Q 32.28125 48.484375 27.875 48.484375 
Q 21.1875 48.484375 17.84375 46.4375 
Q 14.5 44.390625 14.5 40.28125 
Q 14.5 37.15625 16.890625 35.375 
Q 19.28125 33.59375 26.515625 31.984375 
L 29.59375 31.296875 
Q 39.15625 29.25 43.1875 25.515625 
Q 47.21875 21.78125 47.21875 15.09375 
Q 47.21875 7.46875 41.1875 3.015625 
Q 35.15625 -1.421875 24.609375 -1.421875 
Q 20.21875 -1.421875 15.453125 -0.5625 
Q 10.6875 0.296875 5.421875 2 
L 5.421875 11.28125 
Q 10.40625 8.6875 15.234375 7.390625 
Q 20.0625 6.109375 24.8125 6.109375 
Q 31.15625 6.109375 34.5625 8.28125 
Q 37.984375 10.453125 37.984375 14.40625 
Q 37.984375 18.0625 35.515625 20.015625 
Q 33.0625 21.96875 24.703125 23.78125 
L 21.578125 24.515625 
Q 13.234375 26.265625 9.515625 29.90625 
Q 5.8125 33.546875 5.8125 39.890625 
Q 5.8125 47.609375 11.28125 51.796875 
Q 16.75 56 26.8125 56 
Q 31.78125 56 36.171875 55.265625 
Q 40.578125 54.546875 44.28125 53.078125 
z
" id="DejaVuSans-115"/>
      <path d="M 30.609375 48.390625 
Q 23.390625 48.390625 19.1875 42.75 
Q 14.984375 37.109375 14.984375 27.296875 
Q 14.984375 17.484375 19.15625 11.84375 
Q 23.34375 6.203125 30.609375 6.203125 
Q 37.796875 6.203125 41.984375 11.859375 
Q 46.1875 17.53125 46.1875 27.296875 
Q 46.1875 37.015625 41.984375 42.703125 
Q 37.796875 48.390625 30.609375 48.390625 
z
M 30.609375 56 
Q 42.328125 56 49.015625 48.375 
Q 55.71875 40.765625 55.71875 27.296875 
Q 55.71875 13.875 49.015625 6.21875 
Q 42.328125 -1.421875 30.609375 -1.421875 
Q 18.84375 -1.421875 12.171875 6.21875 
Q 5.515625 13.875 5.515625 27.296875 
Q 5.515625 40.765625 12.171875 48.375 
Q 18.84375 56 30.609375 56 
z
" id="DejaVuSans-111"/>
      <path d="M 37.109375 75.984375 
L 37.109375 68.5 
L 28.515625 68.5 
Q 23.6875 68.5 21.796875 66.546875 
Q 19.921875 64.59375 19.921875 59.515625 
L 19.921875 54.6875 
L 34.71875 54.6875 
L 34.71875 47.703125 
L 19.921875 47.703125 
L 19.921875 0 
L 10.890625 0 
L 10.890625 47.703125 
L 2.296875 47.703125 
L 2.296875 54.6875 
L 10.890625 54.6875 
L 10.890625 58.5 
Q 10.890625 67.625 15.140625 71.796875 
Q 19.390625 75.984375 28.609375 75.984375 
z
" id="DejaVuSans-102"/>
      <path d="M 18.3125 70.21875 
L 18.3125 54.6875 
L 36.8125 54.6875 
L 36.8125 47.703125 
L 18.3125 47.703125 
L 18.3125 18.015625 
Q 18.3125 11.328125 20.140625 9.421875 
Q 21.96875 7.515625 27.59375 7.515625 
L 36.8125 7.515625 
L 36.8125 0 
L 27.59375 0 
Q 17.1875 0 13.234375 3.875 
Q 9.28125 7.765625 9.28125 18.015625 
L 9.28125 47.703125 
L 2.6875 47.703125 
L 2.6875 54.6875 
L 9.28125 54.6875 
L 9.28125 70.21875 
z
" id="DejaVuSans-116"/>
      <path d="M 52 44.1875 
Q 55.375 50.25 60.0625 53.125 
Q 64.75 56 71.09375 56 
Q 79.640625 56 84.28125 50.015625 
Q 88.921875 44.046875 88.921875 33.015625 
L 88.921875 0 
L 79.890625 0 
L 79.890625 32.71875 
Q 79.890625 40.578125 77.09375 44.375 
Q 74.3125 48.1875 68.609375 48.1875 
Q 61.625 48.1875 57.5625 43.546875 
Q 53.515625 38.921875 53.515625 30.90625 
L 53.515625 0 
L 44.484375 0 
L 44.484375 32.71875 
Q 44.484375 40.625 41.703125 44.40625 
Q 38.921875 48.1875 33.109375 48.1875 
Q 26.21875 48.1875 22.15625 43.53125 
Q 18.109375 38.875 18.109375 30.90625 
L 18.109375 0 
L 9.078125 0 
L 9.078125 54.6875 
L 18.109375 54.6875 
L 18.109375 46.1875 
Q 21.1875 51.21875 25.484375 53.609375 
Q 29.78125 56 35.6875 56 
Q 41.65625 56 45.828125 52.96875 
Q 50 49.953125 52 44.1875 
z
" id="DejaVuSans-109"/>
      <path d="M 34.28125 27.484375 
Q 23.390625 27.484375 19.1875 25 
Q 14.984375 22.515625 14.984375 16.5 
Q 14.984375 11.71875 18.140625 8.90625 
Q 21.296875 6.109375 26.703125 6.109375 
Q 34.1875 6.109375 38.703125 11.40625 
Q 43.21875 16.703125 43.21875 25.484375 
L 43.21875 27.484375 
z
M 52.203125 31.203125 
L 52.203125 0 
L 43.21875 0 
L 43.21875 8.296875 
Q 40.140625 3.328125 35.546875 0.953125 
Q 30.953125 -1.421875 24.3125 -1.421875 
Q 15.921875 -1.421875 10.953125 3.296875 
Q 6 8.015625 6 15.921875 
Q 6 25.140625 12.171875 29.828125 
Q 18.359375 34.515625 30.609375 34.515625 
L 43.21875 34.515625 
L 43.21875 35.40625 
Q 43.21875 41.609375 39.140625 45 
Q 35.0625 48.390625 27.6875 48.390625 
Q 23 48.390625 18.546875 47.265625 
Q 14.109375 46.140625 10.015625 43.890625 
L 10.015625 52.203125 
Q 14.9375 54.109375 19.578125 55.046875 
Q 24.21875 56 28.609375 56 
Q 40.484375 56 46.34375 49.84375 
Q 52.203125 43.703125 52.203125 31.203125 
z
" id="DejaVuSans-97"/>
      <path d="M 54.890625 54.6875 
L 35.109375 28.078125 
L 55.90625 0 
L 45.3125 0 
L 29.390625 21.484375 
L 13.484375 0 
L 2.875 0 
L 24.125 28.609375 
L 4.6875 54.6875 
L 15.28125 54.6875 
L 29.78125 35.203125 
L 44.28125 54.6875 
z
" id="DejaVuSans-120"/>
      <path d="M 31 75.875 
Q 24.46875 64.65625 21.28125 53.65625 
Q 18.109375 42.671875 18.109375 31.390625 
Q 18.109375 20.125 21.3125 9.0625 
Q 24.515625 -2 31 -13.1875 
L 23.1875 -13.1875 
Q 15.875 -1.703125 12.234375 9.375 
Q 8.59375 20.453125 8.59375 31.390625 
Q 8.59375 42.28125 12.203125 53.3125 
Q 15.828125 64.359375 23.1875 75.875 
z
" id="DejaVuSans-40"/>
      <path d="M -47.015625 63.53125 
L -47.015625 68.40625 
L -10.84375 68.40625 
L -17.28125 75.984375 
L -11.140625 75.984375 
L -2.59375 65.96875 
L -11.140625 55.953125 
L -17.28125 55.953125 
L -10.84375 63.53125 
z
" id="DejaVuSans-8407"/>
      <path d="M 60.015625 54.6875 
L 34.90625 27.875 
L 50.296875 0 
L 39.984375 0 
L 28.421875 21.6875 
L 8.296875 0 
L -2.59375 0 
L 24.3125 28.8125 
L 10.015625 54.6875 
L 20.3125 54.6875 
L 30.8125 34.90625 
L 49.125 54.6875 
z
" id="DejaVuSans-Oblique-120"/>
      <path d="M 8.015625 75.875 
L 15.828125 75.875 
Q 23.140625 64.359375 26.78125 53.3125 
Q 30.421875 42.28125 30.421875 31.390625 
Q 30.421875 20.453125 26.78125 9.375 
Q 23.140625 -1.703125 15.828125 -13.1875 
L 8.015625 -13.1875 
Q 14.5 -2 17.703125 9.0625 
Q 20.90625 20.125 20.90625 31.390625 
Q 20.90625 42.671875 17.703125 53.65625 
Q 14.5 64.65625 8.015625 75.875 
z
" id="DejaVuSans-41"/>
     </defs>
     <g style="fill:#262626;" transform="translate(141.5 73.264344)scale(0.11 -0.11)">
      <use transform="translate(0 0.78125)" xlink:href="#DejaVuSans-115"/>
      <use transform="translate(52.099609 0.78125)" xlink:href="#DejaVuSans-111"/>
      <use transform="translate(113.28125 0.78125)" xlink:href="#DejaVuSans-102"/>
      <use transform="translate(148.486328 0.78125)" xlink:href="#DejaVuSans-116"/>
      <use transform="translate(187.695312 0.78125)" xlink:href="#DejaVuSans-109"/>
      <use transform="translate(285.107422 0.78125)" xlink:href="#DejaVuSans-97"/>
      <use transform="translate(346.386719 0.78125)" xlink:href="#DejaVuSans-120"/>
      <use transform="translate(405.566406 0.78125)" xlink:href="#DejaVuSans-40"/>
      <use transform="translate(508.244141 12.015625)" xlink:href="#DejaVuSans-8407"/>
      <use transform="translate(444.580078 0.78125)" xlink:href="#DejaVuSans-Oblique-120"/>
      <use transform="translate(507.173828 0.78125)" xlink:href="#DejaVuSans-41"/>
     </g>
    </g>
    <g id="line2d_19">
     <path d="M 110.7 86.134344 
L 132.7 86.134344 
" style="fill:none;stroke:#dd8452;stroke-linecap:round;stroke-width:1.5;"/>
    </g>
    <g id="line2d_20"/>
    <g id="text_15">
     <!-- $\mathrm{softmax}(\vec x, t=0.8)$ -->
     <defs>
      <path d="M 11.71875 12.40625 
L 22.015625 12.40625 
L 22.015625 4 
L 14.015625 -11.625 
L 7.71875 -11.625 
L 11.71875 4 
z
" id="DejaVuSans-44"/>
      <path d="M 42.28125 54.6875 
L 40.921875 47.703125 
L 23 47.703125 
L 17.1875 18.015625 
Q 16.890625 16.359375 16.75 15.234375 
Q 16.609375 14.109375 16.609375 13.484375 
Q 16.609375 10.359375 18.484375 8.9375 
Q 20.359375 7.515625 24.515625 7.515625 
L 33.59375 7.515625 
L 32.078125 0 
L 23.484375 0 
Q 15.484375 0 11.546875 3.125 
Q 7.625 6.25 7.625 12.59375 
Q 7.625 13.71875 7.765625 15.0625 
Q 7.90625 16.40625 8.203125 18.015625 
L 14.015625 47.703125 
L 6.390625 47.703125 
L 7.8125 54.6875 
L 15.28125 54.6875 
L 18.3125 70.21875 
L 27.296875 70.21875 
L 24.3125 54.6875 
z
" id="DejaVuSans-Oblique-116"/>
      <path d="M 10.59375 45.40625 
L 73.1875 45.40625 
L 73.1875 37.203125 
L 10.59375 37.203125 
z
M 10.59375 25.484375 
L 73.1875 25.484375 
L 73.1875 17.1875 
L 10.59375 17.1875 
z
" id="DejaVuSans-61"/>
     </defs>
     <g style="fill:#262626;" transform="translate(141.5 89.984344)scale(0.11 -0.11)">
      <use transform="translate(0 0.78125)" xlink:href="#DejaVuSans-115"/>
      <use transform="translate(52.099609 0.78125)" xlink:href="#DejaVuSans-111"/>
      <use transform="translate(113.28125 0.78125)" xlink:href="#DejaVuSans-102"/>
      <use transform="translate(148.486328 0.78125)" xlink:href="#DejaVuSans-116"/>
      <use transform="translate(187.695312 0.78125)" xlink:href="#DejaVuSans-109"/>
      <use transform="translate(285.107422 0.78125)" xlink:href="#DejaVuSans-97"/>
      <use transform="translate(346.386719 0.78125)" xlink:href="#DejaVuSans-120"/>
      <use transform="translate(405.566406 0.78125)" xlink:href="#DejaVuSans-40"/>
      <use transform="translate(508.244141 12.015625)" xlink:href="#DejaVuSans-8407"/>
      <use transform="translate(444.580078 0.78125)" xlink:href="#DejaVuSans-Oblique-120"/>
      <use transform="translate(507.173828 0.78125)" xlink:href="#DejaVuSans-44"/>
      <use transform="translate(558.443359 0.78125)" xlink:href="#DejaVuSans-Oblique-116"/>
      <use transform="translate(617.134766 0.78125)" xlink:href="#DejaVuSans-61"/>
      <use transform="translate(720.40625 0.78125)" xlink:href="#DejaVuSans-48"/>
      <use transform="translate(784.029297 0.78125)" xlink:href="#DejaVuSans-46"/>
      <use transform="translate(813.191406 0.78125)" xlink:href="#DejaVuSans-56"/>
      <use transform="translate(876.814453 0.78125)" xlink:href="#DejaVuSans-41"/>
     </g>
    </g>
    <g id="line2d_21">
     <path d="M 110.7 103.602 
L 132.7 103.602 
" style="fill:none;stroke:#55a868;stroke-linecap:round;stroke-width:1.5;"/>
    </g>
    <g id="line2d_22"/>
    <g id="text_16">
     <!-- $\mathrm{sample}(\mathrm{softmax}(\vec x), t=0.8)$ -->
     <defs>
      <path d="M 18.109375 8.203125 
L 18.109375 -20.796875 
L 9.078125 -20.796875 
L 9.078125 54.6875 
L 18.109375 54.6875 
L 18.109375 46.390625 
Q 20.953125 51.265625 25.265625 53.625 
Q 29.59375 56 35.59375 56 
Q 45.5625 56 51.78125 48.09375 
Q 58.015625 40.1875 58.015625 27.296875 
Q 58.015625 14.40625 51.78125 6.484375 
Q 45.5625 -1.421875 35.59375 -1.421875 
Q 29.59375 -1.421875 25.265625 0.953125 
Q 20.953125 3.328125 18.109375 8.203125 
z
M 48.6875 27.296875 
Q 48.6875 37.203125 44.609375 42.84375 
Q 40.53125 48.484375 33.40625 48.484375 
Q 26.265625 48.484375 22.1875 42.84375 
Q 18.109375 37.203125 18.109375 27.296875 
Q 18.109375 17.390625 22.1875 11.75 
Q 26.265625 6.109375 33.40625 6.109375 
Q 40.53125 6.109375 44.609375 11.75 
Q 48.6875 17.390625 48.6875 27.296875 
z
" id="DejaVuSans-112"/>
      <path d="M 9.421875 75.984375 
L 18.40625 75.984375 
L 18.40625 0 
L 9.421875 0 
z
" id="DejaVuSans-108"/>
      <path d="M 56.203125 29.59375 
L 56.203125 25.203125 
L 14.890625 25.203125 
Q 15.484375 15.921875 20.484375 11.0625 
Q 25.484375 6.203125 34.421875 6.203125 
Q 39.59375 6.203125 44.453125 7.46875 
Q 49.3125 8.734375 54.109375 11.28125 
L 54.109375 2.78125 
Q 49.265625 0.734375 44.1875 -0.34375 
Q 39.109375 -1.421875 33.890625 -1.421875 
Q 20.796875 -1.421875 13.15625 6.1875 
Q 5.515625 13.8125 5.515625 26.8125 
Q 5.515625 40.234375 12.765625 48.109375 
Q 20.015625 56 32.328125 56 
Q 43.359375 56 49.78125 48.890625 
Q 56.203125 41.796875 56.203125 29.59375 
z
M 47.21875 32.234375 
Q 47.125 39.59375 43.09375 43.984375 
Q 39.0625 48.390625 32.421875 48.390625 
Q 24.90625 48.390625 20.390625 44.140625 
Q 15.875 39.890625 15.1875 32.171875 
z
" id="DejaVuSans-101"/>
     </defs>
     <g style="fill:#262626;" transform="translate(141.5 107.452)scale(0.11 -0.11)">
      <use transform="translate(0 0.78125)" xlink:href="#DejaVuSans-115"/>
      <use transform="translate(52.099609 0.78125)" xlink:href="#DejaVuSans-97"/>
      <use transform="translate(113.378906 0.78125)" xlink:href="#DejaVuSans-109"/>
      <use transform="translate(210.791016 0.78125)" xlink:href="#DejaVuSans-112"/>
      <use transform="translate(274.267578 0.78125)" xlink:href="#DejaVuSans-108"/>
      <use transform="translate(302.050781 0.78125)" xlink:href="#DejaVuSans-101"/>
      <use transform="translate(363.574219 0.78125)" xlink:href="#DejaVuSans-40"/>
      <use transform="translate(402.587891 0.78125)" xlink:href="#DejaVuSans-115"/>
      <use transform="translate(454.6875 0.78125)" xlink:href="#DejaVuSans-111"/>
      <use transform="translate(515.869141 0.78125)" xlink:href="#DejaVuSans-102"/>
      <use transform="translate(551.074219 0.78125)" xlink:href="#DejaVuSans-116"/>
      <use transform="translate(590.283203 0.78125)" xlink:href="#DejaVuSans-109"/>
      <use transform="translate(687.695312 0.78125)" xlink:href="#DejaVuSans-97"/>
      <use transform="translate(748.974609 0.78125)" xlink:href="#DejaVuSans-120"/>
      <use transform="translate(808.154297 0.78125)" xlink:href="#DejaVuSans-40"/>
      <use transform="translate(910.832031 12.015625)" xlink:href="#DejaVuSans-8407"/>
      <use transform="translate(847.167969 0.78125)" xlink:href="#DejaVuSans-Oblique-120"/>
      <use transform="translate(909.761719 0.78125)" xlink:href="#DejaVuSans-41"/>
      <use transform="translate(948.775391 0.78125)" xlink:href="#DejaVuSans-44"/>
      <use transform="translate(1000.044922 0.78125)" xlink:href="#DejaVuSans-Oblique-116"/>
      <use transform="translate(1058.736328 0.78125)" xlink:href="#DejaVuSans-61"/>
      <use transform="translate(1162.007812 0.78125)" xlink:href="#DejaVuSans-48"/>
      <use transform="translate(1225.630859 0.78125)" xlink:href="#DejaVuSans-46"/>
      <use transform="translate(1254.792969 0.78125)" xlink:href="#DejaVuSans-56"/>
      <use transform="translate(1318.416016 0.78125)" xlink:href="#DejaVuSans-41"/>
     </g>
    </g>
   </g>
  </g>
 </g>
 <defs>
  <clipPath id="pb4ea2908ce">
   <rect height="342.468" width="624.96" x="100.8" y="54.432"/>
  </clipPath>
 </defs>
</svg>
